<svg width="84" height="91" viewBox="0 0 84 91" fill="none" xmlns="http://www.w3.org/2000/svg">
<path d="M32.7238 21.3784C24.6674 27.0378 17.6354 34.0432 11.9609 42.0865C8.22135 47.4054 8.22135 54.5973 11.9609 59.9162C17.6354 67.9513 24.6674 74.9892 32.7563 80.6486C38.0812 84.3783 45.2677 84.3783 50.6007 80.6486C58.6652 74.9892 65.7135 67.9838 71.3879 59.9162C75.1275 54.5973 75.1275 47.4297 71.3879 42.1108C65.7135 34.0757 58.6896 27.0378 50.6007 21.3784C45.2677 17.6486 38.0812 17.6486 32.7563 21.3784H32.7238Z" fill="black" stroke="#FCC31D" style="fill:black;fill-opacity:1;stroke:#FCC31D;stroke:color(display-p3 0.9882 0.7647 0.1137);stroke-opacity:1;" stroke-width="4.5" stroke-linecap="round" stroke-linejoin="round"/>
<path d="M32.7238 18.1352C24.6674 23.7946 17.6354 30.8082 11.9609 38.8433C8.22135 44.1622 8.22135 51.3541 11.9609 56.673C17.6354 64.7082 24.6674 71.746 32.7563 77.4055C38.0812 81.1352 45.2677 81.1352 50.6007 77.4055C58.6652 71.746 65.7135 64.7406 71.3879 56.673C75.1275 51.3541 75.1275 44.1865 71.3879 38.8676C65.7135 30.8325 58.6896 23.7946 50.6007 18.1352C45.2677 14.4055 38.0812 14.4055 32.7563 18.1352H32.7238Z" fill="#FDD226" stroke="#FDD226" style="fill:#FDD226;fill:color(display-p3 0.9922 0.8235 0.1490);fill-opacity:1;stroke:#FDD226;stroke:color(display-p3 0.9922 0.8235 0.1490);stroke-opacity:1;" stroke-width="4.5" stroke-linecap="round" stroke-linejoin="round"/>
<path d="M34.0246 19.6593C38.7235 16.3675 45.0727 16.3675 49.7716 19.6593C57.6816 25.1972 64.5592 32.081 70.1117 39.9458C73.4123 44.6404 73.4123 50.9647 70.1117 55.6512C64.5592 63.5404 57.6572 70.3999 49.7634 75.9458C45.0645 79.2296 38.7235 79.2296 34.0246 75.9377C26.1146 70.408 19.237 63.5242 13.6764 55.6512C10.3839 50.9647 10.3839 44.608 13.6764 39.9215C19.1882 32.1134 26.0089 25.2945 33.8295 19.781C33.8946 19.7404 33.9596 19.6999 34.0246 19.6593Z" fill="#FDD226" style="fill:#FDD226;fill:color(display-p3 0.9922 0.8235 0.1490);fill-opacity:1;"/>
<mask id="mask0_4227_36838" style="mask-type:luminance" maskUnits="userSpaceOnUse" x="0" y="1" width="83" height="90">
<path d="M0.652344 1.06738H82.7607V90.2566H0.652344V1.06738Z" fill="white" style="fill:white;fill-opacity:1;"/>
</mask>
<g mask="url(#mask0_4227_36838)">
<path d="M34.2434 19.9592C38.9423 16.6673 45.2833 16.6673 49.9822 19.9592C57.9004 25.497 64.778 32.3808 70.3304 40.2456C73.6229 44.9321 73.6229 51.2646 70.3304 55.951C64.778 63.8402 57.876 70.6997 49.9822 76.2456C45.2833 79.5294 38.9423 79.5294 34.2434 76.2375C26.3252 70.6997 19.4476 63.8159 13.8951 55.951C10.6027 51.2646 10.6027 44.9078 13.8951 40.2213C19.407 32.4132 26.2276 25.5943 34.0401 20.0727C34.1133 20.0402 34.1783 19.9997 34.2434 19.9592Z" fill="#E4E4E4" style="fill:#E4E4E4;fill:color(display-p3 0.8937 0.8937 0.8937);fill-opacity:1;"/>
</g>
<path d="M49.9844 19.9596C45.2855 16.6677 38.9363 16.6677 34.2374 19.9596C34.1724 20.0002 34.1074 20.0407 34.0423 20.0732C26.2217 25.5948 19.4092 32.4137 13.8973 40.2218C10.5967 44.9083 10.5967 51.265 13.8973 55.9515C19.4498 63.8164 26.3274 70.7002 34.2374 76.238C38.9363 79.5299 45.2855 79.5299 49.9844 76.2461C57.87 70.7002 64.7801 63.8407 70.3326 55.9515C73.6251 51.265 73.6251 44.9326 70.3326 40.2461C64.772 32.3813 57.8944 25.4975 49.9844 19.9596Z" fill="#FEF8D6" style="fill:#FEF8D6;fill:color(display-p3 0.9961 0.9725 0.8392);fill-opacity:1;"/>
<path d="M72.1261 56.511C71.3538 60.5894 67.6711 62.5435 54.7695 54.3867" stroke="#FFA901" style="stroke:#FFA901;stroke:color(display-p3 1.0000 0.6627 0.0039);stroke-opacity:1;" stroke-width="12" stroke-linecap="round"/>
<path d="M40.6736 10.6029C40.0476 13.684 42.0394 16.6921 45.1286 17.3245C48.2178 17.9488 51.2339 15.9623 51.868 12.8813C52.494 9.80017 50.5022 6.79206 47.413 6.15963C44.3238 5.53531 41.3077 7.52179 40.6736 10.6029Z" fill="#3D3D3D" style="fill:#3D3D3D;fill:color(display-p3 0.2392 0.2392 0.2392);fill-opacity:1;"/>
<path d="M67.0477 34.5701C68.7793 27.4674 64.4788 21.0863 57.8125 18.7106C51.8129 16.5782 48.3823 15.7836 42.1713 14.916C35.1636 13.9349 28.3917 17.6647 26.6601 24.7593C24.9285 31.862 29.0583 38.9566 35.8953 40.6187L51.5365 44.4133C58.3735 46.0755 65.3161 41.6647 67.0477 34.5701Z" fill="#FF4B4B" style="fill:#FF4B4B;fill:color(display-p3 1.0000 0.2941 0.2941);fill-opacity:1;"/>
<path d="M59.927 36.0867C61.0244 28.838 56.3906 21.9542 49.2447 20.2191C42.107 18.484 34.8148 22.4732 32.4491 29.4218L24.8398 51.7434L56.3987 59.4056L59.927 36.0867Z" fill="#FFCBA3" style="fill:#FFCBA3;fill:color(display-p3 1.0000 0.7961 0.6392);fill-opacity:1;"/>
<path d="M48.9427 27.3782C48.9346 27.4187 48.9264 27.4512 48.9183 27.4836C48.5199 29.1052 46.8859 30.0944 45.26 29.7052C43.6422 29.3079 42.6423 27.6782 43.0406 26.0647C43.0488 26.0241 43.0569 25.9917 43.065 25.9512L48.9427 27.3782Z" fill="white" style="fill:white;fill-opacity:1;"/>
<path d="M56.3411 29.1785C56.333 29.2109 56.3167 29.2515 56.3086 29.2839C55.9184 30.8974 54.2843 31.8947 52.6584 31.4974C51.0407 31.1082 50.0407 29.4785 50.4391 27.8569C50.4472 27.8244 50.4553 27.7839 50.4635 27.7515L56.3411 29.1785Z" fill="white" style="fill:white;fill-opacity:1;"/>
<path d="M51.5756 25.1731C52.7138 25.4164 53.6893 25.3515 54.6974 25.1407C55.3071 25.011 55.9006 25.4001 56.0225 26.0001C56.1526 26.6083 55.7624 27.2001 55.1608 27.3218C53.9251 27.5812 52.6243 27.6785 51.1041 27.3542C50.5025 27.2245 50.1123 26.6245 50.2505 26.0245C50.3806 25.4245 50.974 25.0353 51.5756 25.1731Z" fill="#3D3D3D" style="fill:#3D3D3D;fill:color(display-p3 0.2392 0.2392 0.2392);fill-opacity:1;"/>
<path d="M48.0336 25.3921C47.2044 24.5813 46.3426 24.1273 45.3671 23.7705C44.7899 23.5597 44.4891 22.9192 44.7005 22.3354C44.9118 21.7597 45.5541 21.4597 46.1394 21.6705C47.3182 22.1083 48.4807 22.7083 49.5945 23.7867C50.0335 24.2165 50.0497 24.9219 49.6188 25.3678C49.188 25.8138 48.4726 25.8219 48.0336 25.3921Z" fill="#3D3D3D" style="fill:#3D3D3D;fill:color(display-p3 0.2392 0.2392 0.2392);fill-opacity:1;"/>
<path d="M42.0891 17.3489L39.699 16.9272C36.5366 18.3867 31.3743 20.4218 30.4882 24.0705L30.0898 26.3002L36.6504 26.884C39.0486 27.0948 41.2517 25.5218 41.8208 23.1867L42.9183 18.6948C43.0646 18.0948 42.6906 17.4948 42.0891 17.3489Z" fill="#3D3D3D" style="fill:#3D3D3D;fill:color(display-p3 0.2392 0.2392 0.2392);fill-opacity:1;"/>
<path d="M48.1881 30.1759C48.2043 30.8732 48.8953 31.4488 49.7002 31.4245C50.505 31.4083 51.1147 30.8002 51.0985 30.0948C51.0659 29.0894 49.6351 27.8164 49.5782 27.8164C49.5132 27.8164 48.1556 29.1056 48.1881 30.1759Z" fill="#E89665" style="fill:#E89665;fill:color(display-p3 0.9098 0.5882 0.3961);fill-opacity:1;"/>
<path d="M43.7969 38.4946C44.8537 39.6379 46.9593 40.2622 48.2763 39.946" stroke="#E89665" style="stroke:#E89665;stroke:color(display-p3 0.9098 0.5882 0.3961);stroke-opacity:1;" stroke-width="1.5" stroke-linecap="round"/>
<path d="M58.5917 43.2781C58.1933 42.3295 57.0064 41.5187 55.6406 40.8457C57.0389 41.5349 58.1933 42.37 58.5917 43.2781Z" fill="white" style="fill:white;fill-opacity:1;"/>
<path d="M62.0472 65.9485C61.7058 63.6945 61.2749 61.0674 60.9335 59.2837C59.1694 50.0242 51.8609 42.6296 42.5445 41.0242C33.228 39.4188 23.8465 43.9269 19.0663 52.0593C17.855 54.1269 16.6844 56.1539 15.5625 58.2377C20.8061 65.1539 27.0983 71.2431 34.2361 76.2377C38.9349 79.5296 45.2841 79.5296 49.983 76.2458C54.3242 73.1972 58.3646 69.7431 62.0472 65.9485Z" fill="#FFB100" style="fill:#FFB100;fill:color(display-p3 1.0000 0.6941 0.0000);fill-opacity:1;"/>
<path d="M36.8304 24.1025C37.2125 23.089 38.3587 22.0998 40.0253 21.4998C44.6673 19.8214 52.5041 20.989 56.7071 25.4809C57.9103 26.7701 58.8289 28.789 58.8858 29.0485C58.9671 29.4052 59.3574 30.6701 58.0648 31.0268C55.0568 31.8458 53.2683 34.1566 53.7155 39.5079C53.8455 41.0485 54.6422 43.6025 57.1786 44.1377C57.39 44.1863 58.2273 44.2268 59.024 43.9187C63.1132 42.3782 65.1456 38.6404 66.2512 35.1214C67.8039 28.7728 64.0887 20.5836 57.7152 19.035L43.9275 15.5809C39.8058 14.5755 32.2453 17.8593 29.4081 20.616L29.3919 22.7647C29.2537 22.7485 29.1073 22.7323 28.961 22.7079C28.6765 23.3809 28.4488 24.0782 28.27 24.7998C27.3351 28.635 27.9123 34.2052 29.8552 37.1079C30.9609 37.9187 35.7735 39.0539 38.6758 35.1214C41.5943 31.1809 41.6837 25.8701 36.8304 24.1025Z" fill="#FF4B4B" style="fill:#FF4B4B;fill:color(display-p3 1.0000 0.2941 0.2941);fill-opacity:1;"/>
<path d="M3.74379 16.4002C4.33725 12.2002 6.25582 9.1272 8.82476 7.01098C11.5238 4.78936 14.8975 3.65423 18.125 3.29747C22.084 2.85963 29.5876 3.00558 33.2378 9.81639C35.9856 14.9407 33.2622 19.6434 33.8394 21.0542C34.4166 22.4731 34.4328 23.9326 34.4979 25.5056C34.6523 29.6813 30.3274 37.011 26.1082 37.3759C27.1 35.6894 26.661 34.1083 25.3603 34.1569C24.0758 34.2056 23.3929 35.3002 23.0271 36.3786C22.9539 36.5975 22.8889 36.8164 22.8238 37.0353C22.458 38.1948 19.6777 40.7975 19.6777 40.7975C18.5721 41.1137 17.4665 41.5272 16.4259 41.884C15.8812 41.4137 14.3772 40.6677 14.3772 40.6677C12.7757 39.8569 11.4018 40.538 11.1092 41.884C10.7758 43.465 12.605 44.6488 13.7025 44.2596C13.1659 45.411 10.8815 46.838 9.00361 46.7326C6.23956 46.5867 5.04452 44.6975 4.53236 42.7677C5.42661 43.2218 6.31273 43.2948 6.97935 42.8813C8.30447 42.0542 9.00361 39.2326 6.60539 37.8299C4.11775 36.3786 2.41868 34.4326 2.34551 32.3164C2.27235 30.4029 3.26415 28.7002 4.78438 27.7677C5.77618 27.1677 6.64604 26.138 6.60539 25.1894C6.57288 24.2407 5.81683 23.5029 5.012 23.7056C4.21531 23.9083 3.35358 24.8569 4.11775 26.138C0.922842 24.6137 0.817158 21.2488 1.44313 19.4975C1.66263 18.8813 2.29673 17.738 3.25602 16.8623C3.41861 16.7083 3.5812 16.5542 3.74379 16.4002Z" fill="#FFC700" style="fill:#FFC700;fill:color(display-p3 1.0000 0.7800 0.0000);fill-opacity:1;"/>
<path d="M30.1889 47.4056L34.8634 45.1516C34.8634 45.1516 35.2861 42.3381 32.2619 41.6327C29.6361 41.0165 24.6283 40.6029 23.295 38.7056C21.9699 36.8083 22.2057 29.6651 23.295 27.1921L12.5884 22.2705C9.10895 29.4381 13.0599 41.8273 15.5801 44.1705C21.6122 49.7732 30.1889 47.4056 30.1889 47.4056Z" fill="#FFB100" style="fill:#FFB100;fill:color(display-p3 1.0000 0.6941 0.0000);fill-opacity:1;"/>
<path d="M62.0541 65.8998C61.7452 63.9214 61.3387 61.6349 61.0785 60.2484C61.0216 59.9403 60.8834 59.0971 60.8834 59.0971C59.6803 52.8782 55.9813 47.6728 50.8516 44.3403C53.5587 46.5701 54.7537 54.2728 53.8595 62.5268C55.835 63.2241 59.0299 65.1944 60.981 66.9944C61.3387 66.6376 61.7045 66.2728 62.0541 65.8998Z" fill="#FF9500" style="fill:#FF9500;fill:color(display-p3 1.0000 0.5843 0.0000);fill-opacity:1;"/>
<path d="M16.6346 59.6161C19.7157 58.0269 25.2032 57.2242 33.9912 58.4242C35.357 50.5107 37.2837 42.7918 38.6982 40.7161L38.6251 40.708C30.6906 40.7729 23.2033 45.0864 19.0979 52.0675C17.8947 54.1107 16.7403 56.1053 15.6347 58.1648C15.6185 58.1972 15.6022 58.2296 15.5859 58.2621C15.9274 58.7161 16.2769 59.1702 16.6346 59.6161Z" fill="#FF9500" style="fill:#FF9500;fill:color(display-p3 1.0000 0.5843 0.0000);fill-opacity:1;"/>
<path d="M46.4155 26.7624L46.383 26.9002C46.2204 27.5489 45.57 27.9462 44.9197 27.7921C44.2693 27.6381 43.871 26.9813 44.0254 26.3327L44.0661 26.1948L46.4155 26.7624Z" fill="#3D3D3D" style="fill:#3D3D3D;fill:color(display-p3 0.2392 0.2392 0.2392);fill-opacity:1;"/>
<path d="M53.0705 28.384V28.4083C52.9079 29.0488 52.2575 29.4461 51.6072 29.2921C50.9568 29.138 50.5585 28.4813 50.7129 27.8326L50.7211 27.8164L53.0705 28.384Z" fill="#3D3D3D" style="fill:#3D3D3D;fill:color(display-p3 0.2392 0.2392 0.2392);fill-opacity:1;"/>
<path d="M72.6416 56.3892C72.2677 58.7243 70.1215 61.0675 66.1055 59.8108" stroke="#FFA901" style="stroke:#FFA901;stroke:color(display-p3 1.0000 0.6627 0.0039);stroke-opacity:1;" stroke-width="12" stroke-linecap="round"/>
<path d="M43.4133 47.892C43.2589 48.6217 43.9092 49.3839 44.8685 49.5866C45.8197 49.7893 46.722 49.3595 46.8765 48.6217C47.0391 47.892 46.3887 47.1298 45.4294 46.9271C44.4702 46.7244 43.5759 47.1541 43.4133 47.892Z" fill="white" style="fill:white;fill-opacity:1;"/>
<path d="M52.0972 45.1759C50.9753 44.3407 49.7721 43.5948 48.5121 42.9542C47.4227 42.4272 46.2846 41.9732 45.0977 41.6245L45.309 42.6137C45.561 44.2596 47.9105 46.5623 49.951 46.838C51.6988 47.0813 52.276 46.4569 52.0972 45.1759Z" fill="white" style="fill:white;fill-opacity:1;"/>
<path d="M38.2213 41.5755L38.3269 40.716C39.7252 40.6917 41.1398 40.789 42.5462 41.016C43.6518 41.2025 44.7249 41.5025 45.7736 41.835L45.7004 42.5485C45.5216 43.7971 43.7006 44.5917 41.6357 44.3242C39.5708 44.0566 38.0424 42.8242 38.2213 41.5755Z" fill="white" style="fill:white;fill-opacity:1;"/>
<path d="M25.6179 28.8702C25.5288 29.7752 25.2199 30.6498 24.709 31.4439C24.198 32.238 23.495 32.9362 22.6401 33.4986C21.7851 34.061 20.795 34.4766 19.7262 34.7216C18.6575 34.9666 17.531 35.0362 16.4111 34.9265C15.2912 34.8169 14.1998 34.53 13.1993 34.0824C12.1988 33.6347 11.3087 33.035 10.5798 32.3176C9.85097 31.6001 9.29766 30.7789 8.95147 29.9008C8.60527 29.0227 8.47298 28.105 8.56214 27.2C8.6513 26.295 8.96017 25.4204 9.47111 24.6263C9.98205 23.8322 10.6851 23.134 11.54 22.5716C12.3949 22.0092 13.385 21.5937 14.4538 21.3487C15.5226 21.1037 16.6491 21.034 17.769 21.1437C18.8889 21.2534 19.9802 21.5402 20.9808 21.9879C21.9813 22.4355 22.8714 23.0352 23.6003 23.7527C24.3291 24.4701 24.8824 25.2914 25.2286 26.1694C25.5748 27.0475 25.7071 27.9653 25.6179 28.8702Z" fill="#FF4B4B" style="fill:#FF4B4B;fill:color(display-p3 1.0000 0.2941 0.2941);fill-opacity:1;"/>
<path d="M8.62109 26.7622C10.5234 28.8217 13.0436 30.119 16.2303 30.8163C18.8074 31.3919 22.5876 31.246 25.5305 29.446C25.5712 29.2595 25.6037 29.0649 25.62 28.8703C25.6525 28.5136 25.6525 28.1568 25.6281 27.8082L25.5956 27.7676C22.986 29.8109 19.1245 30.0784 16.523 29.5027C13.2387 28.7811 10.8323 27.4109 9.10887 25.2622C8.88124 25.7325 8.71865 26.2352 8.62109 26.7622Z" fill="#F01E1E" style="fill:#F01E1E;fill:color(display-p3 0.9412 0.1176 0.1176);fill-opacity:1;"/>
<path d="M79.215 58.0838C78.9214 58.9745 78.4211 59.7858 77.7434 60.4704C77.0656 61.1549 76.2241 61.6989 75.268 62.0704C74.312 62.4419 73.2606 62.6335 72.1756 62.634C71.0906 62.6345 69.9937 62.4438 68.9491 62.0732C67.9046 61.7026 66.9335 61.1594 66.0926 60.4755C65.2517 59.7917 64.558 58.9808 64.0521 58.0906C63.5462 57.2003 63.2382 56.2485 63.1463 55.2908C63.0544 54.3332 63.1804 53.389 63.5169 52.5136C63.8104 51.6229 64.3108 50.8116 64.9885 50.127C65.6662 49.4425 66.5078 48.8985 67.4638 48.527C68.4199 48.1555 69.4712 47.9639 70.5562 47.9634C71.6413 47.9629 72.7382 48.1536 73.7827 48.5242C74.8272 48.8948 75.7984 49.438 76.6393 50.1219C77.4802 50.8057 78.1739 51.6165 78.6798 52.5068C79.1857 53.3971 79.4936 54.3489 79.5855 55.3066C79.6774 56.2642 79.5515 57.2084 79.215 58.0838Z" fill="#EA2B2B" style="fill:#EA2B2B;fill:color(display-p3 0.9176 0.1686 0.1686);fill-opacity:1;"/>
<path d="M62.5261 46.3757C62.77 45.0499 63.2773 43.7862 64.0181 42.6587C64.7588 41.5313 65.7182 40.563 66.8396 39.8108C67.9611 39.0585 69.222 38.5375 70.5483 38.2784C71.8746 38.0193 73.2395 38.0273 74.5626 38.3019C75.8858 38.5766 77.1405 39.1123 78.253 39.8776C79.3655 40.643 80.3134 41.6224 81.0408 42.7584C81.7683 43.8944 82.2607 45.1641 82.489 46.4926C82.7173 47.8212 82.6769 49.1818 82.3703 50.4946C82.1264 51.8204 81.6191 53.0842 80.8783 54.2116C80.1375 55.339 79.1782 56.3073 78.0567 57.0595C76.9353 57.8118 75.6743 58.3328 74.3481 58.5919C73.0218 58.851 71.6569 58.843 70.3338 58.5684C69.0106 58.2938 67.7559 57.758 66.6434 56.9927C65.5309 56.2274 64.583 55.2479 63.8555 54.1119C63.1281 52.9759 62.6357 51.7063 62.4074 50.3777C62.1791 49.0492 62.2195 47.6885 62.5261 46.3757Z" fill="#FF4B4B" style="fill:#FF4B4B;fill:color(display-p3 1.0000 0.2941 0.2941);fill-opacity:1;"/>
<path d="M28.5609 23.2838C31.325 21.3379 33.0728 18.4676 33.0728 15.273C33.0728 9.41083 27.1952 4.65137 19.9436 4.65137C15.0009 4.65137 10.7003 6.86488 8.45657 10.1243C7.3347 11.5676 6.50548 13.3189 6.09901 15.3703C4.96087 21.046 8.99312 27.0135 14.757 28.8379C19.2038 30.2406 24.5368 29.8595 26.8131 26.4054C27.5935 26.4622 27.8943 25.4243 28.2195 24.3379C28.3252 23.9811 28.439 23.6162 28.5609 23.2838Z" fill="#FF4B4B" style="fill:#FF4B4B;fill:color(display-p3 1.0000 0.2941 0.2941);fill-opacity:1;"/>
<path d="M30.7223 19.9758C27.5356 18.7515 23.9586 21.5082 23.9586 24.4353C22.9749 24.6623 21.9424 24.7839 20.8775 24.7839C14.5933 24.7839 9.49609 20.6001 9.49609 15.4434" stroke="#EA2B2B" style="stroke:#EA2B2B;stroke:color(display-p3 0.9176 0.1686 0.1686);stroke-opacity:1;" stroke-width="2" stroke-linecap="round"/>
<path d="M25.1649 28.0676C24.3194 27.3055 23.6853 25.4163 24.0511 23.6406" stroke="#EA2B2B" style="stroke:#EA2B2B;stroke:color(display-p3 0.9176 0.1686 0.1686);stroke-opacity:1;" stroke-width="2" stroke-linecap="round"/>
<path d="M24.7578 24.7838C24.7578 24.2312 24.8669 23.684 25.079 23.1734C25.291 22.6629 25.6018 22.199 25.9936 21.8082C26.3854 21.4175 26.8505 21.1075 27.3624 20.896C27.8743 20.6845 28.423 20.5757 28.977 20.5757C29.5311 20.5757 30.0798 20.6845 30.5917 20.896C31.1036 21.1075 31.5687 21.4175 31.9605 21.8082C32.3523 22.199 32.6631 22.6629 32.8751 23.1734C33.0871 23.684 33.1963 24.2312 33.1963 24.7838C33.1963 25.8999 32.7518 26.9702 31.9605 27.7594C31.1692 28.5485 30.0961 28.9919 28.977 28.9919C27.858 28.9919 26.7849 28.5485 25.9936 27.7594C25.2023 26.9702 24.7578 25.8999 24.7578 24.7838Z" fill="#FF4B4B" style="fill:#FF4B4B;fill:color(display-p3 1.0000 0.2941 0.2941);fill-opacity:1;"/>
<path d="M48.7544 36.8728C50.0714 35.9566 50.0064 34.0431 48.6325 33.4917C47.0147 32.835 46.4619 32.1863 45.0799 30.9134C43.9661 29.8836 42.3402 30.6701 41.9744 32.0566C41.6004 33.435 42.0232 34.9188 43.6572 36.3863C45.0067 37.5944 47.4374 37.789 48.7544 36.8728Z" fill="white" style="fill:white;fill-opacity:1;"/>
<path d="M63.3875 46.562C62.3461 46.562 61.3474 46.9746 60.611 47.709C59.8746 48.4435 59.4609 49.4396 59.4609 50.4782V51.1269C59.4609 51.6412 59.5625 52.1504 59.7598 52.6255C59.9572 53.1007 60.2464 53.5324 60.611 53.8961C60.9756 54.2597 61.4085 54.5482 61.8849 54.745C62.3613 54.9418 62.8719 55.0431 63.3875 55.0431C63.9032 55.0431 64.4137 54.9418 64.8901 54.745C65.3665 54.5482 65.7994 54.2597 66.164 53.8961C66.5286 53.5324 66.8179 53.1007 67.0152 52.6255C67.2125 52.1504 67.3141 51.6412 67.3141 51.1269V50.4782C67.3141 49.9639 67.2125 49.4547 67.0152 48.9796C66.8179 48.5044 66.5286 48.0727 66.164 47.709C65.7994 47.3454 65.3665 47.0569 64.8901 46.8601C64.4137 46.6633 63.9032 46.562 63.3875 46.562Z" fill="#EA2B2B" style="fill:#EA2B2B;fill:color(display-p3 0.9176 0.1686 0.1686);fill-opacity:1;"/>
<path d="M62.6634 46.019C62.2178 48.1582 62.5143 50.3598 63.4875 52.1393C64.4607 53.9188 66.031 55.1305 67.8529 55.5079C69.6748 55.8853 71.5991 55.3975 73.2024 54.1517C74.8057 52.9059 75.9568 51.0042 76.4023 48.865C76.6229 47.8057 76.6637 46.72 76.5223 45.6699C76.3809 44.6198 76.0601 43.6258 75.5782 42.7447C75.0963 41.8636 74.4628 41.1126 73.7138 40.5346C72.9647 39.9566 72.1149 39.5629 71.2128 39.376C70.3107 39.1892 69.374 39.2127 68.4561 39.4455C67.5382 39.6782 66.6572 40.1154 65.8633 40.7323C65.0694 41.3492 64.3782 42.1335 63.8292 43.0406C63.2802 43.9477 62.884 44.9598 62.6634 46.019Z" fill="#FF4B4B" style="fill:#FF4B4B;fill:color(display-p3 1.0000 0.2941 0.2941);fill-opacity:1;"/>
<path d="M64.5284 54.735C61.5449 52.7242 61.0002 49.8134 62.5367 46.3756C62.6668 45.7513 62.8538 45.1594 63.0814 44.5918C63.0814 44.608 63.0733 44.6323 63.0651 44.6567C62.4392 46.7486 62.4391 48.4513 62.8131 49.8134C63.1871 51.1675 63.9512 52.2296 64.9512 53.0242C66.9673 54.654 69.959 55.1972 72.4385 54.7675C73.7555 54.5404 74.8448 53.8675 75.609 53.2269C75.9911 52.9026 76.2919 52.6026 76.487 52.3837C76.5846 52.2702 76.6577 52.181 76.7065 52.1242C76.7309 52.0918 76.7472 52.0675 76.7634 52.0594L76.7715 52.0431C77.0317 51.6783 77.5438 51.5972 77.9097 51.8648C78.2674 52.1242 78.3487 52.635 78.0885 52.9918L77.43 52.5215C78.0885 52.9918 78.0885 52.9918 78.0885 52.9918V52.9999H78.0804L78.0723 53.008L78.056 53.0404C78.0397 53.0567 78.0154 53.0891 77.9828 53.1296C77.9178 53.2107 77.8203 53.3242 77.6983 53.4621C77.4626 53.7296 77.1048 54.0864 76.6577 54.4675C75.7553 55.2215 74.414 56.0729 72.7149 56.3648C70.0891 56.8269 66.9267 56.3486 64.5284 54.735Z" fill="#EA2B2B" style="fill:#EA2B2B;fill:color(display-p3 0.9176 0.1686 0.1686);fill-opacity:1;"/>
</svg>
