<svg width="84" height="91" viewBox="0 0 84 91" fill="none" xmlns="http://www.w3.org/2000/svg">
<path d="M33.0746 21.5683C24.9664 27.2792 17.8891 34.3483 12.1782 42.4647C8.41456 47.832 8.41456 55.0892 12.1782 60.4565C17.8891 68.5647 24.9664 75.6665 33.1073 81.3774C38.4664 85.1411 45.6991 85.1411 51.0664 81.3774C59.1827 75.6665 66.2764 68.5974 71.9873 60.4565C75.7509 55.0892 75.7509 47.8565 71.9873 42.4892C66.2764 34.3811 59.2073 27.2792 51.0664 21.5683C45.6991 17.8047 38.4664 17.8047 33.1073 21.5683H33.0746Z" fill="black" stroke="#FF4B4B" style="fill:black;fill-opacity:1;stroke:#FF4B4B;stroke:color(display-p3 1.0000 0.2941 0.2941);stroke-opacity:1;" stroke-width="4.5" stroke-linecap="round" stroke-linejoin="round"/>
<path d="M33.0746 18.2954C24.9664 24.0063 17.8891 31.0836 12.1782 39.1917C8.41456 44.559 8.41456 51.8163 12.1782 57.1836C17.8891 65.2917 24.9664 72.3936 33.1073 78.1045C38.4664 81.8681 45.6991 81.8681 51.0664 78.1045C59.1827 72.3936 66.2764 65.3245 71.9873 57.1836C75.7509 51.8163 75.7509 44.5836 71.9873 39.2163C66.2764 31.1081 59.2073 24.0063 51.0664 18.2954C45.6991 14.5317 38.4664 14.5317 33.1073 18.2954H33.0746Z" fill="#EE4646" stroke="#FF7878" style="fill:#EE4646;fill:color(display-p3 0.9333 0.2745 0.2745);fill-opacity:1;stroke:#FF7878;stroke:color(display-p3 1.0000 0.4706 0.4706);stroke-opacity:1;" stroke-width="4.5" stroke-linecap="round" stroke-linejoin="round"/>
<path d="M34.3862 19.8336C39.1153 16.5118 45.5053 16.5118 50.2344 19.8336C58.1953 25.4218 65.1171 32.3682 70.7053 40.3046C74.0271 45.0418 74.0271 51.4237 70.7053 56.1527C65.1171 64.1137 58.1707 71.0355 50.2262 76.6318C45.4971 79.9455 39.1153 79.9455 34.3862 76.6237C26.4253 71.0437 19.5035 64.0973 13.9071 56.1527C10.5935 51.4237 10.5935 45.0091 13.9071 40.28C19.4544 32.4009 26.3189 25.52 34.1898 19.9564C34.2553 19.9155 34.3207 19.8746 34.3862 19.8336Z" fill="#EE4646" style="fill:#EE4646;fill:color(display-p3 0.9333 0.2745 0.2745);fill-opacity:1;"/>
<path d="M39.7502 8.52613C40.2329 11.9134 37.942 15.047 34.6284 15.5216C31.3147 15.9961 28.2383 13.6234 27.7556 10.2361C27.2729 6.84068 29.5638 3.70704 32.8774 3.2325C36.1911 2.76613 39.2674 5.13068 39.7502 8.52613Z" fill="#FFB100" style="fill:#FFB100;fill:color(display-p3 1.0000 0.6941 0.0000);fill-opacity:1;"/>
<path d="M26.1946 6.26833L34.6464 10.9238C35.0964 11.1692 35.1864 11.7665 34.8264 12.102C33.0674 13.6974 30.3674 13.9756 28.1337 12.7483C25.9001 11.5129 24.6974 9.08287 25.1064 6.75105C25.1883 6.26833 25.7446 6.02287 26.1946 6.26833Z" fill="#FFB100" style="fill:#FFB100;fill:color(display-p3 1.0000 0.6941 0.0000);fill-opacity:1;"/>
<path d="M25.0478 7.11084C25.8742 9.36902 29.3351 10.7763 32.9351 10.1872L26.8724 11.8399C25.5551 10.5963 24.8678 8.84539 25.0478 7.11084Z" fill="#FFB100" style="fill:#FFB100;fill:color(display-p3 1.0000 0.6941 0.0000);fill-opacity:1;"/>
<path d="M23.7896 11.7581C18.6514 13.9918 19.7805 17.51 19.666 19.2281L20.1241 30.4863C20.1896 32.1391 18.9132 33.5381 17.2605 33.62L15.1005 33.7345C14.8223 33.7591 14.626 34.1027 14.6505 34.9536C14.9451 38.8318 19.5187 42.6609 23.2496 42.3745L28.8051 41.54L49.2351 34.0945C48.5805 27.2954 49.6769 24.7345 46.9114 14.6872C46.535 13.0345 45.185 11.3572 43.5732 10.8091C38.6805 9.1236 28.9278 9.52451 23.7896 11.7581Z" fill="#FFB100" style="fill:#FFB100;fill:color(display-p3 1.0000 0.6941 0.0000);fill-opacity:1;"/>
<path d="M23.7896 11.7581C18.6514 13.9918 19.7805 17.51 19.666 19.2281L20.1241 30.4863C20.1896 32.1391 18.9132 33.5381 17.2605 33.62L15.1005 33.7345C14.8223 33.7591 14.626 34.1027 14.6505 34.9536C14.9451 38.8318 19.5187 42.6609 23.2496 42.3745L28.8051 41.54L49.2351 34.0945C48.5805 27.2954 49.6769 24.7345 46.9114 14.6872C46.535 13.0345 45.185 11.3572 43.5732 10.8091C38.6805 9.1236 28.9278 9.52451 23.7896 11.7581Z" fill="#FFB100" style="fill:#FFB100;fill:color(display-p3 1.0000 0.6941 0.0000);fill-opacity:1;"/>
<path d="M23.0463 18.4427C22.8826 16.2336 24.5436 14.3027 26.7608 14.1309L47.1745 15.26C48.9254 21.6009 50.3817 37.6945 50.7417 46.1136L25.0017 40.1245L23.0463 18.4427Z" fill="#FFD4C9" style="fill:#FFD4C9;fill:color(display-p3 1.0000 0.8314 0.7882);fill-opacity:1;"/>
<path d="M30.0553 14.3188C29.8672 14.957 29.8262 15.7179 29.9326 16.5361L31.6017 37.8007L50.6899 45.107C50.2644 36.467 48.8572 21.3552 47.1635 15.2598L30.0553 14.3188Z" fill="#FFD4C9" style="fill:#FFD4C9;fill:color(display-p3 1.0000 0.8314 0.7882);fill-opacity:1;"/>
<path d="M22.684 18.0011C22.5204 15.8411 24.0259 13.9675 26.055 13.812C28.0759 13.6566 29.8513 15.2848 30.015 17.4448L30.2522 20.5211C30.4159 22.6811 28.9104 24.5629 26.8813 24.7184C24.8604 24.8657 23.085 23.2375 22.9213 21.0775L22.684 18.0011Z" fill="#FFB100" style="fill:#FFB100;fill:color(display-p3 1.0000 0.6941 0.0000);fill-opacity:1;"/>
<path d="M26.5545 24.0473C26.7509 25.52 25.7936 26.8619 24.4027 27.05C23.02 27.2382 21.7354 26.1991 21.5391 24.7264C21.3345 23.2537 22.3 21.9037 23.6909 21.7237C25.0736 21.5355 26.3582 22.5746 26.5545 24.0473Z" fill="#FFD4C9" style="fill:#FFD4C9;fill:color(display-p3 1.0000 0.8314 0.7882);fill-opacity:1;"/>
<path d="M34.8828 25.1684C36.1837 24.0966 38.1801 24.5629 39.0064 25.5693C39.8328 26.5757 40.0046 26.9357 41.0355 27.2466C42.0746 27.5575 43.3019 28.1793 43.3755 29.922C43.441 31.6729 42.271 33.0311 40.1928 33.1457C38.1146 33.2684 36.2001 32.2211 34.8501 30.3966C33.5082 28.5638 33.5819 26.232 34.8828 25.1684Z" fill="#A41414" style="fill:#A41414;fill:color(display-p3 0.6431 0.0784 0.0784);fill-opacity:1;"/>
<path d="M42.0357 20.799C42.1585 19.0645 43.3776 17.7308 44.8585 17.8127C46.3476 17.8945 47.4603 19.3672 47.3376 21.0936L47.2721 22.0181C47.1576 23.7445 45.9139 25.0127 44.3757 24.8899C42.8376 24.759 41.8476 23.6054 41.9621 21.8708L42.0357 20.799Z" fill="white" style="fill:white;fill-opacity:1;"/>
<path d="M33.7716 20.1854C33.8861 18.2954 35.5143 16.8636 37.4125 16.9781C39.3025 17.1008 40.7343 18.729 40.6198 20.6108L40.5625 21.4945C40.448 23.3763 38.8198 24.8163 36.9216 24.6936C35.0316 24.579 33.5916 22.9508 33.7143 21.0608L33.7716 20.1854Z" fill="white" style="fill:white;fill-opacity:1;"/>
<path d="M43.7762 24.4807C44.1526 25.0289 44.0544 25.9043 43.4653 26.3216C42.8844 26.7307 42.0417 26.5261 41.6653 25.978C41.2889 25.4216 41.3953 23.368 41.4362 23.3352C41.4771 23.3025 43.3998 23.9243 43.7762 24.4807Z" fill="#EE9583" style="fill:#EE9583;fill:color(display-p3 0.9333 0.5843 0.5137);fill-opacity:1;"/>
<path d="M36.5708 22.7871C35.0408 22.6562 33.9526 23.008 33.4617 23.2453L32.8398 25.6017L39.8598 26.8944L39.688 24.1944C39.2135 23.6135 38.1089 22.918 36.5708 22.7871Z" fill="#FFD4C9" style="fill:#FFD4C9;fill:color(display-p3 1.0000 0.8314 0.7882);fill-opacity:1;"/>
<path d="M40.0633 26.772C39.6378 27.1729 39.0651 27.402 38.4351 27.3611C37.8214 27.3202 37.2814 27.0338 36.9133 26.592C36.4878 27.1647 35.7923 27.5166 35.0233 27.4675C34.606 27.4429 34.2214 27.2957 33.9023 27.0666C34.0005 26.2975 34.3278 25.6184 34.8842 25.1684C36.1851 24.0966 38.1814 24.5629 38.9996 25.5693C39.106 25.7002 39.196 25.8147 39.286 25.9211C39.5887 26.3057 39.8096 26.5675 40.0633 26.772Z" fill="white" style="fill:white;fill-opacity:1;"/>
<path d="M42.0425 32.5975C41.5516 32.9084 40.9298 33.1048 40.1935 33.1457C38.2462 33.2602 36.4544 32.3521 35.1289 30.7484C35.9635 30.1757 36.9944 29.8648 38.0825 29.9384C39.8498 30.0448 41.3225 31.1084 42.0425 32.5975Z" fill="#EE4646" style="fill:#EE4646;fill:color(display-p3 0.9333 0.2745 0.2745);fill-opacity:1;"/>
<path d="M56.2469 40.0917C53.7351 41.2863 51.3624 44.4117 50.8633 45.7453L60.886 60.1617C65.3942 58.0099 69.8451 55.0808 73.126 50.7281C75.0896 48.1263 75.8424 45.3363 75.9487 42.5708C76.0633 39.4944 73.0524 37.4572 70.0087 37.9153L62.9151 38.979C61.9169 38.889 58.7587 38.9053 56.2469 40.0917Z" fill="#FFD4C9" style="fill:#FFD4C9;fill:color(display-p3 1.0000 0.8314 0.7882);fill-opacity:1;"/>
<path d="M59.4458 69.0553L61.884 56.3571C63.6186 47.3571 57.2122 38.8153 48.0813 37.948L33.4522 36.5653C23.2495 35.5998 14.9204 44.608 16.6713 54.7044L17.8167 61.2989C22.6113 67.108 28.1667 72.2625 34.344 76.5989C39.0731 79.9125 45.4631 79.9125 50.1922 76.5989C53.4486 74.2998 56.5495 71.7798 59.4458 69.0553Z" fill="white" style="fill:white;fill-opacity:1;"/>
<path d="M29.2121 60.0145C53.7494 67.4273 62.0212 59.1473 62.0212 51.2927C61.1621 44.3709 56.1057 38.6518 49.4376 37.9482L32.6403 36.5327C28.713 36.5327 27.2239 40.1982 27.6985 43.1436L29.2121 60.0145Z" fill="white" style="fill:white;fill-opacity:1;"/>
<path d="M59.4467 69.0553L60.4204 64.0071C60.2976 63.9825 60.1749 63.9662 60.0522 63.9416C59.6022 63.868 59.1358 63.7862 58.6776 63.7289C54.7258 63.1971 50.1113 62.9762 45.1531 62.9762C37.4867 62.968 28.8467 63.4834 20.3867 64.2607C22.3913 66.478 24.5185 68.5889 26.7522 70.5771C33.1422 70.0944 39.4504 69.7998 45.1531 69.7998C49.9313 69.808 54.2267 70.0207 57.7694 70.4953L57.8513 70.5034C57.8594 70.5034 57.8594 70.5034 57.8676 70.5034C58.3994 70.0289 58.9231 69.5462 59.4467 69.0553Z" fill="#FF7979" style="fill:#FF7979;fill:color(display-p3 1.0000 0.4745 0.4745);fill-opacity:1;"/>
<path d="M23.7155 67.7382C24.7955 67.6564 25.7691 67.2882 26.391 66.6828C28.3055 64.8092 32.6173 55.5228 33.2146 50.3519C33.8201 45.181 29.2791 39.511 25.0246 39.1182C20.7619 38.7173 17.1537 40.9264 15.1982 46.2037C13.8973 49.7055 14.6582 54.6392 15.7955 58.7546C18.2255 61.9292 20.8682 64.9319 23.7155 67.7382Z" fill="#FFD4C9" style="fill:#FFD4C9;fill:color(display-p3 1.0000 0.8314 0.7882);fill-opacity:1;"/>
<path d="M27.8478 71.543C28.216 71.6166 28.5924 71.6821 28.9851 71.7393C34.7942 72.5657 45.3569 69.1048 49.4069 67.673C50.3969 67.3211 51.0187 66.3721 50.896 65.333C50.5442 62.4202 49.4069 56.8811 45.8724 56.693C44.9233 56.6357 43.9251 56.5702 42.9024 56.5048C38.7542 56.2348 34.2542 55.9402 31.4969 56.5048C28.4778 57.1348 22.4315 59.2702 19.4696 62.9684C19.4287 63.0175 19.396 63.0666 19.3633 63.1157C21.9815 66.1184 24.8206 68.9412 27.8478 71.543Z" fill="#FFD4C9" style="fill:#FFD4C9;fill:color(display-p3 1.0000 0.8314 0.7882);fill-opacity:1;"/>
<path d="M29.6707 12.8711C29.6216 11.9384 30.2434 10.4575 31.1434 10.2611C35.6189 9.29568 40.4952 9.63113 43.817 10.8257C45.3225 11.3739 46.5825 13.0429 46.9343 14.6957C47.008 14.9984 47.0816 15.2929 47.1552 15.5875L29.818 15.9229L29.6707 12.8711Z" fill="#FFB100" style="fill:#FFB100;fill:color(display-p3 1.0000 0.6941 0.0000);fill-opacity:1;"/>
<path d="M19.5923 16.389C19.1832 16.5772 18.9459 17.0026 18.9705 17.4444L19.0768 19.7354C19.0932 20.0954 19.4696 20.3326 19.805 20.2017C26.3587 17.5753 33.3214 16.0863 38.9996 16.3563C44.0478 16.6017 46.2078 17.2153 47.6478 17.9272C47.9096 18.0581 48.2287 17.8372 48.1714 17.5426L47.7541 15.1863C47.6887 14.8263 47.4759 14.5235 47.1732 14.3354C46.0278 13.6235 44.4568 12.7153 38.8278 12.519C32.6014 12.2899 25.5159 13.5254 19.5923 16.389Z" fill="#FF4B4B" style="fill:#FF4B4B;fill:color(display-p3 1.0000 0.2941 0.2941);fill-opacity:1;"/>
<path d="M30.0084 17.1338C29.6894 16.8147 29.5257 13.3456 29.6894 13.182C32.8148 12.6174 35.8748 12.4129 38.8284 12.5192C44.4575 12.7156 46.0284 13.6238 47.1739 14.3356C47.4766 14.5238 47.6894 14.8265 47.7548 15.1865L48.1721 17.5429C48.213 17.9356 47.8448 18.0174 47.673 17.9601C44.3348 16.7901 43.2303 16.5611 39.0003 16.3565C36.243 16.2256 33.183 16.512 30.0084 17.1338Z" fill="#FF4B4B" style="fill:#FF4B4B;fill:color(display-p3 1.0000 0.2941 0.2941);fill-opacity:1;"/>
<path d="M62.6704 39.6011L65.6731 57.4702C66.7613 56.8811 67.8167 56.2184 68.8394 55.4575C70.1485 54.4265 71.384 53.2729 72.5131 51.972C76.0722 47.8484 76.2276 42.8738 75.6794 38.3984C75.2213 34.6429 72.8076 30.2329 70.8685 27.3447L60.8867 29.022L61.8113 34.4956L62.6704 39.6011Z" fill="#FFD4C9" style="fill:#FFD4C9;fill:color(display-p3 1.0000 0.8314 0.7882);fill-opacity:1;"/>
<path d="M62.0158 35.7065L60.8867 29.022L70.8685 27.3447C71.8994 28.8829 73.0694 30.8547 74.0104 32.9329C74.1085 34.4138 71.7849 36.1484 68.6267 36.8929C65.4194 37.662 62.5149 37.122 62.0158 35.7065Z" fill="#FF4B4B" style="fill:#FF4B4B;fill:color(display-p3 1.0000 0.2941 0.2941);fill-opacity:1;"/>
<path d="M67.2261 17.9516C69.048 18.6434 70.52 20.0322 71.318 21.8125C72.1161 23.5929 72.175 25.6189 71.4817 27.4449C70.7884 29.2709 69.3997 30.7473 67.6212 31.5494C65.8426 32.3514 63.8198 32.4134 61.9979 31.7216C61.0957 31.3791 60.2701 30.8618 59.568 30.1994C58.8659 29.5369 58.3011 28.7423 57.9059 27.8607C57.5108 26.9792 57.2929 26.0281 57.2648 25.0617C57.2368 24.0953 57.399 23.1325 57.7423 22.2283C58.0856 21.3242 58.6032 20.4964 59.2656 19.7921C59.928 19.0879 60.7222 18.521 61.6028 18.1239C62.4835 17.7267 63.4333 17.5071 64.3982 17.4776C65.363 17.448 66.3239 17.6091 67.2261 17.9516Z" fill="#FFD4C9" style="fill:#FFD4C9;fill:color(display-p3 1.0000 0.8314 0.7882);fill-opacity:1;"/>
<path d="M62.3004 23.8508L70.5149 19.2118C71.0468 18.909 71.1122 18.1645 70.6377 17.7881L50.6904 1.75994C49.9704 1.17903 48.9722 1.98903 49.3731 2.81539L56.4995 17.2481C56.704 17.6736 56.5322 18.189 56.1068 18.4018L50.5922 21.1345C50.1258 21.3636 50.0113 21.9608 50.3468 22.3536L73.1577 48.699C74.1231 49.8118 75.8658 48.5927 75.1622 47.3081L62.3004 23.8508Z" fill="#FFB100" style="fill:#FFB100;fill:color(display-p3 1.0000 0.6941 0.0000);fill-opacity:1;"/>
<path d="M43.3686 19.6538C43.5518 19.6543 43.733 19.6912 43.9017 19.7623C44.0704 19.8333 44.2234 19.9372 44.3519 20.068C44.4803 20.1987 44.5817 20.3537 44.6503 20.5242C44.7189 20.6946 44.7532 20.877 44.7514 21.0611L44.735 22.0184C44.7318 22.3884 44.5827 22.7425 44.3205 23.0032C44.0582 23.2639 43.7042 23.4099 43.3359 23.4093C43.1527 23.4087 42.9716 23.3719 42.8029 23.3008C42.6342 23.2297 42.4812 23.1258 42.3527 22.9951C42.2243 22.8644 42.1228 22.7093 42.0543 22.5389C41.9857 22.3685 41.9514 22.186 41.9532 22.002L41.9696 21.0529C41.9701 20.869 42.0067 20.6869 42.0774 20.517C42.148 20.3471 42.2513 20.1927 42.3812 20.0628C42.5112 19.9328 42.6653 19.8298 42.8347 19.7596C43.0042 19.6894 43.1856 19.6535 43.3686 19.6538Z" fill="#3D3D3D" style="fill:#3D3D3D;fill:color(display-p3 0.2392 0.2392 0.2392);fill-opacity:1;"/>
<path d="M46.2657 53.6002C45.8403 55.2202 45.1203 58.4848 45.4312 60.9475C45.8648 64.3512 47.6484 66.6584 48.9166 67.8693C50.2912 67.3948 51.9193 66.7321 54.6439 65.0221C57.3684 63.3121 59.3812 55.1384 58.6366 54.0584C57.8839 52.9866 54.1366 49.943 52.8521 49.8693C51.9603 49.8202 48.9739 51.3257 47.4603 52.1275C46.8712 52.4302 46.4375 52.9621 46.2657 53.6002Z" fill="#FFD4C9" style="fill:#FFD4C9;fill:color(display-p3 1.0000 0.8314 0.7882);fill-opacity:1;"/>
<path d="M46.2577 53.608C45.8322 55.2198 45.104 58.4843 45.4149 60.9471C45.8486 64.3507 47.6322 66.658 48.9004 67.8689C50.2831 67.3943 51.9031 66.7316 54.6277 65.0216C57.3522 63.3116 59.3649 55.1462 58.6204 54.0662C57.8676 52.9862 54.1204 49.9507 52.8358 49.8771C51.9522 49.8198 48.9658 51.3253 47.444 52.1271C46.8549 52.4298 46.4213 52.9616 46.2577 53.608Z" fill="#FFA47D" style="fill:#FFA47D;fill:color(display-p3 1.0000 0.6431 0.4902);fill-opacity:1;"/>
<path d="M36.232 18.958C36.6255 18.9623 37.0013 19.1223 37.2773 19.4028C37.5533 19.6834 37.707 20.0618 37.7048 20.4553V21.2408C37.7026 21.4363 37.662 21.6295 37.5852 21.8094C37.5084 21.9892 37.3969 22.1522 37.2571 22.2889C37.1173 22.4257 36.9519 22.5336 36.7704 22.6064C36.5889 22.6793 36.3949 22.7156 36.1993 22.7135C35.8058 22.7092 35.43 22.5493 35.154 22.2687C34.8781 21.9881 34.7244 21.6097 34.7266 21.2162L34.7348 20.4389C34.7358 20.2434 34.7754 20.05 34.8512 19.8697C34.9271 19.6895 35.0377 19.5259 35.1767 19.3884C35.3157 19.2509 35.4805 19.1421 35.6616 19.0682C35.8426 18.9944 36.0365 18.957 36.232 18.958Z" fill="#3D3D3D" style="fill:#3D3D3D;fill:color(display-p3 0.2392 0.2392 0.2392);fill-opacity:1;"/>
<path d="M47.9596 21.8546C47.3132 21.2901 38.5832 20.611 32.8314 20.881L31.9805 18.3446L35.6787 16.7819L41.1523 16.7573L47.3623 18.3446L47.9596 21.8546Z" fill="#FFD4C9" style="fill:#FFD4C9;fill:color(display-p3 1.0000 0.8314 0.7882);fill-opacity:1;"/>
<path d="M46.1078 19.6536C45.2078 19.7518 43.9969 19.6864 42.9414 19.4409" stroke="#FFB100" style="stroke:#FFB100;stroke:color(display-p3 1.0000 0.6941 0.0000);stroke-opacity:1;" stroke-width="2.96421" stroke-linecap="round"/>
<path d="M38.8444 17.5427C38.8444 17.5427 36.8481 17.1581 34.7617 17.5181" stroke="#FFB100" style="stroke:#FFB100;stroke:color(display-p3 1.0000 0.6941 0.0000);stroke-opacity:1;" stroke-width="2.96421" stroke-linecap="round"/>
<path d="M70.8363 21.3145C69.7481 19.0073 67.719 17.1173 65.1744 16.9045C63.5708 16.7654 62.1308 16.9536 60.7972 17.7145C60.3717 17.96 60.1344 18.4345 60.1181 18.9254C60.0853 19.9318 60.9608 20.7418 61.959 20.8318C64.2908 21.0282 67.2199 21.8709 69.4126 22.73C70.1735 23.0327 71.1881 22.0591 70.8363 21.3145Z" fill="#FFD4C9" style="fill:#FFD4C9;fill:color(display-p3 1.0000 0.8314 0.7882);fill-opacity:1;"/>
<path d="M25.4186 39.1673C25.2877 39.1428 25.1567 39.1264 25.0258 39.1182C20.7631 38.7173 17.1549 40.9264 15.1995 46.2037C13.9395 49.6073 14.7086 54.6146 15.8622 58.8282C19.5031 63.5901 23.6431 67.9591 28.2086 71.8455C28.2986 71.8537 28.3886 71.8619 28.4867 71.8619C34.4349 72.6637 45.2922 69.121 49.3995 67.6728C50.3895 67.321 51.0195 66.3719 50.8886 65.3328C50.5695 62.6328 49.5795 57.6419 46.5686 56.7664C44.114 61.0782 40.0558 64.0237 34.4431 64.0237C26.3677 64.0237 18.9958 57.9364 18.9958 50.4255C18.9958 45.7455 21.5404 41.6137 25.4186 39.1673Z" fill="#FFD4C9" style="fill:#FFD4C9;fill:color(display-p3 1.0000 0.8314 0.7882);fill-opacity:1;"/>
<path d="M50.7411 64.2199C50.7984 64.6208 50.8557 64.9972 50.8884 65.3327C51.0193 66.3718 50.3893 67.3208 49.3993 67.6727C47.6075 68.3027 44.5393 69.3336 41.152 70.2254C40.5957 70.3072 40.1293 70.3645 39.7857 70.3727C37.2493 70.479 35.0566 67.4027 34.8848 63.5081C34.7211 59.6136 36.6357 56.3818 39.172 56.2754C39.2129 56.2754 39.262 56.2754 39.3193 56.2754C40.4238 56.3245 41.5448 56.3981 42.6493 56.4636C43.7293 56.529 44.7848 56.5945 45.7993 56.6436C47.2311 56.709 48.2784 57.6336 49.0393 58.9099L50.7411 64.2199Z" fill="#FF4B4B" style="fill:#FF4B4B;fill:color(display-p3 1.0000 0.2941 0.2941);fill-opacity:1;"/>
<path d="M46.2657 53.6002C45.8403 55.2202 45.1203 58.4848 45.4312 60.9475C45.8648 64.3512 47.6484 66.6584 48.9166 67.8693C50.2912 67.3948 51.9193 66.7321 54.6439 65.0221C57.3684 63.3121 59.3812 55.1384 58.6366 54.0666C57.8839 52.9866 54.1366 49.943 52.8521 49.8693C51.9603 49.8202 48.9739 51.3257 47.4603 52.1275C46.8712 52.4302 46.4375 52.9621 46.2657 53.6002Z" fill="#FFD4C9" style="fill:#FFD4C9;fill:color(display-p3 1.0000 0.8314 0.7882);fill-opacity:1;"/>
<path d="M49.4982 51.0962C50.5045 51.7426 50.8891 52.7489 50.9545 53.7307C51.0118 54.5571 50.8563 55.3998 50.6682 56.0871L51.7563 56.758C52.0427 56.938 52.1327 57.3062 51.9527 57.5926C51.7727 57.8789 51.3963 57.9689 51.11 57.7971L49.6209 56.8726C49.3754 56.7253 49.2691 56.4307 49.3591 56.1607C49.5882 55.4816 49.7927 54.6144 49.7354 53.8207C49.6782 53.0435 49.3918 52.4135 48.68 52.0289C48.4263 51.8898 48.1563 51.8489 47.8945 51.898C48.3691 51.6526 48.9254 51.3662 49.4982 51.0962Z" fill="#EE9583" style="fill:#EE9583;fill:color(display-p3 0.9333 0.5843 0.5137);fill-opacity:1;"/>
<path d="M68.1329 19.7435C67.5684 19.6371 66.1038 19.6126 65.4002 19.7189C63.3875 19.8826 60.352 21.3144 60.0493 23.368C59.6075 26.3708 60.9984 27.778 63.862 28.6126C66.7175 29.4471 70.7347 27.6308 71.8229 25.438C71.872 25.3399 71.9129 25.2335 71.9538 25.1271C71.8638 22.9099 70.4484 20.8399 68.1329 19.7435Z" fill="#FFD4C9" style="fill:#FFD4C9;fill:color(display-p3 1.0000 0.8314 0.7882);fill-opacity:1;"/>
<path d="M60.5979 26.6411C60.6142 26.6166 60.6388 26.6002 60.6633 26.5756C61.2442 25.9702 62.5369 25.1929 64.2633 25.1929C64.5906 25.1929 64.877 24.882 64.9097 24.4893C64.9424 24.1047 64.7133 23.7856 64.386 23.7856C62.4879 23.7856 60.9415 24.5875 60.0742 25.422C60.1806 25.8802 60.3524 26.2811 60.5979 26.6411Z" fill="#EE9583" style="fill:#EE9583;fill:color(display-p3 0.9333 0.5843 0.5137);fill-opacity:1;"/>
<path d="M62.1859 20.8482C62.955 20.6273 63.9941 20.5455 65.1313 20.8646C65.4422 20.9464 65.8104 20.7173 65.9495 20.3573C66.0886 19.9891 65.9413 19.621 65.6304 19.531C63.7077 18.9991 61.9241 19.4246 60.885 20.0464C60.795 20.0955 60.7213 20.161 60.6641 20.2346C60.9995 20.5701 61.4659 20.791 61.9568 20.8319C62.0304 20.8401 62.1041 20.8401 62.1859 20.8482Z" fill="#EE9583" style="fill:#EE9583;fill:color(display-p3 0.9333 0.5843 0.5137);fill-opacity:1;"/>
</svg>
