<svg width="1208" height="206" viewBox="0 0 1208 206" fill="none" xmlns="http://www.w3.org/2000/svg">
<rect x="2" y="68" width="176" height="70" rx="35" fill="#F9FFE5" stroke="#FFB100" style="fill:#F9FFE5;fill:color(display-p3 0.9762 1.0000 0.8980);fill-opacity:1;stroke:#FFB100;stroke:color(display-p3 1.0000 0.6941 0.0000);stroke-opacity:1;" stroke-width="4" stroke-linecap="round"/>
<path d="M40.9644 109L37.7371 97.3636H39.5837L41.8507 106.375H41.9587L44.3167 97.3636H46.1462L48.5042 106.381H48.6121L50.8735 97.3636H52.7257L49.4928 109H47.7257L45.2769 100.284H45.186L42.7371 109H40.9644ZM56.9162 109.176C56.0564 109.176 55.3158 108.992 54.6946 108.625C54.0772 108.254 53.5999 107.733 53.2628 107.062C52.9295 106.388 52.7628 105.598 52.7628 104.693C52.7628 103.799 52.9295 103.011 53.2628 102.33C53.5999 101.648 54.0696 101.116 54.6719 100.733C55.278 100.35 55.9863 100.159 56.7969 100.159C57.2893 100.159 57.7666 100.241 58.2287 100.403C58.6908 100.566 59.1056 100.822 59.473 101.17C59.8405 101.519 60.1302 101.972 60.3424 102.528C60.5545 103.081 60.6605 103.754 60.6605 104.545V105.148H53.723V103.875H58.9958C58.9958 103.428 58.9049 103.032 58.723 102.688C58.5412 102.339 58.2855 102.064 57.956 101.864C57.6302 101.663 57.2477 101.562 56.8083 101.562C56.331 101.562 55.9143 101.68 55.5583 101.915C55.206 102.146 54.9333 102.449 54.7401 102.824C54.5507 103.195 54.456 103.598 54.456 104.034V105.028C54.456 105.612 54.5583 106.108 54.7628 106.517C54.9711 106.926 55.2609 107.239 55.6321 107.455C56.0033 107.667 56.4371 107.773 56.9333 107.773C57.2552 107.773 57.5488 107.727 57.814 107.636C58.0791 107.542 58.3083 107.402 58.5015 107.216C58.6946 107.03 58.8424 106.801 58.9446 106.528L60.5526 106.818C60.4238 107.292 60.1927 107.706 59.8594 108.062C59.5299 108.415 59.1151 108.689 58.6151 108.886C58.1189 109.08 57.5526 109.176 56.9162 109.176ZM62.5058 109V97.3636H64.2047V101.688H64.307C64.4055 101.506 64.5475 101.295 64.7331 101.057C64.9187 100.818 65.1763 100.61 65.5058 100.432C65.8354 100.25 66.271 100.159 66.8127 100.159C67.5172 100.159 68.146 100.337 68.699 100.693C69.2521 101.049 69.6858 101.562 70.0002 102.233C70.3183 102.903 70.4774 103.71 70.4774 104.653C70.4774 105.597 70.3202 106.405 70.0058 107.08C69.6915 107.75 69.2596 108.267 68.7104 108.631C68.1612 108.991 67.5343 109.17 66.8297 109.17C66.2994 109.17 65.8657 109.081 65.5286 108.903C65.1952 108.725 64.9339 108.517 64.7445 108.278C64.5551 108.04 64.4093 107.828 64.307 107.642H64.1649V109H62.5058ZM64.1706 104.636C64.1706 105.25 64.2596 105.788 64.4377 106.25C64.6157 106.712 64.8733 107.074 65.2104 107.335C65.5475 107.593 65.9604 107.722 66.449 107.722C66.9566 107.722 67.3808 107.587 67.7218 107.318C68.0627 107.045 68.3202 106.676 68.4945 106.21C68.6725 105.744 68.7615 105.22 68.7615 104.636C68.7615 104.061 68.6744 103.544 68.5002 103.085C68.3297 102.627 68.0721 102.265 67.7274 102C67.3865 101.735 66.9604 101.602 66.449 101.602C65.9566 101.602 65.5399 101.729 65.199 101.983C64.8619 102.237 64.6062 102.591 64.432 103.045C64.2577 103.5 64.1706 104.03 64.1706 104.636ZM78.7489 102.403L77.2091 102.676C77.1447 102.479 77.0424 102.292 76.9023 102.114C76.7659 101.936 76.5803 101.79 76.3455 101.676C76.1106 101.562 75.8171 101.506 75.4648 101.506C74.9837 101.506 74.5822 101.614 74.2602 101.83C73.9383 102.042 73.7773 102.316 73.7773 102.653C73.7773 102.945 73.8852 103.18 74.1012 103.358C74.3171 103.536 74.6655 103.682 75.1466 103.795L76.533 104.114C77.336 104.299 77.9345 104.585 78.3284 104.972C78.7224 105.358 78.9193 105.86 78.9193 106.477C78.9193 107 78.7678 107.466 78.4648 107.875C78.1655 108.28 77.747 108.598 77.2091 108.83C76.675 109.061 76.0557 109.176 75.3512 109.176C74.3739 109.176 73.5765 108.968 72.9591 108.551C72.3417 108.131 71.9629 107.534 71.8227 106.761L73.4648 106.511C73.5671 106.939 73.7773 107.263 74.0955 107.483C74.4137 107.699 74.8284 107.807 75.3398 107.807C75.8966 107.807 76.3417 107.691 76.675 107.46C77.0084 107.225 77.175 106.939 77.175 106.602C77.175 106.33 77.0727 106.1 76.8682 105.915C76.6674 105.729 76.3587 105.589 75.9421 105.494L74.4648 105.17C73.6504 104.985 73.0481 104.689 72.658 104.284C72.2716 103.879 72.0784 103.366 72.0784 102.744C72.0784 102.229 72.2224 101.778 72.5102 101.392C72.7981 101.006 73.1959 100.705 73.7034 100.489C74.211 100.269 74.7924 100.159 75.4477 100.159C76.3909 100.159 77.1334 100.364 77.675 100.773C78.2167 101.178 78.5746 101.722 78.7489 102.403ZM80.6112 109V100.273H82.3101V109H80.6112ZM81.4692 98.9261C81.1737 98.9261 80.92 98.8277 80.7078 98.6307C80.4995 98.4299 80.3953 98.1913 80.3953 97.9148C80.3953 97.6345 80.4995 97.3958 80.7078 97.1989C80.92 96.9981 81.1737 96.8977 81.4692 96.8977C81.7646 96.8977 82.0165 96.9981 82.2249 97.1989C82.437 97.3958 82.5431 97.6345 82.5431 97.9148C82.5431 98.1913 82.437 98.4299 82.2249 98.6307C82.0165 98.8277 81.7646 98.9261 81.4692 98.9261ZM88.4935 100.273V101.636H83.7264V100.273H88.4935ZM85.0048 98.1818H86.7037V106.438C86.7037 106.767 86.7529 107.015 86.8514 107.182C86.9499 107.345 87.0768 107.456 87.2321 107.517C87.3912 107.574 87.5635 107.602 87.7491 107.602C87.8855 107.602 88.0048 107.593 88.1071 107.574C88.2094 107.555 88.2889 107.54 88.3457 107.528L88.6526 108.932C88.5541 108.97 88.4139 109.008 88.2321 109.045C88.0503 109.087 87.823 109.11 87.5503 109.114C87.1033 109.121 86.6866 109.042 86.3003 108.875C85.9139 108.708 85.6014 108.451 85.3628 108.102C85.1241 107.754 85.0048 107.316 85.0048 106.79V98.1818ZM93.8643 109.176C93.0045 109.176 92.264 108.992 91.6428 108.625C91.0253 108.254 90.5481 107.733 90.2109 107.062C89.8776 106.388 89.7109 105.598 89.7109 104.693C89.7109 103.799 89.8776 103.011 90.2109 102.33C90.5481 101.648 91.0178 101.116 91.62 100.733C92.2261 100.35 92.9344 100.159 93.745 100.159C94.2375 100.159 94.7147 100.241 95.1768 100.403C95.639 100.566 96.0537 100.822 96.4212 101.17C96.7886 101.519 97.0784 101.972 97.2905 102.528C97.5026 103.081 97.6087 103.754 97.6087 104.545V105.148H90.6712V103.875H95.9439C95.9439 103.428 95.853 103.032 95.6712 102.688C95.4893 102.339 95.2337 102.064 94.9041 101.864C94.5784 101.663 94.1958 101.562 93.7564 101.562C93.2791 101.562 92.8625 101.68 92.5064 101.915C92.1541 102.146 91.8814 102.449 91.6882 102.824C91.4988 103.195 91.4041 103.598 91.4041 104.034V105.028C91.4041 105.612 91.5064 106.108 91.7109 106.517C91.9193 106.926 92.209 107.239 92.5803 107.455C92.9515 107.667 93.3852 107.773 93.8814 107.773C94.2034 107.773 94.4969 107.727 94.7621 107.636C95.0272 107.542 95.2564 107.402 95.4496 107.216C95.6428 107.03 95.7905 106.801 95.8928 106.528L97.5007 106.818C97.3719 107.292 97.1409 107.706 96.8075 108.062C96.478 108.415 96.0632 108.689 95.5632 108.886C95.067 109.08 94.5007 109.176 93.8643 109.176ZM107.808 96.8182L104.058 110.75H102.541L106.291 96.8182H107.808ZM114.253 109H112.389L116.577 97.3636H118.605L122.792 109H120.929L117.639 99.4773H117.548L114.253 109ZM114.565 104.443H120.611V105.92H114.565V104.443ZM124.16 112.273V100.273H125.82V101.688H125.962C126.06 101.506 126.202 101.295 126.388 101.057C126.573 100.818 126.831 100.61 127.16 100.432C127.49 100.25 127.926 100.159 128.467 100.159C129.172 100.159 129.801 100.337 130.354 100.693C130.907 101.049 131.34 101.562 131.655 102.233C131.973 102.903 132.132 103.71 132.132 104.653C132.132 105.597 131.975 106.405 131.66 107.08C131.346 107.75 130.914 108.267 130.365 108.631C129.816 108.991 129.189 109.17 128.484 109.17C127.954 109.17 127.52 109.081 127.183 108.903C126.85 108.725 126.589 108.517 126.399 108.278C126.21 108.04 126.064 107.828 125.962 107.642H125.859V112.273H124.16ZM125.825 104.636C125.825 105.25 125.914 105.788 126.092 106.25C126.27 106.712 126.528 107.074 126.865 107.335C127.202 107.593 127.615 107.722 128.104 107.722C128.611 107.722 129.035 107.587 129.376 107.318C129.717 107.045 129.975 106.676 130.149 106.21C130.327 105.744 130.416 105.22 130.416 104.636C130.416 104.061 130.329 103.544 130.155 103.085C129.984 102.627 129.727 102.265 129.382 102C129.041 101.735 128.615 101.602 128.104 101.602C127.611 101.602 127.195 101.729 126.854 101.983C126.517 102.237 126.261 102.591 126.087 103.045C125.912 103.5 125.825 104.03 125.825 104.636ZM133.859 112.273V100.273H135.519V101.688H135.661C135.759 101.506 135.901 101.295 136.087 101.057C136.272 100.818 136.53 100.61 136.859 100.432C137.189 100.25 137.625 100.159 138.166 100.159C138.871 100.159 139.5 100.337 140.053 100.693C140.606 101.049 141.039 101.562 141.354 102.233C141.672 102.903 141.831 103.71 141.831 104.653C141.831 105.597 141.674 106.405 141.359 107.08C141.045 107.75 140.613 108.267 140.064 108.631C139.515 108.991 138.888 109.17 138.183 109.17C137.653 109.17 137.219 109.081 136.882 108.903C136.549 108.725 136.288 108.517 136.098 108.278C135.909 108.04 135.763 107.828 135.661 107.642H135.558V112.273H133.859ZM135.524 104.636C135.524 105.25 135.613 105.788 135.791 106.25C135.969 106.712 136.227 107.074 136.564 107.335C136.901 107.593 137.314 107.722 137.803 107.722C138.31 107.722 138.734 107.587 139.075 107.318C139.416 107.045 139.674 106.676 139.848 106.21C140.026 105.744 140.115 105.22 140.115 104.636C140.115 104.061 140.028 103.544 139.854 103.085C139.683 102.627 139.426 102.265 139.081 102C138.74 101.735 138.314 101.602 137.803 101.602C137.31 101.602 136.894 101.729 136.553 101.983C136.216 102.237 135.96 102.591 135.786 103.045C135.611 103.5 135.524 104.03 135.524 104.636Z" fill="#573C00" style="fill:#573C00;fill:color(display-p3 0.3416 0.2371 0.0000);fill-opacity:1;"/>
<rect x="246" y="68" width="176" height="70" rx="35" fill="#F9FFE5" stroke="#FFB100" style="fill:#F9FFE5;fill:color(display-p3 0.9762 1.0000 0.8980);fill-opacity:1;stroke:#FFB100;stroke:color(display-p3 1.0000 0.6941 0.0000);stroke-opacity:1;" stroke-width="4" stroke-linecap="round"/>
<path d="M294.977 109V97.3636H299.124C300.03 97.3636 300.78 97.5284 301.374 97.858C301.969 98.1875 302.414 98.6383 302.71 99.2102C303.005 99.7784 303.153 100.419 303.153 101.131C303.153 101.847 303.003 102.491 302.704 103.062C302.408 103.631 301.962 104.081 301.363 104.415C300.768 104.744 300.02 104.909 299.119 104.909H296.266V103.42H298.96C299.532 103.42 299.996 103.322 300.352 103.125C300.708 102.924 300.969 102.652 301.136 102.307C301.302 101.962 301.386 101.57 301.386 101.131C301.386 100.691 301.302 100.301 301.136 99.9602C300.969 99.6193 300.706 99.3523 300.346 99.1591C299.99 98.9659 299.52 98.8693 298.937 98.8693H296.732V109H294.977ZM310.427 105.381V100.273H312.132V109H310.461V107.489H310.37C310.17 107.955 309.848 108.343 309.404 108.653C308.965 108.96 308.418 109.114 307.762 109.114C307.202 109.114 306.705 108.991 306.274 108.744C305.846 108.494 305.509 108.125 305.262 107.636C305.02 107.148 304.899 106.544 304.899 105.824V100.273H306.598V105.619C306.598 106.214 306.762 106.687 307.092 107.04C307.421 107.392 307.849 107.568 308.376 107.568C308.694 107.568 309.01 107.489 309.325 107.33C309.643 107.17 309.906 106.93 310.115 106.608C310.327 106.286 310.431 105.877 310.427 105.381ZM314.375 109V97.3636H316.074V101.688H316.176C316.274 101.506 316.416 101.295 316.602 101.057C316.788 100.818 317.045 100.61 317.375 100.432C317.704 100.25 318.14 100.159 318.681 100.159C319.386 100.159 320.015 100.337 320.568 100.693C321.121 101.049 321.555 101.562 321.869 102.233C322.187 102.903 322.346 103.71 322.346 104.653C322.346 105.597 322.189 106.405 321.875 107.08C321.56 107.75 321.128 108.267 320.579 108.631C320.03 108.991 319.403 109.17 318.699 109.17C318.168 109.17 317.735 109.081 317.397 108.903C317.064 108.725 316.803 108.517 316.613 108.278C316.424 108.04 316.278 107.828 316.176 107.642H316.034V109H314.375ZM316.039 104.636C316.039 105.25 316.128 105.788 316.306 106.25C316.485 106.712 316.742 107.074 317.079 107.335C317.416 107.593 317.829 107.722 318.318 107.722C318.825 107.722 319.25 107.587 319.591 107.318C319.931 107.045 320.189 106.676 320.363 106.21C320.541 105.744 320.63 105.22 320.63 104.636C320.63 104.061 320.543 103.544 320.369 103.085C320.199 102.627 319.941 102.265 319.596 102C319.255 101.735 318.829 101.602 318.318 101.602C317.825 101.602 317.409 101.729 317.068 101.983C316.731 102.237 316.475 102.591 316.301 103.045C316.127 103.5 316.039 104.03 316.039 104.636ZM325.777 97.3636V109H324.078V97.3636H325.777ZM327.886 109V100.273H329.585V109H327.886ZM328.744 98.9261C328.449 98.9261 328.195 98.8277 327.983 98.6307C327.775 98.4299 327.67 98.1913 327.67 97.9148C327.67 97.6345 327.775 97.3958 327.983 97.1989C328.195 96.9981 328.449 96.8977 328.744 96.8977C329.04 96.8977 329.292 96.9981 329.5 97.1989C329.712 97.3958 329.818 97.6345 329.818 97.9148C329.818 98.1913 329.712 98.4299 329.5 98.6307C329.292 98.8277 329.04 98.9261 328.744 98.9261ZM335.371 109.176C334.526 109.176 333.799 108.985 333.189 108.602C332.583 108.216 332.117 107.684 331.791 107.006C331.466 106.328 331.303 105.551 331.303 104.676C331.303 103.79 331.469 103.008 331.803 102.33C332.136 101.648 332.606 101.116 333.212 100.733C333.818 100.35 334.532 100.159 335.354 100.159C336.017 100.159 336.608 100.282 337.126 100.528C337.645 100.771 338.064 101.112 338.382 101.551C338.704 101.991 338.895 102.504 338.956 103.091H337.303C337.212 102.682 337.003 102.33 336.678 102.034C336.356 101.739 335.924 101.591 335.382 101.591C334.909 101.591 334.494 101.716 334.138 101.966C333.786 102.212 333.511 102.564 333.314 103.023C333.117 103.477 333.019 104.015 333.019 104.636C333.019 105.273 333.115 105.822 333.308 106.284C333.501 106.746 333.774 107.104 334.126 107.358C334.483 107.612 334.901 107.739 335.382 107.739C335.704 107.739 335.996 107.68 336.257 107.562C336.522 107.441 336.744 107.269 336.922 107.045C337.104 106.822 337.231 106.553 337.303 106.239H338.956C338.895 106.803 338.712 107.307 338.405 107.75C338.098 108.193 337.687 108.542 337.172 108.795C336.661 109.049 336.06 109.176 335.371 109.176ZM352.274 97.3636H354.036V105.017C354.036 105.831 353.845 106.553 353.462 107.182C353.079 107.807 352.542 108.299 351.848 108.659C351.155 109.015 350.343 109.193 349.411 109.193C348.483 109.193 347.672 109.015 346.979 108.659C346.286 108.299 345.748 107.807 345.365 107.182C344.983 106.553 344.792 105.831 344.792 105.017V97.3636H346.547V104.875C346.547 105.402 346.663 105.869 346.894 106.278C347.129 106.688 347.46 107.009 347.888 107.244C348.316 107.475 348.824 107.591 349.411 107.591C350.002 107.591 350.511 107.475 350.939 107.244C351.371 107.009 351.701 106.688 351.928 106.278C352.159 105.869 352.274 105.402 352.274 104.875V97.3636ZM356.412 109V97.3636H360.56C361.462 97.3636 362.21 97.5189 362.804 97.8295C363.403 98.1402 363.85 98.5701 364.145 99.1193C364.441 99.6648 364.589 100.295 364.589 101.011C364.589 101.723 364.439 102.35 364.14 102.892C363.844 103.43 363.397 103.848 362.799 104.148C362.204 104.447 361.456 104.597 360.554 104.597H357.412V103.085H360.395C360.964 103.085 361.426 103.004 361.782 102.841C362.142 102.678 362.405 102.441 362.572 102.131C362.738 101.82 362.822 101.447 362.822 101.011C362.822 100.572 362.736 100.191 362.566 99.8693C362.399 99.5473 362.136 99.3011 361.776 99.1307C361.42 98.9564 360.952 98.8693 360.373 98.8693H358.168V109H356.412ZM362.157 103.75L365.032 109H363.032L360.214 103.75H362.157ZM366.549 109V97.3636H368.305V107.489H373.577V109H366.549Z" fill="#573C00" style="fill:#573C00;fill:color(display-p3 0.3416 0.2371 0.0000);fill-opacity:1;"/>
<rect x="490" y="68" width="176" height="70" rx="35" fill="#F9FFE5" stroke="#FFB100" style="fill:#F9FFE5;fill:color(display-p3 0.9762 1.0000 0.8980);fill-opacity:1;stroke:#FFB100;stroke:color(display-p3 1.0000 0.6941 0.0000);stroke-opacity:1;" stroke-width="4" stroke-linecap="round"/>
<path d="M521.343 101.148H519.571C519.502 100.769 519.376 100.436 519.19 100.148C519.004 99.8598 518.777 99.6155 518.508 99.4148C518.239 99.214 517.938 99.0625 517.605 98.9602C517.275 98.858 516.925 98.8068 516.554 98.8068C515.883 98.8068 515.283 98.9754 514.752 99.3125C514.226 99.6496 513.809 100.144 513.502 100.795C513.199 101.447 513.048 102.242 513.048 103.182C513.048 104.129 513.199 104.928 513.502 105.58C513.809 106.231 514.228 106.723 514.758 107.057C515.288 107.39 515.885 107.557 516.548 107.557C516.915 107.557 517.264 107.508 517.593 107.409C517.927 107.307 518.228 107.157 518.497 106.96C518.766 106.763 518.993 106.523 519.179 106.239C519.368 105.951 519.499 105.621 519.571 105.25L521.343 105.256C521.249 105.828 521.065 106.354 520.792 106.835C520.523 107.312 520.177 107.725 519.752 108.074C519.332 108.419 518.851 108.686 518.309 108.875C517.768 109.064 517.177 109.159 516.537 109.159C515.529 109.159 514.631 108.92 513.843 108.443C513.055 107.962 512.434 107.275 511.98 106.381C511.529 105.487 511.304 104.42 511.304 103.182C511.304 101.939 511.531 100.873 511.985 99.983C512.44 99.089 513.061 98.4034 513.849 97.9261C514.637 97.4451 515.533 97.2045 516.537 97.2045C517.154 97.2045 517.73 97.2936 518.264 97.4716C518.802 97.6458 519.285 97.9034 519.713 98.2443C520.141 98.5814 520.495 98.9943 520.775 99.483C521.055 99.9678 521.245 100.523 521.343 101.148ZM524.831 97.3636V109H523.132V97.3636H524.831ZM530.616 109.176C529.798 109.176 529.084 108.989 528.474 108.614C527.864 108.239 527.391 107.714 527.054 107.04C526.717 106.366 526.548 105.578 526.548 104.676C526.548 103.771 526.717 102.979 527.054 102.301C527.391 101.623 527.864 101.097 528.474 100.722C529.084 100.347 529.798 100.159 530.616 100.159C531.435 100.159 532.149 100.347 532.758 100.722C533.368 101.097 533.842 101.623 534.179 102.301C534.516 102.979 534.685 103.771 534.685 104.676C534.685 105.578 534.516 106.366 534.179 107.04C533.842 107.714 533.368 108.239 532.758 108.614C532.149 108.989 531.435 109.176 530.616 109.176ZM530.622 107.75C531.152 107.75 531.592 107.61 531.94 107.33C532.289 107.049 532.546 106.676 532.713 106.21C532.883 105.744 532.969 105.231 532.969 104.67C532.969 104.114 532.883 103.602 532.713 103.136C532.546 102.667 532.289 102.29 531.94 102.006C531.592 101.722 531.152 101.58 530.622 101.58C530.088 101.58 529.645 101.722 529.293 102.006C528.944 102.29 528.685 102.667 528.514 103.136C528.347 103.602 528.264 104.114 528.264 104.67C528.264 105.231 528.347 105.744 528.514 106.21C528.685 106.676 528.944 107.049 529.293 107.33C529.645 107.61 530.088 107.75 530.622 107.75ZM541.933 105.381V100.273H543.638V109H541.967V107.489H541.876C541.676 107.955 541.354 108.343 540.911 108.653C540.471 108.96 539.924 109.114 539.268 109.114C538.708 109.114 538.212 108.991 537.78 108.744C537.352 108.494 537.015 108.125 536.768 107.636C536.526 107.148 536.405 106.544 536.405 105.824V100.273H538.104V105.619C538.104 106.214 538.268 106.687 538.598 107.04C538.928 107.392 539.356 107.568 539.882 107.568C540.2 107.568 540.517 107.489 540.831 107.33C541.149 107.17 541.412 106.93 541.621 106.608C541.833 106.286 541.937 105.877 541.933 105.381ZM549.012 109.17C548.307 109.17 547.678 108.991 547.125 108.631C546.576 108.267 546.144 107.75 545.83 107.08C545.519 106.405 545.364 105.597 545.364 104.653C545.364 103.71 545.521 102.903 545.835 102.233C546.154 101.562 546.589 101.049 547.142 100.693C547.695 100.337 548.322 100.159 549.023 100.159C549.565 100.159 550 100.25 550.33 100.432C550.663 100.61 550.921 100.818 551.102 101.057C551.288 101.295 551.432 101.506 551.534 101.688H551.637V97.3636H553.335V109H551.676V107.642H551.534C551.432 107.828 551.284 108.04 551.091 108.278C550.902 108.517 550.64 108.725 550.307 108.903C549.974 109.081 549.542 109.17 549.012 109.17ZM549.387 107.722C549.875 107.722 550.288 107.593 550.625 107.335C550.966 107.074 551.224 106.712 551.398 106.25C551.576 105.788 551.665 105.25 551.665 104.636C551.665 104.03 551.578 103.5 551.404 103.045C551.229 102.591 550.974 102.237 550.637 101.983C550.299 101.729 549.883 101.602 549.387 101.602C548.875 101.602 548.449 101.735 548.108 102C547.767 102.265 547.51 102.627 547.335 103.085C547.165 103.544 547.08 104.061 547.08 104.636C547.08 105.22 547.167 105.744 547.341 106.21C547.515 106.676 547.773 107.045 548.114 107.318C548.458 107.587 548.883 107.722 549.387 107.722ZM559.738 100.273V101.636H554.806V100.273H559.738ZM556.158 109V99.2614C556.158 98.7159 556.277 98.2633 556.516 97.9034C556.755 97.5398 557.071 97.2689 557.465 97.0909C557.859 96.9091 558.287 96.8182 558.749 96.8182C559.09 96.8182 559.381 96.8466 559.624 96.9034C559.866 96.9564 560.046 97.0057 560.164 97.0511L559.766 98.4261C559.686 98.4034 559.584 98.3769 559.459 98.3466C559.334 98.3125 559.183 98.2955 559.005 98.2955C558.592 98.2955 558.296 98.3977 558.118 98.6023C557.944 98.8068 557.857 99.1023 557.857 99.4886V109H556.158ZM563.013 97.3636V109H561.314V97.3636H563.013ZM567.663 109.193C567.109 109.193 566.609 109.091 566.163 108.886C565.716 108.678 565.361 108.377 565.1 107.983C564.842 107.589 564.714 107.106 564.714 106.534C564.714 106.042 564.808 105.636 564.998 105.318C565.187 105 565.443 104.748 565.765 104.562C566.087 104.377 566.447 104.237 566.844 104.142C567.242 104.047 567.647 103.975 568.06 103.926C568.583 103.866 569.007 103.816 569.333 103.778C569.659 103.737 569.895 103.67 570.043 103.58C570.191 103.489 570.265 103.341 570.265 103.136V103.097C570.265 102.6 570.125 102.216 569.844 101.943C569.568 101.67 569.155 101.534 568.606 101.534C568.034 101.534 567.583 101.661 567.253 101.915C566.928 102.165 566.702 102.443 566.577 102.75L564.981 102.386C565.17 101.856 565.447 101.428 565.81 101.102C566.178 100.773 566.6 100.534 567.077 100.386C567.555 100.235 568.056 100.159 568.583 100.159C568.931 100.159 569.301 100.201 569.691 100.284C570.085 100.364 570.452 100.511 570.793 100.727C571.138 100.943 571.42 101.252 571.64 101.653C571.859 102.051 571.969 102.568 571.969 103.205V109H570.31V107.807H570.242C570.132 108.027 569.967 108.242 569.748 108.455C569.528 108.667 569.246 108.843 568.901 108.983C568.556 109.123 568.144 109.193 567.663 109.193ZM568.032 107.83C568.502 107.83 568.903 107.737 569.236 107.551C569.573 107.366 569.829 107.123 570.003 106.824C570.181 106.521 570.27 106.197 570.27 105.852V104.727C570.21 104.788 570.092 104.845 569.918 104.898C569.748 104.947 569.553 104.991 569.333 105.028C569.113 105.062 568.899 105.095 568.691 105.125C568.483 105.152 568.308 105.174 568.168 105.193C567.839 105.235 567.538 105.305 567.265 105.403C566.996 105.502 566.78 105.644 566.617 105.83C566.458 106.011 566.378 106.254 566.378 106.557C566.378 106.977 566.534 107.295 566.844 107.511C567.155 107.723 567.551 107.83 568.032 107.83ZM574.056 109V100.273H575.698V101.659H575.789C575.948 101.189 576.228 100.82 576.63 100.551C577.035 100.278 577.494 100.142 578.005 100.142C578.111 100.142 578.236 100.146 578.38 100.153C578.528 100.161 578.643 100.17 578.727 100.182V101.807C578.658 101.788 578.537 101.767 578.363 101.744C578.189 101.718 578.014 101.705 577.84 101.705C577.439 101.705 577.081 101.79 576.766 101.96C576.456 102.127 576.21 102.36 576.028 102.659C575.846 102.955 575.755 103.292 575.755 103.67V109H574.056ZM583.47 109.176C582.61 109.176 581.869 108.992 581.248 108.625C580.631 108.254 580.153 107.733 579.816 107.062C579.483 106.388 579.316 105.598 579.316 104.693C579.316 103.799 579.483 103.011 579.816 102.33C580.153 101.648 580.623 101.116 581.225 100.733C581.831 100.35 582.54 100.159 583.35 100.159C583.843 100.159 584.32 100.241 584.782 100.403C585.244 100.566 585.659 100.822 586.026 101.17C586.394 101.519 586.684 101.972 586.896 102.528C587.108 103.081 587.214 103.754 587.214 104.545V105.148H580.276V103.875H585.549C585.549 103.428 585.458 103.032 585.276 102.688C585.095 102.339 584.839 102.064 584.509 101.864C584.184 101.663 583.801 101.562 583.362 101.562C582.884 101.562 582.468 101.68 582.112 101.915C581.759 102.146 581.487 102.449 581.293 102.824C581.104 103.195 581.009 103.598 581.009 104.034V105.028C581.009 105.612 581.112 106.108 581.316 106.517C581.525 106.926 581.814 107.239 582.186 107.455C582.557 107.667 582.99 107.773 583.487 107.773C583.809 107.773 584.102 107.727 584.367 107.636C584.632 107.542 584.862 107.402 585.055 107.216C585.248 107.03 585.396 106.801 585.498 106.528L587.106 106.818C586.977 107.292 586.746 107.706 586.413 108.062C586.083 108.415 585.668 108.689 585.168 108.886C584.672 109.08 584.106 109.176 583.47 109.176ZM595.396 109L592.169 97.3636H594.015L596.282 106.375H596.39L598.748 97.3636H600.578L602.936 106.381H603.044L605.305 97.3636H607.157L603.924 109H602.157L599.709 100.284H599.618L597.169 109H595.396ZM611.263 109.176C610.444 109.176 609.73 108.989 609.121 108.614C608.511 108.239 608.037 107.714 607.7 107.04C607.363 106.366 607.194 105.578 607.194 104.676C607.194 103.771 607.363 102.979 607.7 102.301C608.037 101.623 608.511 101.097 609.121 100.722C609.73 100.347 610.444 100.159 611.263 100.159C612.081 100.159 612.795 100.347 613.405 100.722C614.015 101.097 614.488 101.623 614.825 102.301C615.162 102.979 615.331 103.771 615.331 104.676C615.331 105.578 615.162 106.366 614.825 107.04C614.488 107.714 614.015 108.239 613.405 108.614C612.795 108.989 612.081 109.176 611.263 109.176ZM611.268 107.75C611.799 107.75 612.238 107.61 612.586 107.33C612.935 107.049 613.193 106.676 613.359 106.21C613.53 105.744 613.615 105.231 613.615 104.67C613.615 104.114 613.53 103.602 613.359 103.136C613.193 102.667 612.935 102.29 612.586 102.006C612.238 101.722 611.799 101.58 611.268 101.58C610.734 101.58 610.291 101.722 609.939 102.006C609.59 102.29 609.331 102.667 609.16 103.136C608.994 103.602 608.91 104.114 608.91 104.67C608.91 105.231 608.994 105.744 609.16 106.21C609.331 106.676 609.59 107.049 609.939 107.33C610.291 107.61 610.734 107.75 611.268 107.75ZM617.051 109V100.273H618.693V101.659H618.784C618.943 101.189 619.223 100.82 619.625 100.551C620.03 100.278 620.489 100.142 621 100.142C621.106 100.142 621.231 100.146 621.375 100.153C621.523 100.161 621.638 100.17 621.722 100.182V101.807C621.653 101.788 621.532 101.767 621.358 101.744C621.184 101.718 621.009 101.705 620.835 101.705C620.434 101.705 620.076 101.79 619.761 101.96C619.451 102.127 619.205 102.36 619.023 102.659C618.841 102.955 618.75 103.292 618.75 103.67V109H617.051ZM624.578 106.04L624.567 103.966H624.862L628.34 100.273H630.374L626.408 104.477H626.141L624.578 106.04ZM623.016 109V97.3636H624.715V109H623.016ZM628.527 109L625.402 104.852L626.573 103.665L630.612 109H628.527ZM635.148 109.176C634.288 109.176 633.548 108.992 632.926 108.625C632.309 108.254 631.832 107.733 631.495 107.062C631.161 106.388 630.995 105.598 630.995 104.693C630.995 103.799 631.161 103.011 631.495 102.33C631.832 101.648 632.301 101.116 632.904 100.733C633.51 100.35 634.218 100.159 635.029 100.159C635.521 100.159 635.998 100.241 636.46 100.403C636.923 100.566 637.337 100.822 637.705 101.17C638.072 101.519 638.362 101.972 638.574 102.528C638.786 103.081 638.892 103.754 638.892 104.545V105.148H631.955V103.875H637.228C637.228 103.428 637.137 103.032 636.955 102.688C636.773 102.339 636.517 102.064 636.188 101.864C635.862 101.663 635.479 101.562 635.04 101.562C634.563 101.562 634.146 101.68 633.79 101.915C633.438 102.146 633.165 102.449 632.972 102.824C632.782 103.195 632.688 103.598 632.688 104.034V105.028C632.688 105.612 632.79 106.108 632.995 106.517C633.203 106.926 633.493 107.239 633.864 107.455C634.235 107.667 634.669 107.773 635.165 107.773C635.487 107.773 635.781 107.727 636.046 107.636C636.311 107.542 636.54 107.402 636.733 107.216C636.926 107.03 637.074 106.801 637.176 106.528L638.784 106.818C638.656 107.292 638.424 107.706 638.091 108.062C637.762 108.415 637.347 108.689 636.847 108.886C636.351 109.08 635.784 109.176 635.148 109.176ZM640.601 109V100.273H642.243V101.659H642.334C642.493 101.189 642.774 100.82 643.175 100.551C643.58 100.278 644.039 100.142 644.55 100.142C644.656 100.142 644.781 100.146 644.925 100.153C645.073 100.161 645.188 100.17 645.272 100.182V101.807C645.204 101.788 645.082 101.767 644.908 101.744C644.734 101.718 644.56 101.705 644.385 101.705C643.984 101.705 643.626 101.79 643.311 101.96C643.001 102.127 642.755 102.36 642.573 102.659C642.391 102.955 642.3 103.292 642.3 103.67V109H640.601Z" fill="#573C00" style="fill:#573C00;fill:color(display-p3 0.3416 0.2371 0.0000);fill-opacity:1;"/>
<rect x="780" y="2" width="176" height="69" rx="34.5" fill="#F9FFE5" stroke="#FFB100" style="fill:#F9FFE5;fill:color(display-p3 0.9762 1.0000 0.8980);fill-opacity:1;stroke:#FFB100;stroke:color(display-p3 1.0000 0.6941 0.0000);stroke-opacity:1;" stroke-width="4" stroke-linecap="round"/>
<path d="M818.729 43V31.3636H820.484V36.9205H820.626L825.507 31.3636H827.717L823.024 36.6023L827.734 43H825.621L821.859 37.8011L820.484 39.3807V43H818.729ZM830.195 31.3636L833.433 40.8409H833.564L836.803 31.3636H838.7L834.513 43H832.485L828.297 31.3636H830.195ZM840.188 41.5568C839.877 41.5568 839.61 41.447 839.387 41.2273C839.163 41.0038 839.051 40.7348 839.051 40.4205C839.051 40.1098 839.163 39.8447 839.387 39.625C839.61 39.4015 839.877 39.2898 840.188 39.2898C840.498 39.2898 840.765 39.4015 840.989 39.625C841.212 39.8447 841.324 40.1098 841.324 40.4205C841.324 40.6288 841.271 40.8201 841.165 40.9943C841.063 41.1648 840.926 41.3011 840.756 41.4034C840.586 41.5057 840.396 41.5568 840.188 41.5568ZM840.188 35.7273C839.877 35.7273 839.61 35.6174 839.387 35.3977C839.163 35.1742 839.051 34.9053 839.051 34.5909C839.051 34.2803 839.163 34.0152 839.387 33.7955C839.61 33.572 839.877 33.4602 840.188 33.4602C840.498 33.4602 840.765 33.572 840.989 33.7955C841.212 34.0152 841.324 34.2803 841.324 34.5909C841.324 34.7992 841.271 34.9905 841.165 35.1648C841.063 35.3352 840.926 35.4716 840.756 35.5739C840.586 35.6761 840.396 35.7273 840.188 35.7273ZM857.283 35.1477H855.511C855.442 34.7689 855.315 34.4356 855.13 34.1477C854.944 33.8598 854.717 33.6155 854.448 33.4148C854.179 33.214 853.878 33.0625 853.545 32.9602C853.215 32.858 852.865 32.8068 852.493 32.8068C851.823 32.8068 851.223 32.9754 850.692 33.3125C850.166 33.6496 849.749 34.1439 849.442 34.7955C849.139 35.447 848.988 36.2424 848.988 37.1818C848.988 38.1288 849.139 38.928 849.442 39.5795C849.749 40.2311 850.168 40.7235 850.698 41.0568C851.228 41.3902 851.825 41.5568 852.488 41.5568C852.855 41.5568 853.204 41.5076 853.533 41.4091C853.867 41.3068 854.168 41.1572 854.437 40.9602C854.706 40.7633 854.933 40.5227 855.118 40.2386C855.308 39.9508 855.439 39.6212 855.511 39.25L857.283 39.2557C857.189 39.8277 857.005 40.3542 856.732 40.8352C856.463 41.3125 856.117 41.7254 855.692 42.0739C855.272 42.4186 854.791 42.6856 854.249 42.875C853.707 43.0644 853.117 43.1591 852.476 43.1591C851.469 43.1591 850.571 42.9205 849.783 42.4432C848.995 41.9621 848.374 41.2746 847.92 40.3807C847.469 39.4867 847.243 38.4205 847.243 37.1818C847.243 35.9394 847.471 34.8731 847.925 33.983C848.38 33.089 849.001 32.4034 849.789 31.9261C850.577 31.4451 851.473 31.2045 852.476 31.2045C853.094 31.2045 853.67 31.2936 854.204 31.4716C854.742 31.6458 855.225 31.9034 855.653 32.2443C856.081 32.5814 856.435 32.9943 856.715 33.483C856.995 33.9678 857.185 34.5227 857.283 35.1477ZM860.113 43H858.249L862.437 31.3636H864.465L868.653 43H866.789L863.499 33.4773H863.408L860.113 43ZM860.425 38.4432H866.471V39.9205H860.425V38.4432ZM870.157 43V31.3636H874.305C875.21 31.3636 875.96 31.5284 876.555 31.858C877.15 32.1875 877.595 32.6383 877.89 33.2102C878.186 33.7784 878.333 34.4186 878.333 35.1307C878.333 35.8466 878.184 36.4905 877.884 37.0625C877.589 37.6307 877.142 38.0814 876.543 38.4148C875.949 38.7443 875.201 38.9091 874.299 38.9091H871.447V37.4205H874.14C874.712 37.4205 875.176 37.322 875.532 37.125C875.888 36.9242 876.15 36.6515 876.316 36.3068C876.483 35.9621 876.566 35.5701 876.566 35.1307C876.566 34.6913 876.483 34.3011 876.316 33.9602C876.15 33.6193 875.886 33.3523 875.526 33.1591C875.17 32.9659 874.701 32.8693 874.117 32.8693H871.913V43H870.157ZM879.318 31.3636H881.312L884.352 36.6534H884.477L887.517 31.3636H889.511L885.289 38.4318V43H883.539V38.4318L879.318 31.3636ZM897.089 43V44.4432H889.697V43H897.089ZM898.176 43V31.3636H899.932V36.9205H900.074L904.954 31.3636H907.165L902.471 36.6023L907.182 43H905.068L901.307 37.8011L899.932 39.3807V43H898.176ZM909.642 31.3636L912.881 40.8409H913.011L916.25 31.3636H918.148L913.96 43H911.932L907.744 31.3636H909.642Z" fill="#573C00" style="fill:#573C00;fill:color(display-p3 0.3416 0.2371 0.0000);fill-opacity:1;"/>
<rect x="780" y="135" width="176" height="69" rx="34.5" fill="#F9FFE5" stroke="#FFB100" style="fill:#F9FFE5;fill:color(display-p3 0.9762 1.0000 0.8980);fill-opacity:1;stroke:#FFB100;stroke:color(display-p3 1.0000 0.6941 0.0000);stroke-opacity:1;" stroke-width="4" stroke-linecap="round"/>
<path d="M818.91 168.148H817.137C817.069 167.769 816.942 167.436 816.756 167.148C816.571 166.86 816.343 166.616 816.074 166.415C815.805 166.214 815.504 166.062 815.171 165.96C814.841 165.858 814.491 165.807 814.12 165.807C813.449 165.807 812.849 165.975 812.319 166.312C811.792 166.65 811.375 167.144 811.069 167.795C810.766 168.447 810.614 169.242 810.614 170.182C810.614 171.129 810.766 171.928 811.069 172.58C811.375 173.231 811.794 173.723 812.324 174.057C812.855 174.39 813.451 174.557 814.114 174.557C814.482 174.557 814.83 174.508 815.16 174.409C815.493 174.307 815.794 174.157 816.063 173.96C816.332 173.763 816.559 173.523 816.745 173.239C816.934 172.951 817.065 172.621 817.137 172.25L818.91 172.256C818.815 172.828 818.631 173.354 818.358 173.835C818.089 174.312 817.743 174.725 817.319 175.074C816.898 175.419 816.417 175.686 815.875 175.875C815.334 176.064 814.743 176.159 814.103 176.159C813.095 176.159 812.197 175.92 811.41 175.443C810.622 174.962 810 174.275 809.546 173.381C809.095 172.487 808.87 171.42 808.87 170.182C808.87 168.939 809.097 167.873 809.552 166.983C810.006 166.089 810.627 165.403 811.415 164.926C812.203 164.445 813.099 164.205 814.103 164.205C814.72 164.205 815.296 164.294 815.83 164.472C816.368 164.646 816.851 164.903 817.279 165.244C817.707 165.581 818.061 165.994 818.341 166.483C818.622 166.968 818.811 167.523 818.91 168.148ZM822.397 170.818V176H820.698V164.364H822.374V168.693H822.482C822.687 168.223 822.999 167.85 823.42 167.574C823.84 167.297 824.389 167.159 825.067 167.159C825.666 167.159 826.189 167.282 826.636 167.528C827.086 167.775 827.435 168.142 827.681 168.631C827.931 169.116 828.056 169.722 828.056 170.449V176H826.357V170.653C826.357 170.013 826.192 169.517 825.863 169.165C825.533 168.809 825.075 168.631 824.488 168.631C824.086 168.631 823.726 168.716 823.408 168.886C823.094 169.057 822.846 169.307 822.664 169.636C822.486 169.962 822.397 170.356 822.397 170.818ZM832.687 176.193C832.134 176.193 831.634 176.091 831.187 175.886C830.74 175.678 830.386 175.377 830.124 174.983C829.867 174.589 829.738 174.106 829.738 173.534C829.738 173.042 829.833 172.636 830.022 172.318C830.211 172 830.467 171.748 830.789 171.562C831.111 171.377 831.471 171.237 831.869 171.142C832.266 171.047 832.672 170.975 833.085 170.926C833.607 170.866 834.032 170.816 834.357 170.778C834.683 170.737 834.92 170.67 835.067 170.58C835.215 170.489 835.289 170.341 835.289 170.136V170.097C835.289 169.6 835.149 169.216 834.869 168.943C834.592 168.67 834.179 168.534 833.63 168.534C833.058 168.534 832.607 168.661 832.278 168.915C831.952 169.165 831.727 169.443 831.602 169.75L830.005 169.386C830.194 168.856 830.471 168.428 830.835 168.102C831.202 167.773 831.624 167.534 832.102 167.386C832.579 167.235 833.081 167.159 833.607 167.159C833.956 167.159 834.325 167.201 834.715 167.284C835.109 167.364 835.477 167.511 835.817 167.727C836.162 167.943 836.444 168.252 836.664 168.653C836.884 169.051 836.994 169.568 836.994 170.205V176H835.335V174.807H835.266C835.157 175.027 834.992 175.242 834.772 175.455C834.552 175.667 834.27 175.843 833.925 175.983C833.581 176.123 833.168 176.193 832.687 176.193ZM833.056 174.83C833.526 174.83 833.927 174.737 834.261 174.551C834.598 174.366 834.853 174.123 835.028 173.824C835.206 173.521 835.295 173.197 835.295 172.852V171.727C835.234 171.788 835.117 171.845 834.942 171.898C834.772 171.947 834.577 171.991 834.357 172.028C834.138 172.062 833.924 172.095 833.715 172.125C833.507 172.152 833.333 172.174 833.192 172.193C832.863 172.235 832.562 172.305 832.289 172.403C832.02 172.502 831.804 172.644 831.641 172.83C831.482 173.011 831.403 173.254 831.403 173.557C831.403 173.977 831.558 174.295 831.869 174.511C832.179 174.723 832.575 174.83 833.056 174.83ZM840.779 164.364V176H839.08V164.364H840.779ZM844.588 164.364V176H842.889V164.364H844.588ZM850.459 176.176C849.599 176.176 848.858 175.992 848.237 175.625C847.62 175.254 847.142 174.733 846.805 174.062C846.472 173.388 846.305 172.598 846.305 171.693C846.305 170.799 846.472 170.011 846.805 169.33C847.142 168.648 847.612 168.116 848.214 167.733C848.82 167.35 849.529 167.159 850.339 167.159C850.832 167.159 851.309 167.241 851.771 167.403C852.233 167.566 852.648 167.822 853.015 168.17C853.383 168.519 853.673 168.972 853.885 169.528C854.097 170.081 854.203 170.754 854.203 171.545V172.148H847.265V170.875H852.538C852.538 170.428 852.447 170.032 852.265 169.688C852.084 169.339 851.828 169.064 851.498 168.864C851.173 168.663 850.79 168.562 850.351 168.562C849.873 168.562 849.457 168.68 849.101 168.915C848.748 169.146 848.476 169.449 848.282 169.824C848.093 170.195 847.998 170.598 847.998 171.034V172.028C847.998 172.612 848.101 173.108 848.305 173.517C848.513 173.926 848.803 174.239 849.174 174.455C849.546 174.667 849.979 174.773 850.476 174.773C850.798 174.773 851.091 174.727 851.356 174.636C851.621 174.542 851.851 174.402 852.044 174.216C852.237 174.03 852.385 173.801 852.487 173.528L854.095 173.818C853.966 174.292 853.735 174.706 853.402 175.062C853.072 175.415 852.657 175.689 852.157 175.886C851.661 176.08 851.095 176.176 850.459 176.176ZM857.611 170.818V176H855.912V167.273H857.542V168.693H857.65C857.851 168.231 858.166 167.86 858.594 167.58C859.025 167.299 859.569 167.159 860.224 167.159C860.819 167.159 861.34 167.284 861.787 167.534C862.234 167.78 862.58 168.148 862.827 168.636C863.073 169.125 863.196 169.729 863.196 170.449V176H861.497V170.653C861.497 170.021 861.332 169.527 861.003 169.17C860.673 168.811 860.221 168.631 859.645 168.631C859.251 168.631 858.9 168.716 858.594 168.886C858.291 169.057 858.05 169.307 857.872 169.636C857.698 169.962 857.611 170.356 857.611 170.818ZM868.957 179.455C868.264 179.455 867.668 179.364 867.168 179.182C866.671 179 866.266 178.759 865.952 178.46C865.637 178.161 865.402 177.833 865.247 177.477L866.707 176.875C866.81 177.042 866.946 177.218 867.116 177.403C867.291 177.593 867.526 177.754 867.821 177.886C868.12 178.019 868.505 178.085 868.974 178.085C869.618 178.085 870.151 177.928 870.571 177.614C870.991 177.303 871.202 176.807 871.202 176.125V174.409H871.094C870.991 174.595 870.844 174.801 870.651 175.028C870.461 175.256 870.2 175.453 869.866 175.619C869.533 175.786 869.099 175.869 868.565 175.869C867.876 175.869 867.255 175.708 866.702 175.386C866.152 175.061 865.717 174.581 865.395 173.949C865.077 173.312 864.918 172.53 864.918 171.602C864.918 170.674 865.075 169.879 865.389 169.216C865.707 168.553 866.143 168.045 866.696 167.693C867.249 167.337 867.876 167.159 868.577 167.159C869.118 167.159 869.556 167.25 869.889 167.432C870.223 167.61 870.482 167.818 870.668 168.057C870.857 168.295 871.003 168.506 871.105 168.688H871.23V167.273H872.895V176.193C872.895 176.943 872.721 177.559 872.372 178.04C872.024 178.521 871.552 178.877 870.957 179.108C870.366 179.339 869.7 179.455 868.957 179.455ZM868.94 174.46C869.429 174.46 869.842 174.347 870.179 174.119C870.52 173.888 870.777 173.559 870.952 173.131C871.13 172.699 871.219 172.182 871.219 171.58C871.219 170.992 871.132 170.475 870.957 170.028C870.783 169.581 870.527 169.233 870.19 168.983C869.853 168.729 869.437 168.602 868.94 168.602C868.429 168.602 868.003 168.735 867.662 169C867.321 169.261 867.063 169.617 866.889 170.068C866.719 170.519 866.634 171.023 866.634 171.58C866.634 172.152 866.721 172.653 866.895 173.085C867.069 173.517 867.327 173.854 867.668 174.097C868.012 174.339 868.437 174.46 868.94 174.46ZM878.759 176.176C877.899 176.176 877.158 175.992 876.537 175.625C875.92 175.254 875.442 174.733 875.105 174.062C874.772 173.388 874.605 172.598 874.605 171.693C874.605 170.799 874.772 170.011 875.105 169.33C875.442 168.648 875.912 168.116 876.514 167.733C877.12 167.35 877.829 167.159 878.639 167.159C879.132 167.159 879.609 167.241 880.071 167.403C880.533 167.566 880.948 167.822 881.315 168.17C881.683 168.519 881.973 168.972 882.185 169.528C882.397 170.081 882.503 170.754 882.503 171.545V172.148H875.565V170.875H880.838C880.838 170.428 880.747 170.032 880.565 169.688C880.384 169.339 880.128 169.064 879.798 168.864C879.473 168.663 879.09 168.562 878.651 168.562C878.173 168.562 877.757 168.68 877.401 168.915C877.048 169.146 876.776 169.449 876.583 169.824C876.393 170.195 876.298 170.598 876.298 171.034V172.028C876.298 172.612 876.401 173.108 876.605 173.517C876.814 173.926 877.103 174.239 877.475 174.455C877.846 174.667 878.279 174.773 878.776 174.773C879.098 174.773 879.391 174.727 879.656 174.636C879.922 174.542 880.151 174.402 880.344 174.216C880.537 174.03 880.685 173.801 880.787 173.528L882.395 173.818C882.266 174.292 882.035 174.706 881.702 175.062C881.372 175.415 880.958 175.689 880.458 175.886C879.961 176.08 879.395 176.176 878.759 176.176ZM888.407 176V164.364H890.162V174.489H895.435V176H888.407ZM900.802 176.176C899.984 176.176 899.269 175.989 898.66 175.614C898.05 175.239 897.576 174.714 897.239 174.04C896.902 173.366 896.734 172.578 896.734 171.676C896.734 170.771 896.902 169.979 897.239 169.301C897.576 168.623 898.05 168.097 898.66 167.722C899.269 167.347 899.984 167.159 900.802 167.159C901.62 167.159 902.334 167.347 902.944 167.722C903.554 168.097 904.027 168.623 904.364 169.301C904.701 169.979 904.87 170.771 904.87 171.676C904.87 172.578 904.701 173.366 904.364 174.04C904.027 174.714 903.554 175.239 902.944 175.614C902.334 175.989 901.62 176.176 900.802 176.176ZM900.807 174.75C901.338 174.75 901.777 174.61 902.126 174.33C902.474 174.049 902.732 173.676 902.898 173.21C903.069 172.744 903.154 172.231 903.154 171.67C903.154 171.114 903.069 170.602 902.898 170.136C902.732 169.667 902.474 169.29 902.126 169.006C901.777 168.722 901.338 168.58 900.807 168.58C900.273 168.58 899.83 168.722 899.478 169.006C899.129 169.29 898.87 169.667 898.699 170.136C898.533 170.602 898.449 171.114 898.449 171.67C898.449 172.231 898.533 172.744 898.699 173.21C898.87 173.676 899.129 174.049 899.478 174.33C899.83 174.61 900.273 174.75 900.807 174.75ZM910.249 179.455C909.556 179.455 908.959 179.364 908.459 179.182C907.963 179 907.558 178.759 907.244 178.46C906.929 178.161 906.694 177.833 906.539 177.477L907.999 176.875C908.102 177.042 908.238 177.218 908.408 177.403C908.583 177.593 908.817 177.754 909.113 177.886C909.412 178.019 909.797 178.085 910.266 178.085C910.91 178.085 911.442 177.928 911.863 177.614C912.283 177.303 912.494 176.807 912.494 176.125V174.409H912.386C912.283 174.595 912.136 174.801 911.942 175.028C911.753 175.256 911.492 175.453 911.158 175.619C910.825 175.786 910.391 175.869 909.857 175.869C909.168 175.869 908.547 175.708 907.994 175.386C907.444 175.061 907.009 174.581 906.687 173.949C906.369 173.312 906.209 172.53 906.209 171.602C906.209 170.674 906.367 169.879 906.681 169.216C906.999 168.553 907.435 168.045 907.988 167.693C908.541 167.337 909.168 167.159 909.869 167.159C910.41 167.159 910.848 167.25 911.181 167.432C911.514 167.61 911.774 167.818 911.959 168.057C912.149 168.295 912.295 168.506 912.397 168.688H912.522V167.273H914.187V176.193C914.187 176.943 914.013 177.559 913.664 178.04C913.316 178.521 912.844 178.877 912.249 179.108C911.658 179.339 910.992 179.455 910.249 179.455ZM910.232 174.46C910.721 174.46 911.134 174.347 911.471 174.119C911.812 173.888 912.069 173.559 912.244 173.131C912.422 172.699 912.511 172.182 912.511 171.58C912.511 170.992 912.423 170.475 912.249 170.028C912.075 169.581 911.819 169.233 911.482 168.983C911.145 168.729 910.728 168.602 910.232 168.602C909.721 168.602 909.295 168.735 908.954 169C908.613 169.261 908.355 169.617 908.181 170.068C908.011 170.519 907.925 171.023 907.925 171.58C907.925 172.152 908.013 172.653 908.187 173.085C908.361 173.517 908.619 173.854 908.959 174.097C909.304 174.339 909.728 174.46 910.232 174.46ZM916.289 176V167.273H917.988V176H916.289ZM917.147 165.926C916.852 165.926 916.598 165.828 916.386 165.631C916.177 165.43 916.073 165.191 916.073 164.915C916.073 164.634 916.177 164.396 916.386 164.199C916.598 163.998 916.852 163.898 917.147 163.898C917.443 163.898 917.694 163.998 917.903 164.199C918.115 164.396 918.221 164.634 918.221 164.915C918.221 165.191 918.115 165.43 917.903 165.631C917.694 165.828 917.443 165.926 917.147 165.926ZM923.774 176.176C922.929 176.176 922.202 175.985 921.592 175.602C920.986 175.216 920.52 174.684 920.194 174.006C919.868 173.328 919.706 172.551 919.706 171.676C919.706 170.79 919.872 170.008 920.206 169.33C920.539 168.648 921.009 168.116 921.615 167.733C922.221 167.35 922.935 167.159 923.757 167.159C924.42 167.159 925.01 167.282 925.529 167.528C926.048 167.771 926.467 168.112 926.785 168.551C927.107 168.991 927.298 169.504 927.359 170.091H925.706C925.615 169.682 925.406 169.33 925.081 169.034C924.759 168.739 924.327 168.591 923.785 168.591C923.312 168.591 922.897 168.716 922.541 168.966C922.188 169.212 921.914 169.564 921.717 170.023C921.52 170.477 921.421 171.015 921.421 171.636C921.421 172.273 921.518 172.822 921.711 173.284C921.904 173.746 922.177 174.104 922.529 174.358C922.885 174.612 923.304 174.739 923.785 174.739C924.107 174.739 924.399 174.68 924.66 174.562C924.925 174.441 925.147 174.269 925.325 174.045C925.507 173.822 925.634 173.553 925.706 173.239H927.359C927.298 173.803 927.115 174.307 926.808 174.75C926.501 175.193 926.09 175.542 925.575 175.795C925.063 176.049 924.463 176.176 923.774 176.176Z" fill="#573C00" style="fill:#573C00;fill:color(display-p3 0.3416 0.2371 0.0000);fill-opacity:1;"/>
<rect x="1030" y="2" width="176" height="69" rx="34.5" fill="#F9FFE5" stroke="#FFB100" style="fill:#F9FFE5;fill:color(display-p3 0.9762 1.0000 0.8980);fill-opacity:1;stroke:#FFB100;stroke:color(display-p3 1.0000 0.6941 0.0000);stroke-opacity:1;" stroke-width="4" stroke-linecap="round"/>
<path d="M1044.51 43V31.3636H1048.65C1049.56 31.3636 1050.31 31.5284 1050.9 31.858C1051.5 32.1875 1051.94 32.6383 1052.24 33.2102C1052.53 33.7784 1052.68 34.4186 1052.68 35.1307C1052.68 35.8466 1052.53 36.4905 1052.23 37.0625C1051.94 37.6307 1051.49 38.0814 1050.89 38.4148C1050.3 38.7443 1049.55 38.9091 1048.65 38.9091H1045.79V37.4205H1048.49C1049.06 37.4205 1049.52 37.322 1049.88 37.125C1050.24 36.9242 1050.5 36.6515 1050.66 36.3068C1050.83 35.9621 1050.91 35.5701 1050.91 35.1307C1050.91 34.6913 1050.83 34.3011 1050.66 33.9602C1050.5 33.6193 1050.23 33.3523 1049.87 33.1591C1049.52 32.9659 1049.05 32.8693 1048.47 32.8693H1046.26V43H1044.51ZM1058.08 43.1761C1057.22 43.1761 1056.48 42.9924 1055.86 42.625C1055.24 42.2538 1054.76 41.733 1054.43 41.0625C1054.09 40.3883 1053.93 39.5985 1053.93 38.6932C1053.93 37.7992 1054.09 37.0114 1054.43 36.3295C1054.76 35.6477 1055.23 35.1155 1055.83 34.733C1056.44 34.3504 1057.15 34.1591 1057.96 34.1591C1058.45 34.1591 1058.93 34.2405 1059.39 34.4034C1059.85 34.5663 1060.27 34.822 1060.64 35.1705C1061 35.5189 1061.29 35.9716 1061.51 36.5284C1061.72 37.0814 1061.82 37.7538 1061.82 38.5455V39.1477H1054.89V37.875H1060.16C1060.16 37.428 1060.07 37.0322 1059.89 36.6875C1059.7 36.339 1059.45 36.0644 1059.12 35.8636C1058.79 35.6629 1058.41 35.5625 1057.97 35.5625C1057.49 35.5625 1057.08 35.6799 1056.72 35.9148C1056.37 36.1458 1056.1 36.4489 1055.9 36.8239C1055.71 37.1951 1055.62 37.5985 1055.62 38.0341V39.0284C1055.62 39.6117 1055.72 40.108 1055.93 40.517C1056.13 40.9261 1056.42 41.2386 1056.8 41.4545C1057.17 41.6667 1057.6 41.7727 1058.1 41.7727C1058.42 41.7727 1058.71 41.7273 1058.98 41.6364C1059.24 41.5417 1059.47 41.4015 1059.66 41.2159C1059.86 41.0303 1060.01 40.8011 1060.11 40.5284L1061.72 40.8182C1061.59 41.2917 1061.36 41.7064 1061.02 42.0625C1060.69 42.4148 1060.28 42.6894 1059.78 42.8864C1059.28 43.0795 1058.72 43.1761 1058.08 43.1761ZM1063.53 43V34.2727H1065.17V35.6591H1065.27C1065.42 35.1894 1065.7 34.8201 1066.11 34.5511C1066.51 34.2784 1066.97 34.142 1067.48 34.142C1067.59 34.142 1067.71 34.1458 1067.86 34.1534C1068 34.161 1068.12 34.1705 1068.2 34.1818V35.8068C1068.13 35.7879 1068.01 35.767 1067.84 35.7443C1067.66 35.7178 1067.49 35.7045 1067.32 35.7045C1066.91 35.7045 1066.56 35.7898 1066.24 35.9602C1065.93 36.1269 1065.69 36.3598 1065.5 36.6591C1065.32 36.9545 1065.23 37.2917 1065.23 37.6705V43H1063.53ZM1074.12 37.3466V38.8182H1068.96V37.3466H1074.12ZM1078.1 31.3636V43H1076.35V31.3636H1078.1ZM1080.48 43V31.3636H1084.63C1085.54 31.3636 1086.29 31.5284 1086.88 31.858C1087.48 32.1875 1087.92 32.6383 1088.22 33.2102C1088.51 33.7784 1088.66 34.4186 1088.66 35.1307C1088.66 35.8466 1088.51 36.4905 1088.21 37.0625C1087.92 37.6307 1087.47 38.0814 1086.87 38.4148C1086.28 38.7443 1085.53 38.9091 1084.63 38.9091H1081.77V37.4205H1084.47C1085.04 37.4205 1085.5 37.322 1085.86 37.125C1086.22 36.9242 1086.48 36.6515 1086.64 36.3068C1086.81 35.9621 1086.89 35.5701 1086.89 35.1307C1086.89 34.6913 1086.81 34.3011 1086.64 33.9602C1086.48 33.6193 1086.21 33.3523 1085.85 33.1591C1085.5 32.9659 1085.03 32.8693 1084.44 32.8693H1082.24V43H1080.48ZM1094.6 43V31.3636H1096.36V41.4886H1101.63V43H1094.6ZM1103.32 43V34.2727H1105.02V43H1103.32ZM1104.18 32.9261C1103.88 32.9261 1103.63 32.8277 1103.42 32.6307C1103.21 32.4299 1103.1 32.1913 1103.1 31.9148C1103.1 31.6345 1103.21 31.3958 1103.42 31.1989C1103.63 30.9981 1103.88 30.8977 1104.18 30.8977C1104.47 30.8977 1104.73 30.9981 1104.93 31.1989C1105.15 31.3958 1105.25 31.6345 1105.25 31.9148C1105.25 32.1913 1105.15 32.4299 1104.93 32.6307C1104.73 32.8277 1104.47 32.9261 1104.18 32.9261ZM1107.13 43V34.2727H1108.76V35.6932H1108.87C1109.05 35.2121 1109.35 34.8371 1109.76 34.5682C1110.17 34.2955 1110.67 34.1591 1111.24 34.1591C1111.83 34.1591 1112.31 34.2955 1112.71 34.5682C1113.11 34.8409 1113.4 35.2159 1113.59 35.6932H1113.68C1113.89 35.2273 1114.22 34.8561 1114.67 34.5795C1115.13 34.2992 1115.67 34.1591 1116.3 34.1591C1117.09 34.1591 1117.74 34.4072 1118.24 34.9034C1118.74 35.3996 1118.99 36.1477 1118.99 37.1477V43H1117.29V37.3068C1117.29 36.7159 1117.13 36.2879 1116.81 36.0227C1116.49 35.7576 1116.1 35.625 1115.66 35.625C1115.1 35.625 1114.67 35.7955 1114.37 36.1364C1114.06 36.4735 1113.91 36.9072 1113.91 37.4375V43H1112.21V37.1989C1112.21 36.7254 1112.07 36.3447 1111.77 36.0568C1111.48 35.7689 1111.09 35.625 1110.62 35.625C1110.3 35.625 1110 35.7102 1109.73 35.8807C1109.46 36.0473 1109.24 36.2803 1109.07 36.5795C1108.91 36.8788 1108.83 37.2254 1108.83 37.6193V43H1107.13ZM1121.09 43V34.2727H1122.79V43H1121.09ZM1121.95 32.9261C1121.66 32.9261 1121.4 32.8277 1121.19 32.6307C1120.98 32.4299 1120.88 32.1913 1120.88 31.9148C1120.88 31.6345 1120.98 31.3958 1121.19 31.1989C1121.4 30.9981 1121.66 30.8977 1121.95 30.8977C1122.25 30.8977 1122.5 30.9981 1122.71 31.1989C1122.92 31.3958 1123.02 31.6345 1123.02 31.9148C1123.02 32.1913 1122.92 32.4299 1122.71 32.6307C1122.5 32.8277 1122.25 32.9261 1121.95 32.9261ZM1128.98 34.2727V35.6364H1124.21V34.2727H1128.98ZM1125.49 32.1818H1127.19V40.4375C1127.19 40.767 1127.23 41.0152 1127.33 41.1818C1127.43 41.3447 1127.56 41.4564 1127.71 41.517C1127.87 41.5739 1128.05 41.6023 1128.23 41.6023C1128.37 41.6023 1128.49 41.5928 1128.59 41.5739C1128.69 41.5549 1128.77 41.5398 1128.83 41.5284L1129.13 42.9318C1129.04 42.9697 1128.9 43.0076 1128.71 43.0455C1128.53 43.0871 1128.3 43.1098 1128.03 43.1136C1127.59 43.1212 1127.17 43.0417 1126.78 42.875C1126.4 42.7083 1126.08 42.4508 1125.84 42.1023C1125.61 41.7538 1125.49 41.3163 1125.49 40.7898V32.1818ZM1141.22 34.4205C1141.16 33.8826 1140.91 33.4659 1140.47 33.1705C1140.03 32.8712 1139.48 32.7216 1138.81 32.7216C1138.33 32.7216 1137.92 32.7973 1137.57 32.9489C1137.22 33.0966 1136.95 33.3011 1136.76 33.5625C1136.57 33.8201 1136.48 34.1136 1136.48 34.4432C1136.48 34.7197 1136.54 34.9583 1136.67 35.1591C1136.8 35.3598 1136.97 35.5284 1137.19 35.6648C1137.4 35.7973 1137.63 35.9091 1137.88 36C1138.13 36.0871 1138.36 36.1591 1138.59 36.2159L1139.73 36.5114C1140.1 36.6023 1140.48 36.7254 1140.87 36.8807C1141.26 37.036 1141.62 37.2405 1141.95 37.4943C1142.29 37.7481 1142.56 38.0625 1142.76 38.4375C1142.97 38.8125 1143.07 39.2614 1143.07 39.7841C1143.07 40.4432 1142.9 41.0284 1142.56 41.5398C1142.22 42.0511 1141.73 42.4545 1141.09 42.75C1140.45 43.0455 1139.67 43.1932 1138.77 43.1932C1137.89 43.1932 1137.14 43.0549 1136.5 42.7784C1135.87 42.5019 1135.37 42.1098 1135.01 41.6023C1134.65 41.0909 1134.45 40.4848 1134.41 39.7841H1136.17C1136.21 40.2045 1136.34 40.5549 1136.58 40.8352C1136.83 41.1117 1137.13 41.3182 1137.51 41.4545C1137.89 41.5871 1138.3 41.6534 1138.75 41.6534C1139.25 41.6534 1139.69 41.5758 1140.08 41.4205C1140.47 41.2614 1140.77 41.0417 1141 40.7614C1141.22 40.4773 1141.33 40.1458 1141.33 39.767C1141.33 39.4223 1141.24 39.1402 1141.04 38.9205C1140.84 38.7008 1140.58 38.5189 1140.25 38.375C1139.92 38.2311 1139.55 38.1042 1139.13 37.9943L1137.75 37.6193C1136.82 37.3655 1136.08 36.9924 1135.54 36.5C1135 36.0076 1134.73 35.3561 1134.73 34.5455C1134.73 33.875 1134.91 33.2898 1135.27 32.7898C1135.63 32.2898 1136.13 31.9015 1136.75 31.625C1137.37 31.3447 1138.07 31.2045 1138.85 31.2045C1139.64 31.2045 1140.33 31.3428 1140.94 31.6193C1141.54 31.8958 1142.02 32.2765 1142.37 32.7614C1142.72 33.2424 1142.9 33.7955 1142.91 34.4205H1141.22ZM1148.93 34.2727V35.6364H1144.16V34.2727H1148.93ZM1145.44 32.1818H1147.14V40.4375C1147.14 40.767 1147.19 41.0152 1147.29 41.1818C1147.39 41.3447 1147.52 41.4564 1147.67 41.517C1147.83 41.5739 1148 41.6023 1148.19 41.6023C1148.32 41.6023 1148.44 41.5928 1148.55 41.5739C1148.65 41.5549 1148.73 41.5398 1148.78 41.5284L1149.09 42.9318C1148.99 42.9697 1148.85 43.0076 1148.67 43.0455C1148.49 43.0871 1148.26 43.1098 1147.99 43.1136C1147.54 43.1212 1147.12 43.0417 1146.74 42.875C1146.35 42.7083 1146.04 42.4508 1145.8 42.1023C1145.56 41.7538 1145.44 41.3163 1145.44 40.7898V32.1818ZM1154.22 43.1761C1153.4 43.1761 1152.69 42.9886 1152.08 42.6136C1151.47 42.2386 1150.99 41.714 1150.65 41.0398C1150.32 40.3655 1150.15 39.5777 1150.15 38.6761C1150.15 37.7708 1150.32 36.9792 1150.65 36.3011C1150.99 35.6231 1151.47 35.0966 1152.08 34.7216C1152.69 34.3466 1153.4 34.1591 1154.22 34.1591C1155.04 34.1591 1155.75 34.3466 1156.36 34.7216C1156.97 35.0966 1157.44 35.6231 1157.78 36.3011C1158.12 36.9792 1158.29 37.7708 1158.29 38.6761C1158.29 39.5777 1158.12 40.3655 1157.78 41.0398C1157.44 41.714 1156.97 42.2386 1156.36 42.6136C1155.75 42.9886 1155.04 43.1761 1154.22 43.1761ZM1154.22 41.75C1154.75 41.75 1155.19 41.6098 1155.54 41.3295C1155.89 41.0492 1156.15 40.6761 1156.31 40.2102C1156.48 39.7443 1156.57 39.2311 1156.57 38.6705C1156.57 38.1136 1156.48 37.6023 1156.31 37.1364C1156.15 36.6667 1155.89 36.2898 1155.54 36.0057C1155.19 35.7216 1154.75 35.5795 1154.22 35.5795C1153.69 35.5795 1153.25 35.7216 1152.89 36.0057C1152.55 36.2898 1152.29 36.6667 1152.12 37.1364C1151.95 37.6023 1151.87 38.1136 1151.87 38.6705C1151.87 39.2311 1151.95 39.7443 1152.12 40.2102C1152.29 40.6761 1152.55 41.0492 1152.89 41.3295C1153.25 41.6098 1153.69 41.75 1154.22 41.75ZM1160.01 43V34.2727H1161.65V35.6591H1161.74C1161.9 35.1894 1162.18 34.8201 1162.58 34.5511C1162.99 34.2784 1163.44 34.142 1163.95 34.142C1164.06 34.142 1164.19 34.1458 1164.33 34.1534C1164.48 34.161 1164.59 34.1705 1164.68 34.1818V35.8068C1164.61 35.7879 1164.49 35.767 1164.31 35.7443C1164.14 35.7178 1163.96 35.7045 1163.79 35.7045C1163.39 35.7045 1163.03 35.7898 1162.72 35.9602C1162.41 36.1269 1162.16 36.3598 1161.98 36.6591C1161.8 36.9545 1161.7 37.2917 1161.7 37.6705V43H1160.01ZM1168.43 43.1932C1167.88 43.1932 1167.38 43.0909 1166.93 42.8864C1166.49 42.678 1166.13 42.3769 1165.87 41.983C1165.61 41.589 1165.48 41.1061 1165.48 40.5341C1165.48 40.0417 1165.58 39.6364 1165.77 39.3182C1165.96 39 1166.21 38.7481 1166.53 38.5625C1166.86 38.3769 1167.22 38.2367 1167.61 38.142C1168.01 38.0473 1168.42 37.9754 1168.83 37.9261C1169.35 37.8655 1169.78 37.8163 1170.1 37.7784C1170.43 37.7367 1170.67 37.6705 1170.81 37.5795C1170.96 37.4886 1171.03 37.3409 1171.03 37.1364V37.0966C1171.03 36.6004 1170.89 36.2159 1170.61 35.9432C1170.34 35.6705 1169.92 35.5341 1169.38 35.5341C1168.8 35.5341 1168.35 35.661 1168.02 35.9148C1167.7 36.1648 1167.47 36.4432 1167.35 36.75L1165.75 36.3864C1165.94 35.8561 1166.22 35.428 1166.58 35.1023C1166.95 34.7727 1167.37 34.5341 1167.85 34.3864C1168.32 34.2348 1168.83 34.1591 1169.35 34.1591C1169.7 34.1591 1170.07 34.2008 1170.46 34.2841C1170.85 34.3636 1171.22 34.5114 1171.56 34.7273C1171.91 34.9432 1172.19 35.2519 1172.41 35.6534C1172.63 36.0511 1172.74 36.5682 1172.74 37.2045V43H1171.08V41.8068H1171.01C1170.9 42.0265 1170.74 42.2424 1170.52 42.4545C1170.3 42.6667 1170.02 42.8428 1169.67 42.983C1169.33 43.1231 1168.91 43.1932 1168.43 43.1932ZM1168.8 41.8295C1169.27 41.8295 1169.67 41.7367 1170.01 41.5511C1170.34 41.3655 1170.6 41.1231 1170.77 40.8239C1170.95 40.5208 1171.04 40.197 1171.04 39.8523V38.7273C1170.98 38.7879 1170.86 38.8447 1170.69 38.8977C1170.52 38.947 1170.32 38.9905 1170.1 39.0284C1169.88 39.0625 1169.67 39.0947 1169.46 39.125C1169.25 39.1515 1169.08 39.1742 1168.94 39.1932C1168.61 39.2348 1168.31 39.3049 1168.03 39.4034C1167.77 39.5019 1167.55 39.6439 1167.39 39.8295C1167.23 40.0114 1167.15 40.2538 1167.15 40.5568C1167.15 40.9773 1167.3 41.2955 1167.61 41.5114C1167.92 41.7235 1168.32 41.8295 1168.8 41.8295ZM1178.48 46.4545C1177.79 46.4545 1177.2 46.3636 1176.7 46.1818C1176.2 46 1175.79 45.7595 1175.48 45.4602C1175.16 45.161 1174.93 44.8333 1174.77 44.4773L1176.23 43.875C1176.34 44.0417 1176.47 44.2178 1176.64 44.4034C1176.82 44.5928 1177.05 44.7538 1177.35 44.8864C1177.65 45.0189 1178.03 45.0852 1178.5 45.0852C1179.15 45.0852 1179.68 44.928 1180.1 44.6136C1180.52 44.303 1180.73 43.8068 1180.73 43.125V41.4091H1180.62C1180.52 41.5947 1180.37 41.8011 1180.18 42.0284C1179.99 42.2557 1179.73 42.4527 1179.39 42.6193C1179.06 42.786 1178.63 42.8693 1178.09 42.8693C1177.4 42.8693 1176.78 42.7083 1176.23 42.3864C1175.68 42.0606 1175.24 41.5814 1174.92 40.9489C1174.6 40.3125 1174.45 39.5303 1174.45 38.6023C1174.45 37.6742 1174.6 36.8788 1174.92 36.2159C1175.23 35.553 1175.67 35.0455 1176.22 34.6932C1176.78 34.3371 1177.4 34.1591 1178.1 34.1591C1178.65 34.1591 1179.08 34.25 1179.42 34.4318C1179.75 34.6098 1180.01 34.8182 1180.2 35.0568C1180.38 35.2955 1180.53 35.5057 1180.63 35.6875H1180.76V34.2727H1182.42V43.1932C1182.42 43.9432 1182.25 44.5587 1181.9 45.0398C1181.55 45.5208 1181.08 45.8769 1180.48 46.108C1179.89 46.339 1179.23 46.4545 1178.48 46.4545ZM1178.47 41.4602C1178.96 41.4602 1179.37 41.3466 1179.71 41.1193C1180.05 40.8883 1180.3 40.5587 1180.48 40.1307C1180.66 39.6989 1180.75 39.1818 1180.75 38.5795C1180.75 37.9924 1180.66 37.4754 1180.48 37.0284C1180.31 36.5814 1180.05 36.233 1179.72 35.983C1179.38 35.7292 1178.96 35.6023 1178.47 35.6023C1177.96 35.6023 1177.53 35.7348 1177.19 36C1176.85 36.2614 1176.59 36.6174 1176.42 37.0682C1176.25 37.5189 1176.16 38.0227 1176.16 38.5795C1176.16 39.1515 1176.25 39.6534 1176.42 40.0852C1176.6 40.517 1176.85 40.8542 1177.2 41.0966C1177.54 41.339 1177.96 41.4602 1178.47 41.4602ZM1188.29 43.1761C1187.43 43.1761 1186.69 42.9924 1186.06 42.625C1185.45 42.2538 1184.97 41.733 1184.63 41.0625C1184.3 40.3883 1184.13 39.5985 1184.13 38.6932C1184.13 37.7992 1184.3 37.0114 1184.63 36.3295C1184.97 35.6477 1185.44 35.1155 1186.04 34.733C1186.65 34.3504 1187.36 34.1591 1188.17 34.1591C1188.66 34.1591 1189.14 34.2405 1189.6 34.4034C1190.06 34.5663 1190.48 34.822 1190.84 35.1705C1191.21 35.5189 1191.5 35.9716 1191.71 36.5284C1191.92 37.0814 1192.03 37.7538 1192.03 38.5455V39.1477H1185.09V37.875H1190.37C1190.37 37.428 1190.27 37.0322 1190.09 36.6875C1189.91 36.339 1189.66 36.0644 1189.33 35.8636C1189 35.6629 1188.62 35.5625 1188.18 35.5625C1187.7 35.5625 1187.28 35.6799 1186.93 35.9148C1186.58 36.1458 1186.3 36.4489 1186.11 36.8239C1185.92 37.1951 1185.83 37.5985 1185.83 38.0341V39.0284C1185.83 39.6117 1185.93 40.108 1186.13 40.517C1186.34 40.9261 1186.63 41.2386 1187 41.4545C1187.37 41.6667 1187.81 41.7727 1188.3 41.7727C1188.63 41.7727 1188.92 41.7273 1189.18 41.6364C1189.45 41.5417 1189.68 41.4015 1189.87 41.2159C1190.06 41.0303 1190.21 40.8011 1190.31 40.5284L1191.92 40.8182C1191.79 41.2917 1191.56 41.7064 1191.23 42.0625C1190.9 42.4148 1190.48 42.6894 1189.98 42.8864C1189.49 43.0795 1188.92 43.1761 1188.29 43.1761Z" fill="#573C00" style="fill:#573C00;fill:color(display-p3 0.3416 0.2371 0.0000);fill-opacity:1;"/>
<rect x="1030" y="135" width="176" height="69" rx="34.5" fill="#F9FFE5" stroke="#FFB100" style="fill:#F9FFE5;fill:color(display-p3 0.9762 1.0000 0.8980);fill-opacity:1;stroke:#FFB100;stroke:color(display-p3 1.0000 0.6941 0.0000);stroke-opacity:1;" stroke-width="4" stroke-linecap="round"/>
<path d="M1067.73 156.04C1067.62 155.695 1067.47 155.386 1067.29 155.114C1067.11 154.837 1066.89 154.602 1066.63 154.409C1066.38 154.212 1066.09 154.062 1065.77 153.96C1065.44 153.858 1065.09 153.807 1064.7 153.807C1064.05 153.807 1063.46 153.975 1062.93 154.312C1062.4 154.65 1061.99 155.144 1061.68 155.795C1061.38 156.443 1061.23 157.237 1061.23 158.176C1061.23 159.119 1061.38 159.917 1061.69 160.568C1061.99 161.22 1062.41 161.714 1062.95 162.051C1063.48 162.388 1064.09 162.557 1064.77 162.557C1065.4 162.557 1065.95 162.428 1066.42 162.17C1066.9 161.913 1067.26 161.549 1067.52 161.08C1067.78 160.606 1067.91 160.049 1067.91 159.409L1068.37 159.494H1065.04V158.045H1069.61V159.369C1069.61 160.347 1069.4 161.195 1068.99 161.915C1068.57 162.631 1068 163.184 1067.27 163.574C1066.54 163.964 1065.71 164.159 1064.77 164.159C1063.72 164.159 1062.79 163.917 1062 163.432C1061.21 162.947 1060.59 162.259 1060.15 161.369C1059.7 160.475 1059.48 159.415 1059.48 158.188C1059.48 157.259 1059.61 156.426 1059.87 155.688C1060.13 154.949 1060.49 154.322 1060.95 153.807C1061.42 153.288 1061.97 152.892 1062.61 152.619C1063.24 152.343 1063.94 152.205 1064.69 152.205C1065.32 152.205 1065.91 152.297 1066.45 152.483C1066.99 152.669 1067.48 152.932 1067.9 153.273C1068.33 153.614 1068.68 154.019 1068.96 154.489C1069.24 154.955 1069.43 155.472 1069.53 156.04H1067.73ZM1075.29 164.176C1074.43 164.176 1073.69 163.992 1073.07 163.625C1072.45 163.254 1071.97 162.733 1071.64 162.062C1071.3 161.388 1071.14 160.598 1071.14 159.693C1071.14 158.799 1071.3 158.011 1071.64 157.33C1071.97 156.648 1072.44 156.116 1073.05 155.733C1073.65 155.35 1074.36 155.159 1075.17 155.159C1075.66 155.159 1076.14 155.241 1076.6 155.403C1077.06 155.566 1077.48 155.822 1077.85 156.17C1078.21 156.519 1078.5 156.972 1078.72 157.528C1078.93 158.081 1079.03 158.754 1079.03 159.545V160.148H1072.1V158.875H1077.37C1077.37 158.428 1077.28 158.032 1077.1 157.688C1076.91 157.339 1076.66 157.064 1076.33 156.864C1076 156.663 1075.62 156.562 1075.18 156.562C1074.7 156.562 1074.29 156.68 1073.93 156.915C1073.58 157.146 1073.31 157.449 1073.11 157.824C1072.92 158.195 1072.83 158.598 1072.83 159.034V160.028C1072.83 160.612 1072.93 161.108 1073.14 161.517C1073.34 161.926 1073.63 162.239 1074.01 162.455C1074.38 162.667 1074.81 162.773 1075.31 162.773C1075.63 162.773 1075.92 162.727 1076.19 162.636C1076.45 162.542 1076.68 162.402 1076.87 162.216C1077.07 162.03 1077.22 161.801 1077.32 161.528L1078.93 161.818C1078.8 162.292 1078.57 162.706 1078.23 163.062C1077.9 163.415 1077.49 163.689 1076.99 163.886C1076.49 164.08 1075.93 164.176 1075.29 164.176ZM1082.44 158.818V164H1080.74V155.273H1082.37V156.693H1082.48C1082.68 156.231 1083 155.86 1083.42 155.58C1083.86 155.299 1084.4 155.159 1085.06 155.159C1085.65 155.159 1086.17 155.284 1086.62 155.534C1087.06 155.78 1087.41 156.148 1087.66 156.636C1087.9 157.125 1088.03 157.729 1088.03 158.449V164H1086.33V158.653C1086.33 158.021 1086.16 157.527 1085.83 157.17C1085.5 156.811 1085.05 156.631 1084.48 156.631C1084.08 156.631 1083.73 156.716 1083.42 156.886C1083.12 157.057 1082.88 157.307 1082.7 157.636C1082.53 157.962 1082.44 158.356 1082.44 158.818ZM1093.89 164.176C1093.03 164.176 1092.29 163.992 1091.67 163.625C1091.05 163.254 1090.57 162.733 1090.24 162.062C1089.9 161.388 1089.74 160.598 1089.74 159.693C1089.74 158.799 1089.9 158.011 1090.24 157.33C1090.57 156.648 1091.04 156.116 1091.65 155.733C1092.25 155.35 1092.96 155.159 1093.77 155.159C1094.26 155.159 1094.74 155.241 1095.2 155.403C1095.67 155.566 1096.08 155.822 1096.45 156.17C1096.81 156.519 1097.1 156.972 1097.32 157.528C1097.53 158.081 1097.64 158.754 1097.64 159.545V160.148H1090.7V158.875H1095.97C1095.97 158.428 1095.88 158.032 1095.7 157.688C1095.52 157.339 1095.26 157.064 1094.93 156.864C1094.6 156.663 1094.22 156.562 1093.78 156.562C1093.31 156.562 1092.89 156.68 1092.53 156.915C1092.18 157.146 1091.91 157.449 1091.71 157.824C1091.53 158.195 1091.43 158.598 1091.43 159.034V160.028C1091.43 160.612 1091.53 161.108 1091.74 161.517C1091.95 161.926 1092.24 162.239 1092.61 162.455C1092.98 162.667 1093.41 162.773 1093.91 162.773C1094.23 162.773 1094.52 162.727 1094.79 162.636C1095.05 162.542 1095.28 162.402 1095.48 162.216C1095.67 162.03 1095.82 161.801 1095.92 161.528L1097.53 161.818C1097.4 162.292 1097.17 162.706 1096.83 163.062C1096.5 163.415 1096.09 163.689 1095.59 163.886C1095.09 164.08 1094.53 164.176 1093.89 164.176ZM1099.34 164V155.273H1100.99V156.659H1101.08C1101.24 156.189 1101.52 155.82 1101.92 155.551C1102.32 155.278 1102.78 155.142 1103.29 155.142C1103.4 155.142 1103.52 155.146 1103.67 155.153C1103.82 155.161 1103.93 155.17 1104.01 155.182V156.807C1103.95 156.788 1103.83 156.767 1103.65 156.744C1103.48 156.718 1103.3 156.705 1103.13 156.705C1102.73 156.705 1102.37 156.79 1102.05 156.96C1101.74 157.127 1101.5 157.36 1101.32 157.659C1101.13 157.955 1101.04 158.292 1101.04 158.67V164H1099.34ZM1107.77 164.193C1107.22 164.193 1106.72 164.091 1106.27 163.886C1105.82 163.678 1105.47 163.377 1105.21 162.983C1104.95 162.589 1104.82 162.106 1104.82 161.534C1104.82 161.042 1104.92 160.636 1105.11 160.318C1105.29 160 1105.55 159.748 1105.87 159.562C1106.19 159.377 1106.55 159.237 1106.95 159.142C1107.35 159.047 1107.76 158.975 1108.17 158.926C1108.69 158.866 1109.11 158.816 1109.44 158.778C1109.77 158.737 1110 158.67 1110.15 158.58C1110.3 158.489 1110.37 158.341 1110.37 158.136V158.097C1110.37 157.6 1110.23 157.216 1109.95 156.943C1109.68 156.67 1109.26 156.534 1108.71 156.534C1108.14 156.534 1107.69 156.661 1107.36 156.915C1107.04 157.165 1106.81 157.443 1106.69 157.75L1105.09 157.386C1105.28 156.856 1105.55 156.428 1105.92 156.102C1106.29 155.773 1106.71 155.534 1107.19 155.386C1107.66 155.235 1108.16 155.159 1108.69 155.159C1109.04 155.159 1109.41 155.201 1109.8 155.284C1110.19 155.364 1110.56 155.511 1110.9 155.727C1111.25 155.943 1111.53 156.252 1111.75 156.653C1111.97 157.051 1112.08 157.568 1112.08 158.205V164H1110.42V162.807H1110.35C1110.24 163.027 1110.08 163.242 1109.86 163.455C1109.64 163.667 1109.35 163.843 1109.01 163.983C1108.66 164.123 1108.25 164.193 1107.77 164.193ZM1108.14 162.83C1108.61 162.83 1109.01 162.737 1109.34 162.551C1109.68 162.366 1109.94 162.123 1110.11 161.824C1110.29 161.521 1110.38 161.197 1110.38 160.852V159.727C1110.32 159.788 1110.2 159.845 1110.03 159.898C1109.86 159.947 1109.66 159.991 1109.44 160.028C1109.22 160.062 1109.01 160.095 1108.8 160.125C1108.59 160.152 1108.42 160.174 1108.28 160.193C1107.95 160.235 1107.65 160.305 1107.37 160.403C1107.1 160.502 1106.89 160.644 1106.72 160.83C1106.57 161.011 1106.49 161.254 1106.49 161.557C1106.49 161.977 1106.64 162.295 1106.95 162.511C1107.26 162.723 1107.66 162.83 1108.14 162.83ZM1118.24 155.273V156.636H1113.47V155.273H1118.24ZM1114.75 153.182H1116.45V161.438C1116.45 161.767 1116.5 162.015 1116.6 162.182C1116.69 162.345 1116.82 162.456 1116.98 162.517C1117.14 162.574 1117.31 162.602 1117.49 162.602C1117.63 162.602 1117.75 162.593 1117.85 162.574C1117.95 162.555 1118.03 162.54 1118.09 162.528L1118.4 163.932C1118.3 163.97 1118.16 164.008 1117.98 164.045C1117.79 164.087 1117.57 164.11 1117.29 164.114C1116.85 164.121 1116.43 164.042 1116.04 163.875C1115.66 163.708 1115.35 163.451 1115.11 163.102C1114.87 162.754 1114.75 162.316 1114.75 161.79V153.182ZM1123.61 164.176C1122.75 164.176 1122.01 163.992 1121.39 163.625C1120.77 163.254 1120.29 162.733 1119.96 162.062C1119.62 161.388 1119.46 160.598 1119.46 159.693C1119.46 158.799 1119.62 158.011 1119.96 157.33C1120.29 156.648 1120.76 156.116 1121.36 155.733C1121.97 155.35 1122.68 155.159 1123.49 155.159C1123.98 155.159 1124.46 155.241 1124.92 155.403C1125.38 155.566 1125.8 155.822 1126.17 156.17C1126.53 156.519 1126.82 156.972 1127.03 157.528C1127.25 158.081 1127.35 158.754 1127.35 159.545V160.148H1120.42V158.875H1125.69C1125.69 158.428 1125.6 158.032 1125.42 157.688C1125.23 157.339 1124.98 157.064 1124.65 156.864C1124.32 156.663 1123.94 156.562 1123.5 156.562C1123.02 156.562 1122.61 156.68 1122.25 156.915C1121.9 157.146 1121.63 157.449 1121.43 157.824C1121.24 158.195 1121.15 158.598 1121.15 159.034V160.028C1121.15 160.612 1121.25 161.108 1121.46 161.517C1121.66 161.926 1121.95 162.239 1122.32 162.455C1122.7 162.667 1123.13 162.773 1123.63 162.773C1123.95 162.773 1124.24 162.727 1124.51 162.636C1124.77 162.542 1125 162.402 1125.19 162.216C1125.39 162.03 1125.53 161.801 1125.64 161.528L1127.24 161.818C1127.12 162.292 1126.89 162.706 1126.55 163.062C1126.22 163.415 1125.81 163.689 1125.31 163.886C1124.81 164.08 1124.24 164.176 1123.61 164.176ZM1133.49 151.818L1129.74 165.75H1128.23L1131.98 151.818H1133.49ZM1135.96 152.364L1139.2 161.841H1139.33L1142.57 152.364H1144.47L1140.28 164H1138.25L1134.06 152.364H1135.96ZM1148.72 164.176C1147.86 164.176 1147.12 163.992 1146.5 163.625C1145.88 163.254 1145.4 162.733 1145.07 162.062C1144.73 161.388 1144.57 160.598 1144.57 159.693C1144.57 158.799 1144.73 158.011 1145.07 157.33C1145.4 156.648 1145.87 156.116 1146.48 155.733C1147.08 155.35 1147.79 155.159 1148.6 155.159C1149.09 155.159 1149.57 155.241 1150.03 155.403C1150.5 155.566 1150.91 155.822 1151.28 156.17C1151.65 156.519 1151.94 156.972 1152.15 157.528C1152.36 158.081 1152.47 158.754 1152.47 159.545V160.148H1145.53V158.875H1150.8C1150.8 158.428 1150.71 158.032 1150.53 157.688C1150.35 157.339 1150.09 157.064 1149.76 156.864C1149.44 156.663 1149.05 156.562 1148.61 156.562C1148.14 156.562 1147.72 156.68 1147.36 156.915C1147.01 157.146 1146.74 157.449 1146.55 157.824C1146.36 158.195 1146.26 158.598 1146.26 159.034V160.028C1146.26 160.612 1146.36 161.108 1146.57 161.517C1146.78 161.926 1147.07 162.239 1147.44 162.455C1147.81 162.667 1148.24 162.773 1148.74 162.773C1149.06 162.773 1149.35 162.727 1149.62 162.636C1149.88 162.542 1150.11 162.402 1150.31 162.216C1150.5 162.03 1150.65 161.801 1150.75 161.528L1152.36 161.818C1152.23 162.292 1152 162.706 1151.66 163.062C1151.33 163.415 1150.92 163.689 1150.42 163.886C1149.92 164.08 1149.36 164.176 1148.72 164.176ZM1154.17 164V155.273H1155.82V156.659H1155.91C1156.07 156.189 1156.35 155.82 1156.75 155.551C1157.15 155.278 1157.61 155.142 1158.12 155.142C1158.23 155.142 1158.35 155.146 1158.5 155.153C1158.65 155.161 1158.76 155.17 1158.84 155.182V156.807C1158.78 156.788 1158.66 156.767 1158.48 156.744C1158.31 156.718 1158.13 156.705 1157.96 156.705C1157.56 156.705 1157.2 156.79 1156.88 156.96C1156.57 157.127 1156.33 157.36 1156.15 157.659C1155.96 157.955 1155.87 158.292 1155.87 158.67V164H1154.17ZM1160.14 164V155.273H1161.84V164H1160.14ZM1161 153.926C1160.7 153.926 1160.45 153.828 1160.24 153.631C1160.03 153.43 1159.92 153.191 1159.92 152.915C1159.92 152.634 1160.03 152.396 1160.24 152.199C1160.45 151.998 1160.7 151.898 1161 151.898C1161.29 151.898 1161.54 151.998 1161.75 152.199C1161.96 152.396 1162.07 152.634 1162.07 152.915C1162.07 153.191 1161.96 153.43 1161.75 153.631C1161.54 153.828 1161.29 153.926 1161 153.926ZM1168.1 155.273V156.636H1163.17V155.273H1168.1ZM1164.52 164V154.261C1164.52 153.716 1164.64 153.263 1164.88 152.903C1165.12 152.54 1165.43 152.269 1165.83 152.091C1166.22 151.909 1166.65 151.818 1167.11 151.818C1167.45 151.818 1167.74 151.847 1167.99 151.903C1168.23 151.956 1168.41 152.006 1168.53 152.051L1168.13 153.426C1168.05 153.403 1167.95 153.377 1167.82 153.347C1167.7 153.312 1167.55 153.295 1167.37 153.295C1166.96 153.295 1166.66 153.398 1166.48 153.602C1166.31 153.807 1166.22 154.102 1166.22 154.489V164H1164.52ZM1170.75 167.273C1170.5 167.273 1170.27 167.252 1170.06 167.21C1169.85 167.172 1169.69 167.131 1169.59 167.085L1170 165.693C1170.31 165.777 1170.59 165.813 1170.83 165.801C1171.07 165.79 1171.29 165.699 1171.47 165.528C1171.66 165.358 1171.83 165.08 1171.97 164.693L1172.18 164.114L1168.99 155.273H1170.81L1173.02 162.045H1173.11L1175.32 155.273H1177.14L1173.55 165.165C1173.38 165.619 1173.17 166.004 1172.91 166.318C1172.65 166.636 1172.35 166.875 1171.99 167.034C1171.63 167.193 1171.22 167.273 1170.75 167.273ZM1071.77 180.148H1069.99C1069.93 179.769 1069.8 179.436 1069.61 179.148C1069.43 178.86 1069.2 178.616 1068.93 178.415C1068.66 178.214 1068.36 178.062 1068.03 177.96C1067.7 177.858 1067.35 177.807 1066.98 177.807C1066.31 177.807 1065.71 177.975 1065.18 178.312C1064.65 178.65 1064.23 179.144 1063.93 179.795C1063.62 180.447 1063.47 181.242 1063.47 182.182C1063.47 183.129 1063.62 183.928 1063.93 184.58C1064.23 185.231 1064.65 185.723 1065.18 186.057C1065.71 186.39 1066.31 186.557 1066.97 186.557C1067.34 186.557 1067.69 186.508 1068.02 186.409C1068.35 186.307 1068.65 186.157 1068.92 185.96C1069.19 185.763 1069.42 185.523 1069.6 185.239C1069.79 184.951 1069.92 184.621 1069.99 184.25L1071.77 184.256C1071.67 184.828 1071.49 185.354 1071.22 185.835C1070.95 186.312 1070.6 186.725 1070.18 187.074C1069.76 187.419 1069.27 187.686 1068.73 187.875C1068.19 188.064 1067.6 188.159 1066.96 188.159C1065.95 188.159 1065.05 187.92 1064.27 187.443C1063.48 186.962 1062.86 186.275 1062.4 185.381C1061.95 184.487 1061.73 183.42 1061.73 182.182C1061.73 180.939 1061.95 179.873 1062.41 178.983C1062.86 178.089 1063.48 177.403 1064.27 176.926C1065.06 176.445 1065.96 176.205 1066.96 176.205C1067.58 176.205 1068.15 176.294 1068.69 176.472C1069.23 176.646 1069.71 176.903 1070.14 177.244C1070.56 177.581 1070.92 177.994 1071.2 178.483C1071.48 178.968 1071.67 179.523 1071.77 180.148ZM1075.25 182.818V188H1073.56V176.364H1075.23V180.693H1075.34C1075.54 180.223 1075.86 179.85 1076.28 179.574C1076.7 179.297 1077.25 179.159 1077.92 179.159C1078.52 179.159 1079.05 179.282 1079.49 179.528C1079.94 179.775 1080.29 180.142 1080.54 180.631C1080.79 181.116 1080.91 181.722 1080.91 182.449V188H1079.21V182.653C1079.21 182.013 1079.05 181.517 1078.72 181.165C1078.39 180.809 1077.93 180.631 1077.35 180.631C1076.94 180.631 1076.58 180.716 1076.27 180.886C1075.95 181.057 1075.7 181.307 1075.52 181.636C1075.34 181.962 1075.25 182.356 1075.25 182.818ZM1085.54 188.193C1084.99 188.193 1084.49 188.091 1084.04 187.886C1083.6 187.678 1083.24 187.377 1082.98 186.983C1082.72 186.589 1082.6 186.106 1082.6 185.534C1082.6 185.042 1082.69 184.636 1082.88 184.318C1083.07 184 1083.32 183.748 1083.65 183.562C1083.97 183.377 1084.33 183.237 1084.73 183.142C1085.12 183.047 1085.53 182.975 1085.94 182.926C1086.46 182.866 1086.89 182.816 1087.21 182.778C1087.54 182.737 1087.78 182.67 1087.92 182.58C1088.07 182.489 1088.15 182.341 1088.15 182.136V182.097C1088.15 181.6 1088.01 181.216 1087.73 180.943C1087.45 180.67 1087.04 180.534 1086.49 180.534C1085.92 180.534 1085.46 180.661 1085.14 180.915C1084.81 181.165 1084.58 181.443 1084.46 181.75L1082.86 181.386C1083.05 180.856 1083.33 180.428 1083.69 180.102C1084.06 179.773 1084.48 179.534 1084.96 179.386C1085.44 179.235 1085.94 179.159 1086.46 179.159C1086.81 179.159 1087.18 179.201 1087.57 179.284C1087.97 179.364 1088.33 179.511 1088.67 179.727C1089.02 179.943 1089.3 180.252 1089.52 180.653C1089.74 181.051 1089.85 181.568 1089.85 182.205V188H1088.19V186.807H1088.12C1088.01 187.027 1087.85 187.242 1087.63 187.455C1087.41 187.667 1087.13 187.843 1086.78 187.983C1086.44 188.123 1086.03 188.193 1085.54 188.193ZM1085.91 186.83C1086.38 186.83 1086.78 186.737 1087.12 186.551C1087.46 186.366 1087.71 186.123 1087.89 185.824C1088.06 185.521 1088.15 185.197 1088.15 184.852V183.727C1088.09 183.788 1087.97 183.845 1087.8 183.898C1087.63 183.947 1087.43 183.991 1087.21 184.028C1086.99 184.062 1086.78 184.095 1086.57 184.125C1086.36 184.152 1086.19 184.174 1086.05 184.193C1085.72 184.235 1085.42 184.305 1085.15 184.403C1084.88 184.502 1084.66 184.644 1084.5 184.83C1084.34 185.011 1084.26 185.254 1084.26 185.557C1084.26 185.977 1084.42 186.295 1084.73 186.511C1085.04 186.723 1085.43 186.83 1085.91 186.83ZM1093.64 176.364V188H1091.94V176.364H1093.64ZM1097.44 176.364V188H1095.75V176.364H1097.44ZM1103.32 188.176C1102.46 188.176 1101.72 187.992 1101.09 187.625C1100.48 187.254 1100 186.733 1099.66 186.062C1099.33 185.388 1099.16 184.598 1099.16 183.693C1099.16 182.799 1099.33 182.011 1099.66 181.33C1100 180.648 1100.47 180.116 1101.07 179.733C1101.68 179.35 1102.39 179.159 1103.2 179.159C1103.69 179.159 1104.17 179.241 1104.63 179.403C1105.09 179.566 1105.51 179.822 1105.87 180.17C1106.24 180.519 1106.53 180.972 1106.74 181.528C1106.95 182.081 1107.06 182.754 1107.06 183.545V184.148H1100.12V182.875H1105.4C1105.4 182.428 1105.3 182.032 1105.12 181.688C1104.94 181.339 1104.69 181.064 1104.36 180.864C1104.03 180.663 1103.65 180.562 1103.21 180.562C1102.73 180.562 1102.31 180.68 1101.96 180.915C1101.61 181.146 1101.33 181.449 1101.14 181.824C1100.95 182.195 1100.86 182.598 1100.86 183.034V184.028C1100.86 184.612 1100.96 185.108 1101.16 185.517C1101.37 185.926 1101.66 186.239 1102.03 186.455C1102.4 186.667 1102.84 186.773 1103.33 186.773C1103.65 186.773 1103.95 186.727 1104.21 186.636C1104.48 186.542 1104.71 186.402 1104.9 186.216C1105.09 186.03 1105.24 185.801 1105.34 185.528L1106.95 185.818C1106.82 186.292 1106.59 186.706 1106.26 187.062C1105.93 187.415 1105.51 187.689 1105.01 187.886C1104.52 188.08 1103.95 188.176 1103.32 188.176ZM1110.47 182.818V188H1108.77V179.273H1110.4V180.693H1110.51C1110.71 180.231 1111.02 179.86 1111.45 179.58C1111.88 179.299 1112.43 179.159 1113.08 179.159C1113.68 179.159 1114.2 179.284 1114.64 179.534C1115.09 179.78 1115.44 180.148 1115.68 180.636C1115.93 181.125 1116.05 181.729 1116.05 182.449V188H1114.35V182.653C1114.35 182.021 1114.19 181.527 1113.86 181.17C1113.53 180.811 1113.08 180.631 1112.5 180.631C1112.11 180.631 1111.76 180.716 1111.45 180.886C1111.15 181.057 1110.91 181.307 1110.73 181.636C1110.56 181.962 1110.47 182.356 1110.47 182.818ZM1121.81 191.455C1121.12 191.455 1120.52 191.364 1120.02 191.182C1119.53 191 1119.12 190.759 1118.81 190.46C1118.49 190.161 1118.26 189.833 1118.1 189.477L1119.56 188.875C1119.67 189.042 1119.8 189.218 1119.97 189.403C1120.15 189.593 1120.38 189.754 1120.68 189.886C1120.98 190.019 1121.36 190.085 1121.83 190.085C1122.48 190.085 1123.01 189.928 1123.43 189.614C1123.85 189.303 1124.06 188.807 1124.06 188.125V186.409H1123.95C1123.85 186.595 1123.7 186.801 1123.51 187.028C1123.32 187.256 1123.06 187.453 1122.72 187.619C1122.39 187.786 1121.96 187.869 1121.42 187.869C1120.73 187.869 1120.11 187.708 1119.56 187.386C1119.01 187.061 1118.57 186.581 1118.25 185.949C1117.93 185.312 1117.77 184.53 1117.77 183.602C1117.77 182.674 1117.93 181.879 1118.25 181.216C1118.56 180.553 1119 180.045 1119.55 179.693C1120.11 179.337 1120.73 179.159 1121.43 179.159C1121.98 179.159 1122.41 179.25 1122.75 179.432C1123.08 179.61 1123.34 179.818 1123.52 180.057C1123.71 180.295 1123.86 180.506 1123.96 180.688H1124.09V179.273H1125.75V188.193C1125.75 188.943 1125.58 189.559 1125.23 190.04C1124.88 190.521 1124.41 190.877 1123.81 191.108C1123.22 191.339 1122.56 191.455 1121.81 191.455ZM1121.8 186.46C1122.29 186.46 1122.7 186.347 1123.04 186.119C1123.38 185.888 1123.63 185.559 1123.81 185.131C1123.99 184.699 1124.08 184.182 1124.08 183.58C1124.08 182.992 1123.99 182.475 1123.81 182.028C1123.64 181.581 1123.38 181.233 1123.05 180.983C1122.71 180.729 1122.29 180.602 1121.8 180.602C1121.29 180.602 1120.86 180.735 1120.52 181C1120.18 181.261 1119.92 181.617 1119.75 182.068C1119.58 182.519 1119.49 183.023 1119.49 183.58C1119.49 184.152 1119.58 184.653 1119.75 185.085C1119.93 185.517 1120.18 185.854 1120.52 186.097C1120.87 186.339 1121.29 186.46 1121.8 186.46ZM1131.62 188.176C1130.76 188.176 1130.02 187.992 1129.39 187.625C1128.78 187.254 1128.3 186.733 1127.96 186.062C1127.63 185.388 1127.46 184.598 1127.46 183.693C1127.46 182.799 1127.63 182.011 1127.96 181.33C1128.3 180.648 1128.77 180.116 1129.37 179.733C1129.98 179.35 1130.69 179.159 1131.5 179.159C1131.99 179.159 1132.47 179.241 1132.93 179.403C1133.39 179.566 1133.81 179.822 1134.17 180.17C1134.54 180.519 1134.83 180.972 1135.04 181.528C1135.25 182.081 1135.36 182.754 1135.36 183.545V184.148H1128.42V182.875H1133.7C1133.7 182.428 1133.6 182.032 1133.42 181.688C1133.24 181.339 1132.99 181.064 1132.66 180.864C1132.33 180.663 1131.95 180.562 1131.51 180.562C1131.03 180.562 1130.61 180.68 1130.26 180.915C1129.91 181.146 1129.63 181.449 1129.44 181.824C1129.25 182.195 1129.16 182.598 1129.16 183.034V184.028C1129.16 184.612 1129.26 185.108 1129.46 185.517C1129.67 185.926 1129.96 186.239 1130.33 186.455C1130.7 186.667 1131.14 186.773 1131.63 186.773C1131.95 186.773 1132.25 186.727 1132.51 186.636C1132.78 186.542 1133.01 186.402 1133.2 186.216C1133.39 186.03 1133.54 185.801 1133.64 185.528L1135.25 185.818C1135.12 186.292 1134.89 186.706 1134.56 187.062C1134.23 187.415 1133.81 187.689 1133.31 187.886C1132.82 188.08 1132.25 188.176 1131.62 188.176ZM1145.03 188H1141.26V176.364H1145.15C1146.29 176.364 1147.27 176.597 1148.09 177.062C1148.91 177.525 1149.53 178.189 1149.97 179.057C1150.41 179.92 1150.63 180.956 1150.63 182.165C1150.63 183.377 1150.41 184.419 1149.96 185.29C1149.52 186.161 1148.89 186.831 1148.05 187.301C1147.22 187.767 1146.21 188 1145.03 188ZM1143.02 186.466H1144.93C1145.82 186.466 1146.56 186.299 1147.14 185.966C1147.73 185.629 1148.17 185.142 1148.46 184.506C1148.75 183.866 1148.9 183.085 1148.9 182.165C1148.9 181.252 1148.75 180.477 1148.46 179.841C1148.17 179.205 1147.75 178.722 1147.17 178.392C1146.6 178.062 1145.89 177.898 1145.04 177.898H1143.02V186.466ZM1155.04 188.193C1154.49 188.193 1153.99 188.091 1153.54 187.886C1153.09 187.678 1152.74 187.377 1152.48 186.983C1152.22 186.589 1152.09 186.106 1152.09 185.534C1152.09 185.042 1152.18 184.636 1152.37 184.318C1152.56 184 1152.82 183.748 1153.14 183.562C1153.46 183.377 1153.82 183.237 1154.22 183.142C1154.62 183.047 1155.02 182.975 1155.44 182.926C1155.96 182.866 1156.38 182.816 1156.71 182.778C1157.03 182.737 1157.27 182.67 1157.42 182.58C1157.57 182.489 1157.64 182.341 1157.64 182.136V182.097C1157.64 181.6 1157.5 181.216 1157.22 180.943C1156.94 180.67 1156.53 180.534 1155.98 180.534C1155.41 180.534 1154.96 180.661 1154.63 180.915C1154.3 181.165 1154.08 181.443 1153.95 181.75L1152.36 181.386C1152.55 180.856 1152.82 180.428 1153.19 180.102C1153.55 179.773 1153.98 179.534 1154.45 179.386C1154.93 179.235 1155.43 179.159 1155.96 179.159C1156.31 179.159 1156.68 179.201 1157.07 179.284C1157.46 179.364 1157.83 179.511 1158.17 179.727C1158.51 179.943 1158.8 180.252 1159.02 180.653C1159.24 181.051 1159.35 181.568 1159.35 182.205V188H1157.69V186.807H1157.62C1157.51 187.027 1157.34 187.242 1157.12 187.455C1156.9 187.667 1156.62 187.843 1156.28 187.983C1155.93 188.123 1155.52 188.193 1155.04 188.193ZM1155.41 186.83C1155.88 186.83 1156.28 186.737 1156.61 186.551C1156.95 186.366 1157.2 186.123 1157.38 185.824C1157.56 185.521 1157.65 185.197 1157.65 184.852V183.727C1157.59 183.788 1157.47 183.845 1157.29 183.898C1157.12 183.947 1156.93 183.991 1156.71 184.028C1156.49 184.062 1156.28 184.095 1156.07 184.125C1155.86 184.152 1155.68 184.174 1155.54 184.193C1155.21 184.235 1154.91 184.305 1154.64 184.403C1154.37 184.502 1154.16 184.644 1153.99 184.83C1153.83 185.011 1153.75 185.254 1153.75 185.557C1153.75 185.977 1153.91 186.295 1154.22 186.511C1154.53 186.723 1154.93 186.83 1155.41 186.83ZM1165.51 179.273V180.636H1160.74V179.273H1165.51ZM1162.02 177.182H1163.72V185.438C1163.72 185.767 1163.77 186.015 1163.86 186.182C1163.96 186.345 1164.09 186.456 1164.24 186.517C1164.4 186.574 1164.58 186.602 1164.76 186.602C1164.9 186.602 1165.02 186.593 1165.12 186.574C1165.22 186.555 1165.3 186.54 1165.36 186.528L1165.66 187.932C1165.57 187.97 1165.43 188.008 1165.24 188.045C1165.06 188.087 1164.84 188.11 1164.56 188.114C1164.12 188.121 1163.7 188.042 1163.31 187.875C1162.93 187.708 1162.61 187.451 1162.38 187.102C1162.14 186.754 1162.02 186.316 1162.02 185.79V177.182ZM1169.75 188.193C1169.2 188.193 1168.7 188.091 1168.25 187.886C1167.8 187.678 1167.45 187.377 1167.19 186.983C1166.93 186.589 1166.8 186.106 1166.8 185.534C1166.8 185.042 1166.89 184.636 1167.08 184.318C1167.27 184 1167.53 183.748 1167.85 183.562C1168.17 183.377 1168.53 183.237 1168.93 183.142C1169.33 183.047 1169.73 182.975 1170.15 182.926C1170.67 182.866 1171.09 182.816 1171.42 182.778C1171.74 182.737 1171.98 182.67 1172.13 182.58C1172.28 182.489 1172.35 182.341 1172.35 182.136V182.097C1172.35 181.6 1172.21 181.216 1171.93 180.943C1171.65 180.67 1171.24 180.534 1170.69 180.534C1170.12 180.534 1169.67 180.661 1169.34 180.915C1169.01 181.165 1168.79 181.443 1168.66 181.75L1167.07 181.386C1167.26 180.856 1167.53 180.428 1167.9 180.102C1168.26 179.773 1168.69 179.534 1169.16 179.386C1169.64 179.235 1170.14 179.159 1170.67 179.159C1171.02 179.159 1171.39 179.201 1171.78 179.284C1172.17 179.364 1172.54 179.511 1172.88 179.727C1173.22 179.943 1173.51 180.252 1173.73 180.653C1173.95 181.051 1174.06 181.568 1174.06 182.205V188H1172.4V186.807H1172.33C1172.22 187.027 1172.05 187.242 1171.83 187.455C1171.61 187.667 1171.33 187.843 1170.99 187.983C1170.64 188.123 1170.23 188.193 1169.75 188.193ZM1170.12 186.83C1170.59 186.83 1170.99 186.737 1171.32 186.551C1171.66 186.366 1171.92 186.123 1172.09 185.824C1172.27 185.521 1172.36 185.197 1172.36 184.852V183.727C1172.3 183.788 1172.18 183.845 1172 183.898C1171.83 183.947 1171.64 183.991 1171.42 184.028C1171.2 184.062 1170.99 184.095 1170.78 184.125C1170.57 184.152 1170.39 184.174 1170.25 184.193C1169.92 184.235 1169.62 184.305 1169.35 184.403C1169.08 184.502 1168.87 184.644 1168.7 184.83C1168.54 185.011 1168.46 185.254 1168.46 185.557C1168.46 185.977 1168.62 186.295 1168.93 186.511C1169.24 186.723 1169.64 186.83 1170.12 186.83Z" fill="#573C00" style="fill:#573C00;fill:color(display-p3 0.3416 0.2371 0.0000);fill-opacity:1;"/>
<path d="M183.5 102C182.948 102 182.5 102.448 182.5 103C182.5 103.552 182.948 104 183.5 104V103V102ZM241.207 103.707C241.598 103.317 241.598 102.683 241.207 102.293L234.843 95.9289C234.453 95.5384 233.819 95.5384 233.429 95.9289C233.038 96.3195 233.038 96.9526 233.429 97.3431L239.086 103L233.429 108.657C233.038 109.047 233.038 109.681 233.429 110.071C233.819 110.462 234.453 110.462 234.843 110.071L241.207 103.707ZM183.5 103V104H240.5V103V102H183.5V103Z" fill="#757575" style="fill:#757575;fill:color(display-p3 0.4588 0.4588 0.4588);fill-opacity:1;"/>
<path d="M427.5 102C426.948 102 426.5 102.448 426.5 103C426.5 103.552 426.948 104 427.5 104V103V102ZM485.207 103.707C485.598 103.317 485.598 102.683 485.207 102.293L478.843 95.9289C478.453 95.5384 477.819 95.5384 477.429 95.9289C477.038 96.3195 477.038 96.9526 477.429 97.3431L483.086 103L477.429 108.657C477.038 109.047 477.038 109.681 477.429 110.071C477.819 110.462 478.453 110.462 478.843 110.071L485.207 103.707ZM427.5 103V104H484.5V103V102H427.5V103Z" fill="#757575" style="fill:#757575;fill:color(display-p3 0.4588 0.4588 0.4588);fill-opacity:1;"/>
<path d="M671.5 102C670.948 102 670.5 102.448 670.5 103C670.5 103.552 670.948 104 671.5 104V103V102ZM775.207 37.2071C775.598 36.8166 775.598 36.1834 775.207 35.7929L768.843 29.4289C768.453 29.0384 767.819 29.0384 767.429 29.4289C767.038 29.8195 767.038 30.4526 767.429 30.8431L773.086 36.5L767.429 42.1569C767.038 42.5474 767.038 43.1805 767.429 43.5711C767.819 43.9616 768.453 43.9616 768.843 43.5711L775.207 37.2071ZM671.5 103V104H699V103V102H671.5V103ZM723 79H724V60.5H723H722V79H723ZM747 36.5V37.5H774.5V36.5V35.5H747V36.5ZM723 60.5H724C724 47.7975 734.297 37.5 747 37.5V36.5V35.5C733.193 35.5 722 46.6929 722 60.5H723ZM699 103V104C712.807 104 724 92.8071 724 79H723H722C722 91.7025 711.703 102 699 102V103Z" fill="#757575" style="fill:#757575;fill:color(display-p3 0.4588 0.4588 0.4588);fill-opacity:1;"/>
<path d="M671.5 102C670.948 102 670.5 102.448 670.5 103C670.5 103.552 670.948 104 671.5 104V103V102ZM775.207 170.207C775.598 169.817 775.598 169.183 775.207 168.793L768.843 162.429C768.453 162.038 767.819 162.038 767.429 162.429C767.038 162.819 767.038 163.453 767.429 163.843L773.086 169.5L767.429 175.157C767.038 175.547 767.038 176.181 767.429 176.571C767.819 176.962 768.453 176.962 768.843 176.571L775.207 170.207ZM671.5 103V104H699V103V102H671.5V103ZM723 127H722V145.5H723H724V127H723ZM747 169.5V170.5H774.5V169.5V168.5H747V169.5ZM723 145.5H722C722 159.307 733.193 170.5 747 170.5V169.5V168.5C734.297 168.5 724 158.203 724 145.5H723ZM699 103V104C711.703 104 722 114.297 722 127H723H724C724 113.193 712.807 102 699 102V103Z" fill="#757575" style="fill:#757575;fill:color(display-p3 0.4588 0.4588 0.4588);fill-opacity:1;"/>
<path d="M961.5 35.5C960.948 35.5 960.5 35.9477 960.5 36.5C960.5 37.0523 960.948 37.5 961.5 37.5V36.5V35.5ZM1025.21 37.2071C1025.6 36.8166 1025.6 36.1834 1025.21 35.7929L1018.84 29.4289C1018.45 29.0384 1017.82 29.0384 1017.43 29.4289C1017.04 29.8195 1017.04 30.4526 1017.43 30.8431L1023.09 36.5L1017.43 42.1569C1017.04 42.5474 1017.04 43.1805 1017.43 43.5711C1017.82 43.9616 1018.45 43.9616 1018.84 43.5711L1025.21 37.2071ZM961.5 36.5V37.5H1024.5V36.5V35.5H961.5V36.5Z" fill="#757575" style="fill:#757575;fill:color(display-p3 0.4588 0.4588 0.4588);fill-opacity:1;"/>
<path d="M961.5 168.5C960.948 168.5 960.5 168.948 960.5 169.5C960.5 170.052 960.948 170.5 961.5 170.5V169.5V168.5ZM1025.21 170.207C1025.6 169.817 1025.6 169.183 1025.21 168.793L1018.84 162.429C1018.45 162.038 1017.82 162.038 1017.43 162.429C1017.04 162.819 1017.04 163.453 1017.43 163.843L1023.09 169.5L1017.43 175.157C1017.04 175.547 1017.04 176.181 1017.43 176.571C1017.82 176.962 1018.45 176.962 1018.84 176.571L1025.21 170.207ZM961.5 169.5V170.5H1024.5V169.5V168.5H961.5V169.5Z" fill="#757575" style="fill:#757575;fill:color(display-p3 0.4588 0.4588 0.4588);fill-opacity:1;"/>
</svg>
