<svg width="1188" height="88" viewBox="0 0 1188 88" fill="none" xmlns="http://www.w3.org/2000/svg">
<rect x="2" y="2" width="176" height="84" rx="42" fill="#F9FFE5" stroke="#FFB100" style="fill:#F9FFE5;fill:color(display-p3 0.9762 1.0000 0.8980);fill-opacity:1;stroke:#FFB100;stroke:color(display-p3 1.0000 0.6941 0.0000);stroke-opacity:1;" stroke-width="4" stroke-linecap="round"/>
<path d="M14.7608 50V38.3636H18.9086C19.8139 38.3636 20.5639 38.5284 21.1586 38.858C21.7533 39.1875 22.1983 39.6383 22.4938 40.2102C22.7893 40.7784 22.937 41.4186 22.937 42.1307C22.937 42.8466 22.7874 43.4905 22.4881 44.0625C22.1927 44.6307 21.7457 45.0814 21.1472 45.4148C20.5525 45.7443 19.8044 45.9091 18.9029 45.9091H16.0506V44.4205H18.7438C19.3158 44.4205 19.7798 44.322 20.1358 44.125C20.4919 43.9242 20.7533 43.6515 20.9199 43.3068C21.0866 42.9621 21.1699 42.5701 21.1699 42.1307C21.1699 41.6913 21.0866 41.3011 20.9199 40.9602C20.7533 40.6193 20.49 40.3523 20.1302 40.1591C19.7741 39.9659 19.3044 39.8693 18.7211 39.8693H16.5165V50H14.7608ZM34.9272 44.1818C34.9272 45.4242 34.6999 46.4924 34.2454 47.3864C33.7908 48.2765 33.1677 48.9621 32.376 49.4432C31.5882 49.9205 30.6923 50.1591 29.6885 50.1591C28.681 50.1591 27.7813 49.9205 26.9897 49.4432C26.2018 48.9621 25.5806 48.2746 25.126 47.3807C24.6715 46.4867 24.4442 45.4205 24.4442 44.1818C24.4442 42.9394 24.6715 41.8731 25.126 40.983C25.5806 40.089 26.2018 39.4034 26.9897 38.9261C27.7813 38.4451 28.681 38.2045 29.6885 38.2045C30.6923 38.2045 31.5882 38.4451 32.376 38.9261C33.1677 39.4034 33.7908 40.089 34.2454 40.983C34.6999 41.8731 34.9272 42.9394 34.9272 44.1818ZM33.1885 44.1818C33.1885 43.2348 33.0351 42.4375 32.7283 41.7898C32.4253 41.1383 32.0086 40.6458 31.4783 40.3125C30.9518 39.9754 30.3552 39.8068 29.6885 39.8068C29.0181 39.8068 28.4196 39.9754 27.8931 40.3125C27.3666 40.6458 26.9499 41.1383 26.6431 41.7898C26.3401 42.4375 26.1885 43.2348 26.1885 44.1818C26.1885 45.1288 26.3401 45.928 26.6431 46.5795C26.9499 47.2273 27.3666 47.7197 27.8931 48.0568C28.4196 48.3902 29.0181 48.5568 29.6885 48.5568C30.3552 48.5568 30.9518 48.3902 31.4783 48.0568C32.0086 47.7197 32.4253 47.2273 32.7283 46.5795C33.0351 45.928 33.1885 45.1288 33.1885 44.1818ZM43.2867 41.4205C43.2261 40.8826 42.9761 40.4659 42.5367 40.1705C42.0973 39.8712 41.5443 39.7216 40.8776 39.7216C40.4003 39.7216 39.9874 39.7973 39.639 39.9489C39.2905 40.0966 39.0196 40.3011 38.8265 40.5625C38.6371 40.8201 38.5424 41.1136 38.5424 41.4432C38.5424 41.7197 38.6068 41.9583 38.7356 42.1591C38.8681 42.3598 39.0405 42.5284 39.2526 42.6648C39.4685 42.7973 39.6996 42.9091 39.9458 43C40.192 43.0871 40.4287 43.1591 40.656 43.2159L41.7924 43.5114C42.1636 43.6023 42.5443 43.7254 42.9344 43.8807C43.3246 44.036 43.6863 44.2405 44.0196 44.4943C44.353 44.7481 44.6219 45.0625 44.8265 45.4375C45.0348 45.8125 45.139 46.2614 45.139 46.7841C45.139 47.4432 44.9685 48.0284 44.6276 48.5398C44.2905 49.0511 43.7999 49.4545 43.156 49.75C42.5159 50.0455 41.7412 50.1932 40.8321 50.1932C39.9609 50.1932 39.2071 50.0549 38.5708 49.7784C37.9344 49.5019 37.4363 49.1098 37.0765 48.6023C36.7166 48.0909 36.5177 47.4848 36.4799 46.7841H38.2412C38.2753 47.2045 38.4117 47.5549 38.6503 47.8352C38.8927 48.1117 39.2015 48.3182 39.5765 48.4545C39.9552 48.5871 40.37 48.6534 40.8208 48.6534C41.317 48.6534 41.7583 48.5758 42.1446 48.4205C42.5348 48.2614 42.8416 48.0417 43.0651 47.7614C43.2886 47.4773 43.4003 47.1458 43.4003 46.767C43.4003 46.4223 43.3018 46.1402 43.1049 45.9205C42.9117 45.7008 42.6484 45.5189 42.3151 45.375C41.9856 45.2311 41.6124 45.1042 41.1958 44.9943L39.8208 44.6193C38.889 44.3655 38.1503 43.9924 37.6049 43.5C37.0632 43.0076 36.7924 42.3561 36.7924 41.5455C36.7924 40.875 36.9742 40.2898 37.3378 39.7898C37.7015 39.2898 38.1939 38.9015 38.8151 38.625C39.4363 38.3447 40.1371 38.2045 40.9174 38.2045C41.7052 38.2045 42.4003 38.3428 43.0026 38.6193C43.6087 38.8958 44.0859 39.2765 44.4344 39.7614C44.7829 40.2424 44.9647 40.7955 44.9799 41.4205H43.2867ZM46.4871 39.875V38.3636H55.4928V39.875H51.8621V50H50.1121V39.875H46.4871ZM65.6607 37.8182L61.9107 51.75H60.3936L64.1436 37.8182H65.6607ZM69.4676 50.1932C68.9146 50.1932 68.4146 50.0909 67.9676 49.8864C67.5207 49.678 67.1665 49.3769 66.9051 48.983C66.6476 48.589 66.5188 48.1061 66.5188 47.5341C66.5188 47.0417 66.6135 46.6364 66.8029 46.3182C66.9923 46 67.2479 45.7481 67.5699 45.5625C67.8919 45.3769 68.2517 45.2367 68.6494 45.142C69.0472 45.0473 69.4525 44.9754 69.8654 44.9261C70.3881 44.8655 70.8123 44.8163 71.1381 44.7784C71.4638 44.7367 71.7006 44.6705 71.8483 44.5795C71.996 44.4886 72.0699 44.3409 72.0699 44.1364V44.0966C72.0699 43.6004 71.9298 43.2159 71.6494 42.9432C71.3729 42.6705 70.9601 42.5341 70.4108 42.5341C69.8388 42.5341 69.3881 42.661 69.0585 42.9148C68.7328 43.1648 68.5074 43.4432 68.3824 43.75L66.7858 43.3864C66.9752 42.8561 67.2517 42.428 67.6154 42.1023C67.9828 41.7727 68.4051 41.5341 68.8824 41.3864C69.3597 41.2348 69.8616 41.1591 70.3881 41.1591C70.7366 41.1591 71.1059 41.2008 71.496 41.2841C71.89 41.3636 72.2574 41.5114 72.5983 41.7273C72.943 41.9432 73.2252 42.2519 73.4449 42.6534C73.6646 43.0511 73.7744 43.5682 73.7744 44.2045V50H72.1154V48.8068H72.0472C71.9373 49.0265 71.7726 49.2424 71.5529 49.4545C71.3332 49.6667 71.051 49.8428 70.7063 49.983C70.3616 50.1231 69.9487 50.1932 69.4676 50.1932ZM69.8369 48.8295C70.3066 48.8295 70.7082 48.7367 71.0415 48.5511C71.3786 48.3655 71.6343 48.1231 71.8085 47.8239C71.9866 47.5208 72.0756 47.197 72.0756 46.8523V45.7273C72.015 45.7879 71.8976 45.8447 71.7233 45.8977C71.5529 45.947 71.3578 45.9905 71.1381 46.0284C70.9184 46.0625 70.7044 46.0947 70.496 46.125C70.2877 46.1515 70.1135 46.1742 69.9733 46.1932C69.6438 46.2348 69.3426 46.3049 69.0699 46.4034C68.801 46.5019 68.5851 46.6439 68.4222 46.8295C68.2631 47.0114 68.1835 47.2538 68.1835 47.5568C68.1835 47.9773 68.3388 48.2955 68.6494 48.5114C68.9601 48.7235 69.3559 48.8295 69.8369 48.8295ZM75.8612 53.2727V41.2727H77.5203V42.6875H77.6624C77.7609 42.5057 77.9029 42.2955 78.0885 42.0568C78.2741 41.8182 78.5317 41.6098 78.8612 41.4318C79.1908 41.25 79.6264 41.1591 80.1681 41.1591C80.8726 41.1591 81.5014 41.3371 82.0544 41.6932C82.6075 42.0492 83.0412 42.5625 83.3556 43.233C83.6737 43.9034 83.8328 44.7102 83.8328 45.6534C83.8328 46.5966 83.6756 47.4053 83.3612 48.0795C83.0468 48.75 82.615 49.267 82.0658 49.6307C81.5165 49.9905 80.8896 50.1705 80.1851 50.1705C79.6548 50.1705 79.2211 50.0814 78.884 49.9034C78.5506 49.7254 78.2893 49.517 78.0999 49.2784C77.9105 49.0398 77.7646 48.8277 77.6624 48.642H77.5601V53.2727H75.8612ZM77.526 45.6364C77.526 46.25 77.615 46.7879 77.7931 47.25C77.9711 47.7121 78.2287 48.0739 78.5658 48.3352C78.9029 48.5928 79.3158 48.7216 79.8044 48.7216C80.312 48.7216 80.7362 48.5871 81.0771 48.3182C81.4181 48.0455 81.6756 47.6761 81.8499 47.2102C82.0279 46.7443 82.1169 46.2197 82.1169 45.6364C82.1169 45.0606 82.0298 44.5436 81.8556 44.0852C81.6851 43.6269 81.4275 43.2652 81.0828 43C80.7419 42.7348 80.3158 42.6023 79.8044 42.6023C79.312 42.6023 78.8953 42.7292 78.5544 42.983C78.2173 43.2367 77.9616 43.5909 77.7874 44.0455C77.6131 44.5 77.526 45.0303 77.526 45.6364ZM85.5602 50V41.2727H87.2591V50H85.5602ZM86.4182 39.9261C86.1227 39.9261 85.8689 39.8277 85.6568 39.6307C85.4485 39.4299 85.3443 39.1913 85.3443 38.9148C85.3443 38.6345 85.4485 38.3958 85.6568 38.1989C85.8689 37.9981 86.1227 37.8977 86.4182 37.8977C86.7136 37.8977 86.9655 37.9981 87.1739 38.1989C87.386 38.3958 87.4921 38.6345 87.4921 38.9148C87.4921 39.1913 87.386 39.4299 87.1739 39.6307C86.9655 39.8277 86.7136 39.9261 86.4182 39.9261ZM93.8004 37.8182L90.0504 51.75H88.5334L92.2834 37.8182H93.8004ZM98.7437 50.1761C97.899 50.1761 97.1718 49.9848 96.5619 49.6023C95.9559 49.2159 95.49 48.6837 95.1642 48.0057C94.8384 47.3277 94.6756 46.5511 94.6756 45.6761C94.6756 44.7898 94.8422 44.0076 95.1756 43.3295C95.5089 42.6477 95.9786 42.1155 96.5847 41.733C97.1907 41.3504 97.9047 41.1591 98.7267 41.1591C99.3896 41.1591 99.9805 41.2822 100.499 41.5284C101.018 41.7708 101.437 42.1117 101.755 42.5511C102.077 42.9905 102.268 43.5038 102.329 44.0909H100.676C100.585 43.6818 100.376 43.3295 100.051 43.0341C99.7286 42.7386 99.2968 42.5909 98.7551 42.5909C98.2816 42.5909 97.8668 42.7159 97.5108 42.9659C97.1585 43.2121 96.8839 43.5644 96.6869 44.0227C96.49 44.4773 96.3915 45.0152 96.3915 45.6364C96.3915 46.2727 96.4881 46.822 96.6812 47.2841C96.8744 47.7462 97.1472 48.1042 97.4994 48.358C97.8555 48.6117 98.274 48.7386 98.7551 48.7386C99.0771 48.7386 99.3687 48.6799 99.6301 48.5625C99.8953 48.4413 100.117 48.2689 100.295 48.0455C100.477 47.822 100.604 47.553 100.676 47.2386H102.329C102.268 47.803 102.085 48.3068 101.778 48.75C101.471 49.1932 101.06 49.5417 100.545 49.7955C100.034 50.0492 99.4331 50.1761 98.7437 50.1761ZM105.669 44.8182V50H103.97V38.3636H105.646V42.6932H105.754C105.958 42.2235 106.271 41.8504 106.691 41.5739C107.112 41.2973 107.661 41.1591 108.339 41.1591C108.938 41.1591 109.46 41.2822 109.907 41.5284C110.358 41.7746 110.706 42.142 110.953 42.6307C111.203 43.1155 111.328 43.7216 111.328 44.4489V50H109.629V44.6534C109.629 44.0133 109.464 43.517 109.135 43.1648C108.805 42.8087 108.347 42.6307 107.76 42.6307C107.358 42.6307 106.998 42.7159 106.68 42.8864C106.366 43.0568 106.117 43.3068 105.936 43.6364C105.758 43.9621 105.669 44.3561 105.669 44.8182ZM115.959 50.1932C115.405 50.1932 114.905 50.0909 114.459 49.8864C114.012 49.678 113.657 49.3769 113.396 48.983C113.138 48.589 113.01 48.1061 113.01 47.5341C113.01 47.0417 113.104 46.6364 113.294 46.3182C113.483 46 113.739 45.7481 114.061 45.5625C114.383 45.3769 114.743 45.2367 115.14 45.142C115.538 45.0473 115.943 44.9754 116.356 44.9261C116.879 44.8655 117.303 44.8163 117.629 44.7784C117.955 44.7367 118.191 44.6705 118.339 44.5795C118.487 44.4886 118.561 44.3409 118.561 44.1364V44.0966C118.561 43.6004 118.421 43.2159 118.14 42.9432C117.864 42.6705 117.451 42.5341 116.902 42.5341C116.33 42.5341 115.879 42.661 115.549 42.9148C115.224 43.1648 114.998 43.4432 114.873 43.75L113.277 43.3864C113.466 42.8561 113.743 42.428 114.106 42.1023C114.474 41.7727 114.896 41.5341 115.373 41.3864C115.851 41.2348 116.352 41.1591 116.879 41.1591C117.227 41.1591 117.597 41.2008 117.987 41.2841C118.381 41.3636 118.748 41.5114 119.089 41.7273C119.434 41.9432 119.716 42.2519 119.936 42.6534C120.155 43.0511 120.265 43.5682 120.265 44.2045V50H118.606V48.8068H118.538C118.428 49.0265 118.263 49.2424 118.044 49.4545C117.824 49.6667 117.542 49.8428 117.197 49.983C116.852 50.1231 116.44 50.1932 115.959 50.1932ZM116.328 48.8295C116.798 48.8295 117.199 48.7367 117.532 48.5511C117.869 48.3655 118.125 48.1231 118.299 47.8239C118.477 47.5208 118.566 47.197 118.566 46.8523V45.7273C118.506 45.7879 118.388 45.8447 118.214 45.8977C118.044 45.947 117.849 45.9905 117.629 46.0284C117.409 46.0625 117.195 46.0947 116.987 46.125C116.779 46.1515 116.604 46.1742 116.464 46.1932C116.135 46.2348 115.834 46.3049 115.561 46.4034C115.292 46.5019 115.076 46.6439 114.913 46.8295C114.754 47.0114 114.674 47.2538 114.674 47.5568C114.674 47.9773 114.83 48.2955 115.14 48.5114C115.451 48.7235 115.847 48.8295 116.328 48.8295ZM124.051 38.3636V50H122.352V38.3636H124.051ZM127.859 38.3636V50H126.16V38.3636H127.859ZM133.73 50.1761C132.87 50.1761 132.13 49.9924 131.509 49.625C130.891 49.2538 130.414 48.733 130.077 48.0625C129.743 47.3883 129.577 46.5985 129.577 45.6932C129.577 44.7992 129.743 44.0114 130.077 43.3295C130.414 42.6477 130.884 42.1155 131.486 41.733C132.092 41.3504 132.8 41.1591 133.611 41.1591C134.103 41.1591 134.581 41.2405 135.043 41.4034C135.505 41.5663 135.92 41.822 136.287 42.1705C136.654 42.5189 136.944 42.9716 137.156 43.5284C137.368 44.0814 137.475 44.7538 137.475 45.5455V46.1477H130.537V44.875H135.81C135.81 44.428 135.719 44.0322 135.537 43.6875C135.355 43.339 135.1 43.0644 134.77 42.8636C134.444 42.6629 134.062 42.5625 133.622 42.5625C133.145 42.5625 132.728 42.6799 132.372 42.9148C132.02 43.1458 131.747 43.4489 131.554 43.8239C131.365 44.1951 131.27 44.5985 131.27 45.0341V46.0284C131.27 46.6117 131.372 47.108 131.577 47.517C131.785 47.9261 132.075 48.2386 132.446 48.4545C132.817 48.6667 133.251 48.7727 133.747 48.7727C134.069 48.7727 134.363 48.7273 134.628 48.6364C134.893 48.5417 135.122 48.4015 135.315 48.2159C135.509 48.0303 135.656 47.8011 135.759 47.5284L137.367 47.8182C137.238 48.2917 137.007 48.7064 136.673 49.0625C136.344 49.4148 135.929 49.6894 135.429 49.8864C134.933 50.0795 134.367 50.1761 133.73 50.1761ZM140.882 44.8182V50H139.183V41.2727H140.814V42.6932H140.922C141.123 42.2311 141.437 41.8598 141.865 41.5795C142.297 41.2992 142.841 41.1591 143.496 41.1591C144.091 41.1591 144.612 41.2841 145.058 41.5341C145.505 41.7803 145.852 42.1477 146.098 42.6364C146.344 43.125 146.468 43.7292 146.468 44.4489V50H144.769V44.6534C144.769 44.0208 144.604 43.5265 144.274 43.1705C143.945 42.8106 143.492 42.6307 142.916 42.6307C142.523 42.6307 142.172 42.7159 141.865 42.8864C141.562 43.0568 141.322 43.3068 141.144 43.6364C140.969 43.9621 140.882 44.3561 140.882 44.8182ZM152.229 53.4545C151.536 53.4545 150.939 53.3636 150.439 53.1818C149.943 53 149.538 52.7595 149.223 52.4602C148.909 52.161 148.674 51.8333 148.519 51.4773L149.979 50.875C150.081 51.0417 150.218 51.2178 150.388 51.4034C150.562 51.5928 150.797 51.7538 151.093 51.8864C151.392 52.0189 151.776 52.0852 152.246 52.0852C152.89 52.0852 153.422 51.928 153.843 51.6136C154.263 51.303 154.473 50.8068 154.473 50.125V48.4091H154.365C154.263 48.5947 154.115 48.8011 153.922 49.0284C153.733 49.2557 153.471 49.4527 153.138 49.6193C152.805 49.786 152.371 49.8693 151.837 49.8693C151.148 49.8693 150.526 49.7083 149.973 49.3864C149.424 49.0606 148.989 48.5814 148.667 47.9489C148.348 47.3125 148.189 46.5303 148.189 45.6023C148.189 44.6742 148.346 43.8788 148.661 43.2159C148.979 42.553 149.415 42.0455 149.968 41.6932C150.521 41.3371 151.148 41.1591 151.848 41.1591C152.39 41.1591 152.828 41.25 153.161 41.4318C153.494 41.6098 153.754 41.8182 153.939 42.0568C154.129 42.2955 154.275 42.5057 154.377 42.6875H154.502V41.2727H156.167V50.1932C156.167 50.9432 155.992 51.5587 155.644 52.0398C155.295 52.5208 154.824 52.8769 154.229 53.108C153.638 53.339 152.971 53.4545 152.229 53.4545ZM152.212 48.4602C152.701 48.4602 153.114 48.3466 153.451 48.1193C153.792 47.8883 154.049 47.5587 154.223 47.1307C154.401 46.6989 154.49 46.1818 154.49 45.5795C154.49 44.9924 154.403 44.4754 154.229 44.0284C154.055 43.5814 153.799 43.233 153.462 42.983C153.125 42.7292 152.708 42.6023 152.212 42.6023C151.701 42.6023 151.275 42.7348 150.934 43C150.593 43.2614 150.335 43.6174 150.161 44.0682C149.99 44.5189 149.905 45.0227 149.905 45.5795C149.905 46.1515 149.992 46.6534 150.167 47.0852C150.341 47.517 150.598 47.8542 150.939 48.0966C151.284 48.339 151.708 48.4602 152.212 48.4602ZM162.03 50.1761C161.17 50.1761 160.43 49.9924 159.809 49.625C159.191 49.2538 158.714 48.733 158.377 48.0625C158.044 47.3883 157.877 46.5985 157.877 45.6932C157.877 44.7992 158.044 44.0114 158.377 43.3295C158.714 42.6477 159.184 42.1155 159.786 41.733C160.392 41.3504 161.1 41.1591 161.911 41.1591C162.403 41.1591 162.881 41.2405 163.343 41.4034C163.805 41.5663 164.22 41.822 164.587 42.1705C164.955 42.5189 165.244 42.9716 165.456 43.5284C165.669 44.0814 165.775 44.7538 165.775 45.5455V46.1477H158.837V44.875H164.11C164.11 44.428 164.019 44.0322 163.837 43.6875C163.655 43.339 163.4 43.0644 163.07 42.8636C162.744 42.6629 162.362 42.5625 161.922 42.5625C161.445 42.5625 161.028 42.6799 160.672 42.9148C160.32 43.1458 160.047 43.4489 159.854 43.8239C159.665 44.1951 159.57 44.5985 159.57 45.0341V46.0284C159.57 46.6117 159.672 47.108 159.877 47.517C160.085 47.9261 160.375 48.2386 160.746 48.4545C161.117 48.6667 161.551 48.7727 162.047 48.7727C162.369 48.7727 162.663 48.7273 162.928 48.6364C163.193 48.5417 163.422 48.4015 163.616 48.2159C163.809 48.0303 163.956 47.8011 164.059 47.5284L165.667 47.8182C165.538 48.2917 165.307 48.7064 164.974 49.0625C164.644 49.4148 164.229 49.6894 163.729 49.8864C163.233 50.0795 162.667 50.1761 162.03 50.1761Z" fill="#583D00" style="fill:#583D00;fill:color(display-p3 0.3459 0.2401 0.0000);fill-opacity:1;"/>
<rect x="250" y="2" width="176" height="84" rx="42" fill="#F9FFE5" stroke="#FFB100" style="fill:#F9FFE5;fill:color(display-p3 0.9762 1.0000 0.8980);fill-opacity:1;stroke:#FFB100;stroke:color(display-p3 1.0000 0.6941 0.0000);stroke-opacity:1;" stroke-width="4" stroke-linecap="round"/>
<path d="M276.809 38L273.581 26.3636H275.428L277.695 35.375H277.803L280.161 26.3636H281.99L284.348 35.3807H284.456L286.718 26.3636H288.57L285.337 38H283.57L281.121 29.2841H281.03L278.581 38H276.809ZM292.675 38.1761C291.857 38.1761 291.143 37.9886 290.533 37.6136C289.923 37.2386 289.45 36.714 289.113 36.0398C288.776 35.3655 288.607 34.5777 288.607 33.6761C288.607 32.7708 288.776 31.9792 289.113 31.3011C289.45 30.6231 289.923 30.0966 290.533 29.7216C291.143 29.3466 291.857 29.1591 292.675 29.1591C293.493 29.1591 294.207 29.3466 294.817 29.7216C295.427 30.0966 295.901 30.6231 296.238 31.3011C296.575 31.9792 296.743 32.7708 296.743 33.6761C296.743 34.5777 296.575 35.3655 296.238 36.0398C295.901 36.714 295.427 37.2386 294.817 37.6136C294.207 37.9886 293.493 38.1761 292.675 38.1761ZM292.681 36.75C293.211 36.75 293.651 36.6098 293.999 36.3295C294.348 36.0492 294.605 35.6761 294.772 35.2102C294.942 34.7443 295.027 34.2311 295.027 33.6705C295.027 33.1136 294.942 32.6023 294.772 32.1364C294.605 31.6667 294.348 31.2898 293.999 31.0057C293.651 30.7216 293.211 30.5795 292.681 30.5795C292.147 30.5795 291.704 30.7216 291.351 31.0057C291.003 31.2898 290.743 31.6667 290.573 32.1364C290.406 32.6023 290.323 33.1136 290.323 33.6705C290.323 34.2311 290.406 34.7443 290.573 35.2102C290.743 35.6761 291.003 36.0492 291.351 36.3295C291.704 36.6098 292.147 36.75 292.681 36.75ZM298.464 38V29.2727H300.106V30.6591H300.197C300.356 30.1894 300.636 29.8201 301.038 29.5511C301.443 29.2784 301.901 29.142 302.413 29.142C302.519 29.142 302.644 29.1458 302.788 29.1534C302.935 29.161 303.051 29.1705 303.134 29.1818V30.8068C303.066 30.7879 302.945 30.767 302.77 30.7443C302.596 30.7178 302.422 30.7045 302.248 30.7045C301.846 30.7045 301.488 30.7898 301.174 30.9602C300.863 31.1269 300.617 31.3598 300.435 31.6591C300.253 31.9545 300.163 32.2917 300.163 32.6705V38H298.464ZM305.991 35.0398L305.979 32.9659H306.275L309.752 29.2727H311.786L307.82 33.4773H307.553L305.991 35.0398ZM304.428 38V26.3636H306.127V38H304.428ZM309.94 38L306.815 33.8523L307.985 32.6648L312.025 38H309.94ZM316.561 38.1761C315.701 38.1761 314.96 37.9924 314.339 37.625C313.722 37.2538 313.244 36.733 312.907 36.0625C312.574 35.3883 312.407 34.5985 312.407 33.6932C312.407 32.7992 312.574 32.0114 312.907 31.3295C313.244 30.6477 313.714 30.1155 314.316 29.733C314.922 29.3504 315.631 29.1591 316.441 29.1591C316.934 29.1591 317.411 29.2405 317.873 29.4034C318.335 29.5663 318.75 29.822 319.117 30.1705C319.485 30.5189 319.775 30.9716 319.987 31.5284C320.199 32.0814 320.305 32.7538 320.305 33.5455V34.1477H313.367V32.875H318.64C318.64 32.428 318.549 32.0322 318.367 31.6875C318.186 31.339 317.93 31.0644 317.6 30.8636C317.275 30.6629 316.892 30.5625 316.453 30.5625C315.975 30.5625 315.559 30.6799 315.203 30.9148C314.85 31.1458 314.578 31.4489 314.384 31.8239C314.195 32.1951 314.1 32.5985 314.1 33.0341V34.0284C314.1 34.6117 314.203 35.108 314.407 35.517C314.615 35.9261 314.905 36.2386 315.276 36.4545C315.648 36.6667 316.081 36.7727 316.578 36.7727C316.9 36.7727 317.193 36.7273 317.458 36.6364C317.723 36.5417 317.953 36.4015 318.146 36.2159C318.339 36.0303 318.487 35.8011 318.589 35.5284L320.197 35.8182C320.068 36.2917 319.837 36.7064 319.504 37.0625C319.174 37.4148 318.759 37.6894 318.259 37.8864C317.763 38.0795 317.197 38.1761 316.561 38.1761ZM322.014 38V29.2727H323.656V30.6591H323.747C323.906 30.1894 324.186 29.8201 324.588 29.5511C324.993 29.2784 325.451 29.142 325.963 29.142C326.069 29.142 326.194 29.1458 326.338 29.1534C326.485 29.161 326.601 29.1705 326.684 29.1818V30.8068C326.616 30.7879 326.495 30.767 326.321 30.7443C326.146 30.7178 325.972 30.7045 325.798 30.7045C325.396 30.7045 325.038 30.7898 324.724 30.9602C324.413 31.1269 324.167 31.3598 323.985 31.6591C323.804 31.9545 323.713 32.2917 323.713 32.6705V38H322.014ZM335.713 38.1761C334.868 38.1761 334.141 37.9848 333.531 37.6023C332.925 37.2159 332.459 36.6837 332.133 36.0057C331.808 35.3277 331.645 34.5511 331.645 33.6761C331.645 32.7898 331.811 32.0076 332.145 31.3295C332.478 30.6477 332.948 30.1155 333.554 29.733C334.16 29.3504 334.874 29.1591 335.696 29.1591C336.359 29.1591 336.95 29.2822 337.469 29.5284C337.988 29.7708 338.406 30.1117 338.724 30.5511C339.046 30.9905 339.238 31.5038 339.298 32.0909H337.645C337.554 31.6818 337.346 31.3295 337.02 31.0341C336.698 30.7386 336.266 30.5909 335.724 30.5909C335.251 30.5909 334.836 30.7159 334.48 30.9659C334.128 31.2121 333.853 31.5644 333.656 32.0227C333.459 32.4773 333.361 33.0152 333.361 33.6364C333.361 34.2727 333.457 34.822 333.65 35.2841C333.844 35.7462 334.116 36.1042 334.469 36.358C334.825 36.6117 335.243 36.7386 335.724 36.7386C336.046 36.7386 336.338 36.6799 336.599 36.5625C336.864 36.4413 337.086 36.2689 337.264 36.0455C337.446 35.822 337.573 35.553 337.645 35.2386H339.298C339.238 35.803 339.054 36.3068 338.747 36.75C338.44 37.1932 338.029 37.5417 337.514 37.7955C337.003 38.0492 336.402 38.1761 335.713 38.1761ZM342.638 32.8182V38H340.939V26.3636H342.615V30.6932H342.723C342.928 30.2235 343.24 29.8504 343.661 29.5739C344.081 29.2973 344.63 29.1591 345.308 29.1591C345.907 29.1591 346.429 29.2822 346.876 29.5284C347.327 29.7746 347.676 30.142 347.922 30.6307C348.172 31.1155 348.297 31.7216 348.297 32.4489V38H346.598V32.6534C346.598 32.0133 346.433 31.517 346.104 31.1648C345.774 30.8087 345.316 30.6307 344.729 30.6307C344.327 30.6307 343.967 30.7159 343.649 30.8864C343.335 31.0568 343.087 31.3068 342.905 31.6364C342.727 31.9621 342.638 32.3561 342.638 32.8182ZM354.149 38.1761C353.289 38.1761 352.549 37.9924 351.928 37.625C351.31 37.2538 350.833 36.733 350.496 36.0625C350.163 35.3883 349.996 34.5985 349.996 33.6932C349.996 32.7992 350.163 32.0114 350.496 31.3295C350.833 30.6477 351.303 30.1155 351.905 29.733C352.511 29.3504 353.219 29.1591 354.03 29.1591C354.522 29.1591 355 29.2405 355.462 29.4034C355.924 29.5663 356.339 29.822 356.706 30.1705C357.074 30.5189 357.363 30.9716 357.575 31.5284C357.788 32.0814 357.894 32.7538 357.894 33.5455V34.1477H350.956V32.875H356.229C356.229 32.428 356.138 32.0322 355.956 31.6875C355.774 31.339 355.519 31.0644 355.189 30.8636C354.863 30.6629 354.481 30.5625 354.041 30.5625C353.564 30.5625 353.147 30.6799 352.791 30.9148C352.439 31.1458 352.166 31.4489 351.973 31.8239C351.784 32.1951 351.689 32.5985 351.689 33.0341V34.0284C351.689 34.6117 351.791 35.108 351.996 35.517C352.204 35.9261 352.494 36.2386 352.865 36.4545C353.236 36.6667 353.67 36.7727 354.166 36.7727C354.488 36.7727 354.782 36.7273 355.047 36.6364C355.312 36.5417 355.541 36.4015 355.735 36.2159C355.928 36.0303 356.075 35.8011 356.178 35.5284L357.786 35.8182C357.657 36.2917 357.426 36.7064 357.092 37.0625C356.763 37.4148 356.348 37.6894 355.848 37.8864C355.352 38.0795 354.786 38.1761 354.149 38.1761ZM363.279 38.1761C362.434 38.1761 361.707 37.9848 361.097 37.6023C360.491 37.2159 360.025 36.6837 359.699 36.0057C359.373 35.3277 359.21 34.5511 359.21 33.6761C359.21 32.7898 359.377 32.0076 359.71 31.3295C360.044 30.6477 360.514 30.1155 361.12 29.733C361.726 29.3504 362.44 29.1591 363.262 29.1591C363.925 29.1591 364.515 29.2822 365.034 29.5284C365.553 29.7708 365.972 30.1117 366.29 30.5511C366.612 30.9905 366.803 31.5038 366.864 32.0909H365.21C365.12 31.6818 364.911 31.3295 364.585 31.0341C364.264 30.7386 363.832 30.5909 363.29 30.5909C362.817 30.5909 362.402 30.7159 362.046 30.9659C361.693 31.2121 361.419 31.5644 361.222 32.0227C361.025 32.4773 360.926 33.0152 360.926 33.6364C360.926 34.2727 361.023 34.822 361.216 35.2841C361.409 35.7462 361.682 36.1042 362.034 36.358C362.39 36.6117 362.809 36.7386 363.29 36.7386C363.612 36.7386 363.904 36.6799 364.165 36.5625C364.43 36.4413 364.652 36.2689 364.83 36.0455C365.012 35.822 365.139 35.553 365.21 35.2386H366.864C366.803 35.803 366.62 36.3068 366.313 36.75C366.006 37.1932 365.595 37.5417 365.08 37.7955C364.568 38.0492 363.968 38.1761 363.279 38.1761ZM370.067 35.0398L370.056 32.9659H370.351L373.829 29.2727H375.863L371.897 33.4773H371.63L370.067 35.0398ZM368.505 38V26.3636H370.204V38H368.505ZM374.016 38L370.891 33.8523L372.061 32.6648L376.101 38H374.016ZM383.775 31.4034L382.235 31.6761C382.171 31.4792 382.068 31.2917 381.928 31.1136C381.792 30.9356 381.606 30.7898 381.371 30.6761C381.136 30.5625 380.843 30.5057 380.491 30.5057C380.01 30.5057 379.608 30.6136 379.286 30.8295C378.964 31.0417 378.803 31.3163 378.803 31.6534C378.803 31.9451 378.911 32.1799 379.127 32.358C379.343 32.536 379.691 32.6818 380.172 32.7955L381.559 33.1136C382.362 33.2992 382.96 33.5852 383.354 33.9716C383.748 34.358 383.945 34.8598 383.945 35.4773C383.945 36 383.794 36.4659 383.491 36.875C383.191 37.2803 382.773 37.5985 382.235 37.8295C381.701 38.0606 381.082 38.1761 380.377 38.1761C379.4 38.1761 378.602 37.9678 377.985 37.5511C377.367 37.1307 376.989 36.5341 376.849 35.7614L378.491 35.5114C378.593 35.9394 378.803 36.2633 379.121 36.483C379.439 36.6989 379.854 36.8068 380.366 36.8068C380.922 36.8068 381.367 36.6913 381.701 36.4602C382.034 36.2254 382.201 35.9394 382.201 35.6023C382.201 35.3295 382.099 35.1004 381.894 34.9148C381.693 34.7292 381.385 34.589 380.968 34.4943L379.491 34.1705C378.676 33.9848 378.074 33.6894 377.684 33.2841C377.297 32.8788 377.104 32.3655 377.104 31.7443C377.104 31.2292 377.248 30.7784 377.536 30.392C377.824 30.0057 378.222 29.7045 378.729 29.4886C379.237 29.2689 379.818 29.1591 380.474 29.1591C381.417 29.1591 382.159 29.3636 382.701 29.7727C383.242 30.178 383.6 30.7216 383.775 31.4034ZM391.587 26.3636V38H389.832V26.3636H391.587ZM393.968 38V26.3636H398.116C399.021 26.3636 399.771 26.5284 400.366 26.858C400.961 27.1875 401.406 27.6383 401.701 28.2102C401.997 28.7784 402.144 29.4186 402.144 30.1307C402.144 30.8466 401.995 31.4905 401.696 32.0625C401.4 32.6307 400.953 33.0814 400.355 33.4148C399.76 33.7443 399.012 33.9091 398.11 33.9091H395.258V32.4205H397.951C398.523 32.4205 398.987 32.322 399.343 32.125C399.699 31.9242 399.961 31.6515 400.127 31.3068C400.294 30.9621 400.377 30.5701 400.377 30.1307C400.377 29.6913 400.294 29.3011 400.127 28.9602C399.961 28.6193 399.697 28.3523 399.338 28.1591C398.982 27.9659 398.512 27.8693 397.929 27.8693H395.724V38H393.968ZM299.645 50.3636V62H297.946V50.3636H299.645ZM301.754 62V53.2727H303.453V62H301.754ZM302.612 51.9261C302.317 51.9261 302.063 51.8277 301.851 51.6307C301.643 51.4299 301.538 51.1913 301.538 50.9148C301.538 50.6345 301.643 50.3958 301.851 50.1989C302.063 49.9981 302.317 49.8977 302.612 49.8977C302.908 49.8977 303.16 49.9981 303.368 50.1989C303.58 50.3958 303.686 50.6345 303.686 50.9148C303.686 51.1913 303.58 51.4299 303.368 51.6307C303.16 51.8277 302.908 51.9261 302.612 51.9261ZM305.563 62V53.2727H307.193V54.6932H307.301C307.483 54.2121 307.781 53.8371 308.193 53.5682C308.606 53.2955 309.101 53.1591 309.676 53.1591C310.26 53.1591 310.748 53.2955 311.142 53.5682C311.54 53.8409 311.834 54.2159 312.023 54.6932H312.114C312.322 54.2273 312.654 53.8561 313.108 53.5795C313.563 53.2992 314.104 53.1591 314.733 53.1591C315.525 53.1591 316.171 53.4072 316.671 53.9034C317.174 54.3996 317.426 55.1477 317.426 56.1477V62H315.728V56.3068C315.728 55.7159 315.567 55.2879 315.245 55.0227C314.923 54.7576 314.538 54.625 314.091 54.625C313.538 54.625 313.108 54.7955 312.801 55.1364C312.495 55.4735 312.341 55.9072 312.341 56.4375V62H310.648V56.1989C310.648 55.7254 310.5 55.3447 310.205 55.0568C309.909 54.7689 309.525 54.625 309.051 54.625C308.729 54.625 308.432 54.7102 308.159 54.8807C307.89 55.0473 307.673 55.2803 307.506 55.5795C307.343 55.8788 307.262 56.2254 307.262 56.6193V62H305.563ZM319.527 62V53.2727H321.226V62H319.527ZM320.385 51.9261C320.09 51.9261 319.836 51.8277 319.624 51.6307C319.416 51.4299 319.311 51.1913 319.311 50.9148C319.311 50.6345 319.416 50.3958 319.624 50.1989C319.836 49.9981 320.09 49.8977 320.385 49.8977C320.681 49.8977 320.933 49.9981 321.141 50.1989C321.353 50.3958 321.459 50.6345 321.459 50.9148C321.459 51.1913 321.353 51.4299 321.141 51.6307C320.933 51.8277 320.681 51.9261 320.385 51.9261ZM327.41 53.2727V54.6364H322.643V53.2727H327.41ZM323.921 51.1818H325.62V59.4375C325.62 59.767 325.669 60.0152 325.768 60.1818C325.866 60.3447 325.993 60.4564 326.148 60.517C326.307 60.5739 326.48 60.6023 326.665 60.6023C326.802 60.6023 326.921 60.5928 327.023 60.5739C327.126 60.5549 327.205 60.5398 327.262 60.5284L327.569 61.9318C327.47 61.9697 327.33 62.0076 327.148 62.0455C326.966 62.0871 326.739 62.1098 326.466 62.1136C326.019 62.1212 325.603 62.0417 325.216 61.875C324.83 61.7083 324.518 61.4508 324.279 61.1023C324.04 60.7538 323.921 60.3163 323.921 59.7898V51.1818ZM335.512 55.4034L333.972 55.6761C333.908 55.4792 333.806 55.2917 333.665 55.1136C333.529 54.9356 333.343 54.7898 333.109 54.6761C332.874 54.5625 332.58 54.5057 332.228 54.5057C331.747 54.5057 331.345 54.6136 331.023 54.8295C330.701 55.0417 330.54 55.3163 330.54 55.6534C330.54 55.9451 330.648 56.1799 330.864 56.358C331.08 56.536 331.429 56.6818 331.91 56.7955L333.296 57.1136C334.099 57.2992 334.698 57.5852 335.092 57.9716C335.485 58.358 335.682 58.8598 335.682 59.4773C335.682 60 335.531 60.4659 335.228 60.875C334.929 61.2803 334.51 61.5985 333.972 61.8295C333.438 62.0606 332.819 62.1761 332.114 62.1761C331.137 62.1761 330.34 61.9678 329.722 61.5511C329.105 61.1307 328.726 60.5341 328.586 59.7614L330.228 59.5114C330.33 59.9394 330.54 60.2633 330.859 60.483C331.177 60.6989 331.592 60.8068 332.103 60.8068C332.66 60.8068 333.105 60.6913 333.438 60.4602C333.771 60.2254 333.938 59.9394 333.938 59.6023C333.938 59.3295 333.836 59.1004 333.631 58.9148C333.431 58.7292 333.122 58.589 332.705 58.4943L331.228 58.1705C330.414 57.9848 329.811 57.6894 329.421 57.2841C329.035 56.8788 328.842 56.3655 328.842 55.7443C328.842 55.2292 328.985 54.7784 329.273 54.392C329.561 54.0057 329.959 53.7045 330.467 53.4886C330.974 53.2689 331.556 53.1591 332.211 53.1591C333.154 53.1591 333.896 53.3636 334.438 53.7727C334.98 54.178 335.338 54.7216 335.512 55.4034ZM341.433 62V53.2727H343.132V62H341.433ZM342.291 51.9261C341.995 51.9261 341.741 51.8277 341.529 51.6307C341.321 51.4299 341.217 51.1913 341.217 50.9148C341.217 50.6345 341.321 50.3958 341.529 50.1989C341.741 49.9981 341.995 49.8977 342.291 49.8977C342.586 49.8977 342.838 49.9981 343.046 50.1989C343.258 50.3958 343.365 50.6345 343.365 50.9148C343.365 51.1913 343.258 51.4299 343.046 51.6307C342.838 51.8277 342.586 51.9261 342.291 51.9261ZM346.94 56.8182V62H345.241V53.2727H346.872V54.6932H346.98C347.18 54.2311 347.495 53.8598 347.923 53.5795C348.355 53.2992 348.898 53.1591 349.554 53.1591C350.148 53.1591 350.669 53.2841 351.116 53.5341C351.563 53.7803 351.91 54.1477 352.156 54.6364C352.402 55.125 352.525 55.7292 352.525 56.4489V62H350.826V56.6534C350.826 56.0208 350.662 55.5265 350.332 55.1705C350.002 54.8106 349.55 54.6307 348.974 54.6307C348.58 54.6307 348.23 54.7159 347.923 54.8864C347.62 55.0568 347.379 55.3068 347.201 55.6364C347.027 55.9621 346.94 56.3561 346.94 56.8182ZM358.822 62V50.3636H360.578V55.9205H360.72L365.601 50.3636H367.811L363.118 55.6023L367.828 62H365.714L361.953 56.8011L360.578 58.3807V62H358.822ZM370.288 50.3636L373.527 59.8409H373.658L376.896 50.3636H378.794L374.607 62H372.578L368.391 50.3636H370.288Z" fill="#583D00" style="fill:#583D00;fill:color(display-p3 0.3459 0.2401 0.0000);fill-opacity:1;"/>
<path d="M183.5 43C182.948 43 182.5 43.4477 182.5 44C182.5 44.5523 182.948 45 183.5 45V44V43ZM245.207 44.7071C245.598 44.3166 245.598 43.6834 245.207 43.2929L238.843 36.9289C238.453 36.5384 237.819 36.5384 237.429 36.9289C237.038 37.3195 237.038 37.9526 237.429 38.3431L243.086 44L237.429 49.6569C237.038 50.0474 237.038 50.6805 237.429 51.0711C237.819 51.4616 238.453 51.4616 238.843 51.0711L245.207 44.7071ZM183.5 44V45H244.5V44V43H183.5V44Z" fill="#757575" style="fill:#757575;fill:color(display-p3 0.4588 0.4588 0.4588);fill-opacity:1;"/>
<rect x="506" y="2" width="176" height="84" rx="42" fill="#F9FFE5" stroke="#FFB100" style="fill:#F9FFE5;fill:color(display-p3 0.9762 1.0000 0.8980);fill-opacity:1;stroke:#FFB100;stroke:color(display-p3 1.0000 0.6941 0.0000);stroke-opacity:1;" stroke-width="4" stroke-linecap="round"/>
<path d="M530.918 38L527.691 26.3636H529.537L531.804 35.375H531.912L534.27 26.3636H536.1L538.458 35.3807H538.566L540.827 26.3636H542.679L539.446 38H537.679L535.23 29.2841H535.14L532.691 38H530.918ZM546.785 38.1761C545.966 38.1761 545.252 37.9886 544.643 37.6136C544.033 37.2386 543.559 36.714 543.222 36.0398C542.885 35.3655 542.716 34.5777 542.716 33.6761C542.716 32.7708 542.885 31.9792 543.222 31.3011C543.559 30.6231 544.033 30.0966 544.643 29.7216C545.252 29.3466 545.966 29.1591 546.785 29.1591C547.603 29.1591 548.317 29.3466 548.927 29.7216C549.536 30.0966 550.01 30.6231 550.347 31.3011C550.684 31.9792 550.853 32.7708 550.853 33.6761C550.853 34.5777 550.684 35.3655 550.347 36.0398C550.01 36.714 549.536 37.2386 548.927 37.6136C548.317 37.9886 547.603 38.1761 546.785 38.1761ZM546.79 36.75C547.321 36.75 547.76 36.6098 548.108 36.3295C548.457 36.0492 548.714 35.6761 548.881 35.2102C549.052 34.7443 549.137 34.2311 549.137 33.6705C549.137 33.1136 549.052 32.6023 548.881 32.1364C548.714 31.6667 548.457 31.2898 548.108 31.0057C547.76 30.7216 547.321 30.5795 546.79 30.5795C546.256 30.5795 545.813 30.7216 545.461 31.0057C545.112 31.2898 544.853 31.6667 544.682 32.1364C544.516 32.6023 544.432 33.1136 544.432 33.6705C544.432 34.2311 544.516 34.7443 544.682 35.2102C544.853 35.6761 545.112 36.0492 545.461 36.3295C545.813 36.6098 546.256 36.75 546.79 36.75ZM552.573 38V29.2727H554.215V30.6591H554.306C554.465 30.1894 554.745 29.8201 555.147 29.5511C555.552 29.2784 556.011 29.142 556.522 29.142C556.628 29.142 556.753 29.1458 556.897 29.1534C557.045 29.161 557.16 29.1705 557.243 29.1818V30.8068C557.175 30.7879 557.054 30.767 556.88 30.7443C556.706 30.7178 556.531 30.7045 556.357 30.7045C555.956 30.7045 555.598 30.7898 555.283 30.9602C554.973 31.1269 554.726 31.3598 554.545 31.6591C554.363 31.9545 554.272 32.2917 554.272 32.6705V38H552.573ZM560.1 35.0398L560.089 32.9659H560.384L563.862 29.2727H565.896L561.93 33.4773H561.663L560.1 35.0398ZM558.538 38V26.3636H560.237V38H558.538ZM564.049 38L560.924 33.8523L562.094 32.6648L566.134 38H564.049ZM570.67 38.1761C569.81 38.1761 569.07 37.9924 568.448 37.625C567.831 37.2538 567.354 36.733 567.016 36.0625C566.683 35.3883 566.516 34.5985 566.516 33.6932C566.516 32.7992 566.683 32.0114 567.016 31.3295C567.354 30.6477 567.823 30.1155 568.426 29.733C569.032 29.3504 569.74 29.1591 570.551 29.1591C571.043 29.1591 571.52 29.2405 571.982 29.4034C572.445 29.5663 572.859 29.822 573.227 30.1705C573.594 30.5189 573.884 30.9716 574.096 31.5284C574.308 32.0814 574.414 32.7538 574.414 33.5455V34.1477H567.477V32.875H572.749C572.749 32.428 572.659 32.0322 572.477 31.6875C572.295 31.339 572.039 31.0644 571.71 30.8636C571.384 30.6629 571.001 30.5625 570.562 30.5625C570.085 30.5625 569.668 30.6799 569.312 30.9148C568.96 31.1458 568.687 31.4489 568.494 31.8239C568.304 32.1951 568.21 32.5985 568.21 33.0341V34.0284C568.21 34.6117 568.312 35.108 568.516 35.517C568.725 35.9261 569.015 36.2386 569.386 36.4545C569.757 36.6667 570.191 36.7727 570.687 36.7727C571.009 36.7727 571.302 36.7273 571.568 36.6364C571.833 36.5417 572.062 36.4015 572.255 36.2159C572.448 36.0303 572.596 35.8011 572.698 35.5284L574.306 35.8182C574.177 36.2917 573.946 36.7064 573.613 37.0625C573.284 37.4148 572.869 37.6894 572.369 37.8864C571.873 38.0795 571.306 38.1761 570.67 38.1761ZM576.123 38V29.2727H577.765V30.6591H577.856C578.015 30.1894 578.296 29.8201 578.697 29.5511C579.102 29.2784 579.561 29.142 580.072 29.142C580.178 29.142 580.303 29.1458 580.447 29.1534C580.595 29.161 580.71 29.1705 580.794 29.1818V30.8068C580.725 30.7879 580.604 30.767 580.43 30.7443C580.256 30.7178 580.081 30.7045 579.907 30.7045C579.506 30.7045 579.148 30.7898 578.833 30.9602C578.523 31.1269 578.277 31.3598 578.095 31.6591C577.913 31.9545 577.822 32.2917 577.822 32.6705V38H576.123ZM589.805 41.4545C589.112 41.4545 588.515 41.3636 588.015 41.1818C587.519 41 587.114 40.7595 586.8 40.4602C586.485 40.161 586.25 39.8333 586.095 39.4773L587.555 38.875C587.658 39.0417 587.794 39.2178 587.964 39.4034C588.139 39.5928 588.373 39.7538 588.669 39.8864C588.968 40.0189 589.353 40.0852 589.822 40.0852C590.466 40.0852 590.998 39.928 591.419 39.6136C591.839 39.303 592.05 38.8068 592.05 38.125V36.4091H591.942C591.839 36.5947 591.692 36.8011 591.498 37.0284C591.309 37.2557 591.048 37.4527 590.714 37.6193C590.381 37.786 589.947 37.8693 589.413 37.8693C588.724 37.8693 588.103 37.7083 587.55 37.3864C587 37.0606 586.565 36.5814 586.243 35.9489C585.925 35.3125 585.765 34.5303 585.765 33.6023C585.765 32.6742 585.923 31.8788 586.237 31.2159C586.555 30.553 586.991 30.0455 587.544 29.6932C588.097 29.3371 588.724 29.1591 589.425 29.1591C589.966 29.1591 590.404 29.25 590.737 29.4318C591.07 29.6098 591.33 29.8182 591.515 30.0568C591.705 30.2955 591.851 30.5057 591.953 30.6875H592.078V29.2727H593.743V38.1932C593.743 38.9432 593.569 39.5587 593.22 40.0398C592.872 40.5208 592.4 40.8769 591.805 41.108C591.214 41.339 590.548 41.4545 589.805 41.4545ZM589.788 36.4602C590.277 36.4602 590.69 36.3466 591.027 36.1193C591.368 35.8883 591.625 35.5587 591.8 35.1307C591.978 34.6989 592.067 34.1818 592.067 33.5795C592.067 32.9924 591.979 32.4754 591.805 32.0284C591.631 31.5814 591.375 31.233 591.038 30.983C590.701 30.7292 590.284 30.6023 589.788 30.6023C589.277 30.6023 588.851 30.7348 588.51 31C588.169 31.2614 587.911 31.6174 587.737 32.0682C587.567 32.5189 587.481 33.0227 587.481 33.5795C587.481 34.1515 587.569 34.6534 587.743 35.0852C587.917 35.517 588.175 35.8542 588.515 36.0966C588.86 36.339 589.284 36.4602 589.788 36.4602ZM599.607 38.1761C598.747 38.1761 598.006 37.9924 597.385 37.625C596.768 37.2538 596.29 36.733 595.953 36.0625C595.62 35.3883 595.453 34.5985 595.453 33.6932C595.453 32.7992 595.62 32.0114 595.953 31.3295C596.29 30.6477 596.76 30.1155 597.362 29.733C597.968 29.3504 598.677 29.1591 599.487 29.1591C599.98 29.1591 600.457 29.2405 600.919 29.4034C601.381 29.5663 601.796 29.822 602.163 30.1705C602.531 30.5189 602.821 30.9716 603.033 31.5284C603.245 32.0814 603.351 32.7538 603.351 33.5455V34.1477H596.413V32.875H601.686C601.686 32.428 601.595 32.0322 601.413 31.6875C601.232 31.339 600.976 31.0644 600.646 30.8636C600.321 30.6629 599.938 30.5625 599.499 30.5625C599.021 30.5625 598.605 30.6799 598.249 30.9148C597.896 31.1458 597.624 31.4489 597.43 31.8239C597.241 32.1951 597.146 32.5985 597.146 33.0341V34.0284C597.146 34.6117 597.249 35.108 597.453 35.517C597.661 35.9261 597.951 36.2386 598.322 36.4545C598.694 36.6667 599.127 36.7727 599.624 36.7727C599.946 36.7727 600.239 36.7273 600.504 36.6364C600.769 36.5417 600.999 36.4015 601.192 36.2159C601.385 36.0303 601.533 35.8011 601.635 35.5284L603.243 35.8182C603.114 36.2917 602.883 36.7064 602.55 37.0625C602.22 37.4148 601.805 37.6894 601.305 37.8864C600.809 38.0795 600.243 38.1761 599.607 38.1761ZM606.759 32.8182V38H605.06V29.2727H606.69V30.6932H606.798C606.999 30.2311 607.314 29.8598 607.742 29.5795C608.173 29.2992 608.717 29.1591 609.372 29.1591C609.967 29.1591 610.488 29.2841 610.935 29.5341C611.382 29.7803 611.728 30.1477 611.975 30.6364C612.221 31.125 612.344 31.7292 612.344 32.4489V38H610.645V32.6534C610.645 32.0208 610.48 31.5265 610.151 31.1705C609.821 30.8106 609.369 30.6307 608.793 30.6307C608.399 30.6307 608.048 30.7159 607.742 30.8864C607.439 31.0568 607.198 31.3068 607.02 31.6364C606.846 31.9621 606.759 32.3561 606.759 32.8182ZM618.208 38.1761C617.348 38.1761 616.607 37.9924 615.986 37.625C615.369 37.2538 614.891 36.733 614.554 36.0625C614.221 35.3883 614.054 34.5985 614.054 33.6932C614.054 32.7992 614.221 32.0114 614.554 31.3295C614.891 30.6477 615.361 30.1155 615.963 29.733C616.569 29.3504 617.278 29.1591 618.088 29.1591C618.581 29.1591 619.058 29.2405 619.52 29.4034C619.982 29.5663 620.397 29.822 620.764 30.1705C621.132 30.5189 621.422 30.9716 621.634 31.5284C621.846 32.0814 621.952 32.7538 621.952 33.5455V34.1477H615.014V32.875H620.287C620.287 32.428 620.196 32.0322 620.014 31.6875C619.833 31.339 619.577 31.0644 619.247 30.8636C618.922 30.6629 618.539 30.5625 618.1 30.5625C617.622 30.5625 617.206 30.6799 616.85 30.9148C616.497 31.1458 616.225 31.4489 616.032 31.8239C615.842 32.1951 615.747 32.5985 615.747 33.0341V34.0284C615.747 34.6117 615.85 35.108 616.054 35.517C616.263 35.9261 616.552 36.2386 616.924 36.4545C617.295 36.6667 617.728 36.7727 618.225 36.7727C618.547 36.7727 618.84 36.7273 619.105 36.6364C619.371 36.5417 619.6 36.4015 619.793 36.2159C619.986 36.0303 620.134 35.8011 620.236 35.5284L621.844 35.8182C621.715 36.2917 621.484 36.7064 621.151 37.0625C620.821 37.4148 620.407 37.6894 619.907 37.8864C619.41 38.0795 618.844 38.1761 618.208 38.1761ZM623.661 38V29.2727H625.303V30.6591H625.394C625.553 30.1894 625.833 29.8201 626.235 29.5511C626.64 29.2784 627.098 29.142 627.61 29.142C627.716 29.142 627.841 29.1458 627.985 29.1534C628.133 29.161 628.248 29.1705 628.331 29.1818V30.8068C628.263 30.7879 628.142 30.767 627.968 30.7443C627.793 30.7178 627.619 30.7045 627.445 30.7045C627.043 30.7045 626.686 30.7898 626.371 30.9602C626.061 31.1269 625.814 31.3598 625.633 31.6591C625.451 31.9545 625.36 32.2917 625.36 32.6705V38H623.661ZM632.087 38.1932C631.534 38.1932 631.034 38.0909 630.587 37.8864C630.14 37.678 629.786 37.3769 629.525 36.983C629.267 36.589 629.138 36.1061 629.138 35.5341C629.138 35.0417 629.233 34.6364 629.422 34.3182C629.612 34 629.867 33.7481 630.189 33.5625C630.511 33.3769 630.871 33.2367 631.269 33.142C631.667 33.0473 632.072 32.9754 632.485 32.9261C633.008 32.8655 633.432 32.8163 633.758 32.7784C634.083 32.7367 634.32 32.6705 634.468 32.5795C634.616 32.4886 634.689 32.3409 634.689 32.1364V32.0966C634.689 31.6004 634.549 31.2159 634.269 30.9432C633.992 30.6705 633.58 30.5341 633.03 30.5341C632.458 30.5341 632.008 30.661 631.678 30.9148C631.352 31.1648 631.127 31.4432 631.002 31.75L629.405 31.3864C629.595 30.8561 629.871 30.428 630.235 30.1023C630.602 29.7727 631.025 29.5341 631.502 29.3864C631.979 29.2348 632.481 29.1591 633.008 29.1591C633.356 29.1591 633.725 29.2008 634.116 29.2841C634.51 29.3636 634.877 29.5114 635.218 29.7273C635.563 29.9432 635.845 30.2519 636.064 30.6534C636.284 31.0511 636.394 31.5682 636.394 32.2045V38H634.735V36.8068H634.667C634.557 37.0265 634.392 37.2424 634.172 37.4545C633.953 37.6667 633.671 37.8428 633.326 37.983C632.981 38.1231 632.568 38.1932 632.087 38.1932ZM632.457 36.8295C632.926 36.8295 633.328 36.7367 633.661 36.5511C633.998 36.3655 634.254 36.1231 634.428 35.8239C634.606 35.5208 634.695 35.197 634.695 34.8523V33.7273C634.635 33.7879 634.517 33.8447 634.343 33.8977C634.172 33.947 633.977 33.9905 633.758 34.0284C633.538 34.0625 633.324 34.0947 633.116 34.125C632.907 34.1515 632.733 34.1742 632.593 34.1932C632.263 34.2348 631.962 34.3049 631.689 34.4034C631.421 34.5019 631.205 34.6439 631.042 34.8295C630.883 35.0114 630.803 35.2538 630.803 35.5568C630.803 35.9773 630.958 36.2955 631.269 36.5114C631.58 36.7235 631.975 36.8295 632.457 36.8295ZM642.555 29.2727V30.6364H637.788V29.2727H642.555ZM639.066 27.1818H640.765V35.4375C640.765 35.767 640.814 36.0152 640.913 36.1818C641.011 36.3447 641.138 36.4564 641.293 36.517C641.452 36.5739 641.625 36.6023 641.81 36.6023C641.947 36.6023 642.066 36.5928 642.168 36.5739C642.271 36.5549 642.35 36.5398 642.407 36.5284L642.714 37.9318C642.615 37.9697 642.475 38.0076 642.293 38.0455C642.111 38.0871 641.884 38.1098 641.611 38.1136C641.165 38.1212 640.748 38.0417 640.361 37.875C639.975 37.7083 639.663 37.4508 639.424 37.1023C639.185 36.7538 639.066 36.3163 639.066 35.7898V27.1818ZM647.926 38.1761C647.066 38.1761 646.325 37.9924 645.704 37.625C645.087 37.2538 644.609 36.733 644.272 36.0625C643.939 35.3883 643.772 34.5985 643.772 33.6932C643.772 32.7992 643.939 32.0114 644.272 31.3295C644.609 30.6477 645.079 30.1155 645.681 29.733C646.287 29.3504 646.996 29.1591 647.806 29.1591C648.299 29.1591 648.776 29.2405 649.238 29.4034C649.7 29.5663 650.115 29.822 650.482 30.1705C650.85 30.5189 651.14 30.9716 651.352 31.5284C651.564 32.0814 651.67 32.7538 651.67 33.5455V34.1477H644.732V32.875H650.005C650.005 32.428 649.914 32.0322 649.732 31.6875C649.551 31.339 649.295 31.0644 648.965 30.8636C648.64 30.6629 648.257 30.5625 647.818 30.5625C647.34 30.5625 646.924 30.6799 646.568 30.9148C646.215 31.1458 645.943 31.4489 645.749 31.8239C645.56 32.1951 645.465 32.5985 645.465 33.0341V34.0284C645.465 34.6117 645.568 35.108 645.772 35.517C645.98 35.9261 646.27 36.2386 646.641 36.4545C647.013 36.6667 647.446 36.7727 647.943 36.7727C648.265 36.7727 648.558 36.7273 648.823 36.6364C649.088 36.5417 649.318 36.4015 649.511 36.2159C649.704 36.0303 649.852 35.8011 649.954 35.5284L651.562 35.8182C651.433 36.2917 651.202 36.7064 650.869 37.0625C650.539 37.4148 650.124 37.6894 649.624 37.8864C649.128 38.0795 648.562 38.1761 647.926 38.1761ZM659.919 31.4034L658.379 31.6761C658.314 31.4792 658.212 31.2917 658.072 31.1136C657.936 30.9356 657.75 30.7898 657.515 30.6761C657.28 30.5625 656.987 30.5057 656.634 30.5057C656.153 30.5057 655.752 30.6136 655.43 30.8295C655.108 31.0417 654.947 31.3163 654.947 31.6534C654.947 31.9451 655.055 32.1799 655.271 32.358C655.487 32.536 655.835 32.6818 656.316 32.7955L657.703 33.1136C658.506 33.2992 659.104 33.5852 659.498 33.9716C659.892 34.358 660.089 34.8598 660.089 35.4773C660.089 36 659.938 36.4659 659.634 36.875C659.335 37.2803 658.917 37.5985 658.379 37.8295C657.845 38.0606 657.225 38.1761 656.521 38.1761C655.544 38.1761 654.746 37.9678 654.129 37.5511C653.511 37.1307 653.133 36.5341 652.992 35.7614L654.634 35.5114C654.737 35.9394 654.947 36.2633 655.265 36.483C655.583 36.6989 655.998 36.8068 656.509 36.8068C657.066 36.8068 657.511 36.6913 657.845 36.4602C658.178 36.2254 658.345 35.9394 658.345 35.6023C658.345 35.3295 658.242 35.1004 658.038 34.9148C657.837 34.7292 657.528 34.589 657.112 34.4943L655.634 34.1705C654.82 33.9848 654.218 33.6894 653.828 33.2841C653.441 32.8788 653.248 32.3655 653.248 31.7443C653.248 31.2292 653.392 30.7784 653.68 30.392C653.968 30.0057 654.366 29.7045 654.873 29.4886C655.381 29.2689 655.962 29.1591 656.617 29.1591C657.561 29.1591 658.303 29.3636 658.845 29.7727C659.386 30.178 659.744 30.7216 659.919 31.4034ZM562.522 62.1761C561.677 62.1761 560.95 61.9848 560.34 61.6023C559.734 61.2159 559.268 60.6837 558.943 60.0057C558.617 59.3277 558.454 58.5511 558.454 57.6761C558.454 56.7898 558.621 56.0076 558.954 55.3295C559.287 54.6477 559.757 54.1155 560.363 53.733C560.969 53.3504 561.683 53.1591 562.505 53.1591C563.168 53.1591 563.759 53.2822 564.278 53.5284C564.797 53.7708 565.215 54.1117 565.534 54.5511C565.856 54.9905 566.047 55.5038 566.107 56.0909H564.454C564.363 55.6818 564.155 55.3295 563.829 55.0341C563.507 54.7386 563.075 54.5909 562.534 54.5909C562.06 54.5909 561.645 54.7159 561.289 54.9659C560.937 55.2121 560.662 55.5644 560.465 56.0227C560.268 56.4773 560.17 57.0152 560.17 57.6364C560.17 58.2727 560.266 58.822 560.46 59.2841C560.653 59.7462 560.926 60.1042 561.278 60.358C561.634 60.6117 562.052 60.7386 562.534 60.7386C562.856 60.7386 563.147 60.6799 563.409 60.5625C563.674 60.4413 563.895 60.2689 564.073 60.0455C564.255 59.822 564.382 59.553 564.454 59.2386H566.107C566.047 59.803 565.863 60.3068 565.556 60.75C565.249 61.1932 564.838 61.5417 564.323 61.7955C563.812 62.0492 563.212 62.1761 562.522 62.1761ZM569.447 56.8182V62H567.748V50.3636H569.424V54.6932H569.532C569.737 54.2235 570.049 53.8504 570.47 53.5739C570.89 53.2973 571.439 53.1591 572.117 53.1591C572.716 53.1591 573.239 53.2822 573.686 53.5284C574.136 53.7746 574.485 54.142 574.731 54.6307C574.981 55.1155 575.106 55.7216 575.106 56.4489V62H573.407V56.6534C573.407 56.0133 573.242 55.517 572.913 55.1648C572.583 54.8087 572.125 54.6307 571.538 54.6307C571.136 54.6307 570.777 54.7159 570.458 54.8864C570.144 55.0568 569.896 55.3068 569.714 55.6364C569.536 55.9621 569.447 56.3561 569.447 56.8182ZM579.737 62.1932C579.184 62.1932 578.684 62.0909 578.237 61.8864C577.79 61.678 577.436 61.3769 577.174 60.983C576.917 60.589 576.788 60.1061 576.788 59.5341C576.788 59.0417 576.883 58.6364 577.072 58.3182C577.262 58 577.517 57.7481 577.839 57.5625C578.161 57.3769 578.521 57.2367 578.919 57.142C579.316 57.0473 579.722 56.9754 580.135 56.9261C580.657 56.8655 581.082 56.8163 581.407 56.7784C581.733 56.7367 581.97 56.6705 582.118 56.5795C582.265 56.4886 582.339 56.3409 582.339 56.1364V56.0966C582.339 55.6004 582.199 55.2159 581.919 54.9432C581.642 54.6705 581.229 54.5341 580.68 54.5341C580.108 54.5341 579.657 54.661 579.328 54.9148C579.002 55.1648 578.777 55.4432 578.652 55.75L577.055 55.3864C577.245 54.8561 577.521 54.428 577.885 54.1023C578.252 53.7727 578.674 53.5341 579.152 53.3864C579.629 53.2348 580.131 53.1591 580.657 53.1591C581.006 53.1591 581.375 53.2008 581.765 53.2841C582.159 53.3636 582.527 53.5114 582.868 53.7273C583.212 53.9432 583.495 54.2519 583.714 54.6534C583.934 55.0511 584.044 55.5682 584.044 56.2045V62H582.385V60.8068H582.316C582.207 61.0265 582.042 61.2424 581.822 61.4545C581.602 61.6667 581.32 61.8428 580.976 61.983C580.631 62.1231 580.218 62.1932 579.737 62.1932ZM580.106 60.8295C580.576 60.8295 580.977 60.7367 581.311 60.5511C581.648 60.3655 581.904 60.1231 582.078 59.8239C582.256 59.5208 582.345 59.197 582.345 58.8523V57.7273C582.284 57.7879 582.167 57.8447 581.993 57.8977C581.822 57.947 581.627 57.9905 581.407 58.0284C581.188 58.0625 580.974 58.0947 580.765 58.125C580.557 58.1515 580.383 58.1742 580.243 58.1932C579.913 58.2348 579.612 58.3049 579.339 58.4034C579.07 58.5019 578.854 58.6439 578.691 58.8295C578.532 59.0114 578.453 59.2538 578.453 59.5568C578.453 59.9773 578.608 60.2955 578.919 60.5114C579.229 60.7235 579.625 60.8295 580.106 60.8295ZM587.829 50.3636V62H586.131V50.3636H587.829ZM591.638 50.3636V62H589.939V50.3636H591.638ZM597.509 62.1761C596.649 62.1761 595.908 61.9924 595.287 61.625C594.67 61.2538 594.192 60.733 593.855 60.0625C593.522 59.3883 593.355 58.5985 593.355 57.6932C593.355 56.7992 593.522 56.0114 593.855 55.3295C594.192 54.6477 594.662 54.1155 595.264 53.733C595.87 53.3504 596.579 53.1591 597.389 53.1591C597.882 53.1591 598.359 53.2405 598.821 53.4034C599.283 53.5663 599.698 53.822 600.065 54.1705C600.433 54.5189 600.723 54.9716 600.935 55.5284C601.147 56.0814 601.253 56.7538 601.253 57.5455V58.1477H594.315V56.875H599.588C599.588 56.428 599.497 56.0322 599.315 55.6875C599.134 55.339 598.878 55.0644 598.548 54.8636C598.223 54.6629 597.84 54.5625 597.401 54.5625C596.923 54.5625 596.507 54.6799 596.151 54.9148C595.798 55.1458 595.526 55.4489 595.333 55.8239C595.143 56.1951 595.048 56.5985 595.048 57.0341V58.0284C595.048 58.6117 595.151 59.108 595.355 59.517C595.564 59.9261 595.853 60.2386 596.225 60.4545C596.596 60.6667 597.029 60.7727 597.526 60.7727C597.848 60.7727 598.141 60.7273 598.406 60.6364C598.672 60.5417 598.901 60.4015 599.094 60.2159C599.287 60.0303 599.435 59.8011 599.537 59.5284L601.145 59.8182C601.016 60.2917 600.785 60.7064 600.452 61.0625C600.122 61.4148 599.708 61.6894 599.208 61.8864C598.711 62.0795 598.145 62.1761 597.509 62.1761ZM604.661 56.8182V62H602.962V53.2727H604.593V54.6932H604.701C604.901 54.2311 605.216 53.8598 605.644 53.5795C606.076 53.2992 606.619 53.1591 607.274 53.1591C607.869 53.1591 608.39 53.2841 608.837 53.5341C609.284 53.7803 609.63 54.1477 609.877 54.6364C610.123 55.125 610.246 55.7292 610.246 56.4489V62H608.547V56.6534C608.547 56.0208 608.382 55.5265 608.053 55.1705C607.723 54.8106 607.271 54.6307 606.695 54.6307C606.301 54.6307 605.951 54.7159 605.644 54.8864C605.341 55.0568 605.1 55.3068 604.922 55.6364C604.748 55.9621 604.661 56.3561 604.661 56.8182ZM616.008 65.4545C615.314 65.4545 614.718 65.3636 614.218 65.1818C613.722 65 613.316 64.7595 613.002 64.4602C612.687 64.161 612.453 63.8333 612.297 63.4773L613.758 62.875C613.86 63.0417 613.996 63.2178 614.167 63.4034C614.341 63.5928 614.576 63.7538 614.871 63.8864C615.17 64.0189 615.555 64.0852 616.025 64.0852C616.668 64.0852 617.201 63.928 617.621 63.6136C618.042 63.303 618.252 62.8068 618.252 62.125V60.4091H618.144C618.042 60.5947 617.894 60.8011 617.701 61.0284C617.511 61.2557 617.25 61.4527 616.917 61.6193C616.583 61.786 616.15 61.8693 615.615 61.8693C614.926 61.8693 614.305 61.7083 613.752 61.3864C613.203 61.0606 612.767 60.5814 612.445 59.9489C612.127 59.3125 611.968 58.5303 611.968 57.6023C611.968 56.6742 612.125 55.8788 612.439 55.2159C612.758 54.553 613.193 54.0455 613.746 53.6932C614.299 53.3371 614.926 53.1591 615.627 53.1591C616.168 53.1591 616.606 53.25 616.939 53.4318C617.273 53.6098 617.532 53.8182 617.718 54.0568C617.907 54.2955 618.053 54.5057 618.155 54.6875H618.28V53.2727H619.945V62.1932C619.945 62.9432 619.771 63.5587 619.422 64.0398C619.074 64.5208 618.602 64.8769 618.008 65.108C617.417 65.339 616.75 65.4545 616.008 65.4545ZM615.99 60.4602C616.479 60.4602 616.892 60.3466 617.229 60.1193C617.57 59.8883 617.828 59.5587 618.002 59.1307C618.18 58.6989 618.269 58.1818 618.269 57.5795C618.269 56.9924 618.182 56.4754 618.008 56.0284C617.833 55.5814 617.578 55.233 617.24 54.983C616.903 54.7292 616.487 54.6023 615.99 54.6023C615.479 54.6023 615.053 54.7348 614.712 55C614.371 55.2614 614.114 55.6174 613.939 56.0682C613.769 56.5189 613.684 57.0227 613.684 57.5795C613.684 58.1515 613.771 58.6534 613.945 59.0852C614.119 59.517 614.377 59.8542 614.718 60.0966C615.062 60.339 615.487 60.4602 615.99 60.4602ZM625.809 62.1761C624.949 62.1761 624.208 61.9924 623.587 61.625C622.97 61.2538 622.492 60.733 622.155 60.0625C621.822 59.3883 621.655 58.5985 621.655 57.6932C621.655 56.7992 621.822 56.0114 622.155 55.3295C622.492 54.6477 622.962 54.1155 623.564 53.733C624.171 53.3504 624.879 53.1591 625.689 53.1591C626.182 53.1591 626.659 53.2405 627.121 53.4034C627.583 53.5663 627.998 53.822 628.366 54.1705C628.733 54.5189 629.023 54.9716 629.235 55.5284C629.447 56.0814 629.553 56.7538 629.553 57.5455V58.1477H622.616V56.875H627.888C627.888 56.428 627.797 56.0322 627.616 55.6875C627.434 55.339 627.178 55.0644 626.849 54.8636C626.523 54.6629 626.14 54.5625 625.701 54.5625C625.224 54.5625 624.807 54.6799 624.451 54.9148C624.099 55.1458 623.826 55.4489 623.633 55.8239C623.443 56.1951 623.349 56.5985 623.349 57.0341V58.0284C623.349 58.6117 623.451 59.108 623.655 59.517C623.864 59.9261 624.153 60.2386 624.525 60.4545C624.896 60.6667 625.33 60.7727 625.826 60.7727C626.148 60.7727 626.441 60.7273 626.707 60.6364C626.972 60.5417 627.201 60.4015 627.394 60.2159C627.587 60.0303 627.735 59.8011 627.837 59.5284L629.445 59.8182C629.316 60.2917 629.085 60.7064 628.752 61.0625C628.422 61.4148 628.008 61.6894 627.508 61.8864C627.011 62.0795 626.445 62.1761 625.809 62.1761Z" fill="#583D00" style="fill:#583D00;fill:color(display-p3 0.3459 0.2401 0.0000);fill-opacity:1;"/>
<path d="M431.5 43C430.948 43 430.5 43.4477 430.5 44C430.5 44.5523 430.948 45 431.5 45V44V43ZM501.207 44.7071C501.598 44.3166 501.598 43.6834 501.207 43.2929L494.843 36.9289C494.453 36.5384 493.819 36.5384 493.429 36.9289C493.038 37.3195 493.038 37.9526 493.429 38.3431L499.086 44L493.429 49.6569C493.038 50.0474 493.038 50.6805 493.429 51.0711C493.819 51.4616 494.453 51.4616 494.843 51.0711L501.207 44.7071ZM431.5 44V45H500.5V44V43H431.5V44Z" fill="#757575" style="fill:#757575;fill:color(display-p3 0.4588 0.4588 0.4588);fill-opacity:1;"/>
<rect x="754" y="2" width="176" height="84" rx="42" fill="#F9FFE5" stroke="#FFB100" style="fill:#F9FFE5;fill:color(display-p3 0.9762 1.0000 0.8980);fill-opacity:1;stroke:#FFB100;stroke:color(display-p3 1.0000 0.6941 0.0000);stroke-opacity:1;" stroke-width="4" stroke-linecap="round"/>
<path d="M778.492 29.4205C778.432 28.8826 778.182 28.4659 777.742 28.1705C777.303 27.8712 776.75 27.7216 776.083 27.7216C775.606 27.7216 775.193 27.7973 774.845 27.9489C774.496 28.0966 774.225 28.3011 774.032 28.5625C773.843 28.8201 773.748 29.1136 773.748 29.4432C773.748 29.7197 773.812 29.9583 773.941 30.1591C774.074 30.3598 774.246 30.5284 774.458 30.6648C774.674 30.7973 774.905 30.9091 775.151 31C775.398 31.0871 775.634 31.1591 775.862 31.2159L776.998 31.5114C777.369 31.6023 777.75 31.7254 778.14 31.8807C778.53 32.036 778.892 32.2405 779.225 32.4943C779.559 32.7481 779.828 33.0625 780.032 33.4375C780.24 33.8125 780.345 34.2614 780.345 34.7841C780.345 35.4432 780.174 36.0284 779.833 36.5398C779.496 37.0511 779.006 37.4545 778.362 37.75C777.721 38.0455 776.947 38.1932 776.038 38.1932C775.167 38.1932 774.413 38.0549 773.776 37.7784C773.14 37.5019 772.642 37.1098 772.282 36.6023C771.922 36.0909 771.723 35.4848 771.685 34.7841H773.447C773.481 35.2045 773.617 35.5549 773.856 35.8352C774.098 36.1117 774.407 36.3182 774.782 36.4545C775.161 36.5871 775.576 36.6534 776.026 36.6534C776.523 36.6534 776.964 36.5758 777.35 36.4205C777.74 36.2614 778.047 36.0417 778.271 35.7614C778.494 35.4773 778.606 35.1458 778.606 34.767C778.606 34.4223 778.507 34.1402 778.31 33.9205C778.117 33.7008 777.854 33.5189 777.521 33.375C777.191 33.2311 776.818 33.1042 776.401 32.9943L775.026 32.6193C774.095 32.3655 773.356 31.9924 772.81 31.5C772.269 31.0076 771.998 30.3561 771.998 29.5455C771.998 28.875 772.18 28.2898 772.543 27.7898C772.907 27.2898 773.4 26.9015 774.021 26.625C774.642 26.3447 775.343 26.2045 776.123 26.2045C776.911 26.2045 777.606 26.3428 778.208 26.6193C778.814 26.8958 779.292 27.2765 779.64 27.7614C779.989 28.2424 780.17 28.7955 780.185 29.4205H778.492ZM786.204 29.2727V30.6364H781.437V29.2727H786.204ZM782.715 27.1818H784.414V35.4375C784.414 35.767 784.464 36.0152 784.562 36.1818C784.661 36.3447 784.787 36.4564 784.943 36.517C785.102 36.5739 785.274 36.6023 785.46 36.6023C785.596 36.6023 785.715 36.5928 785.818 36.5739C785.92 36.5549 786 36.5398 786.056 36.5284L786.363 37.9318C786.265 37.9697 786.125 38.0076 785.943 38.0455C785.761 38.0871 785.534 38.1098 785.261 38.1136C784.814 38.1212 784.397 38.0417 784.011 37.875C783.625 37.7083 783.312 37.4508 783.073 37.1023C782.835 36.7538 782.715 36.3163 782.715 35.7898V27.1818ZM791.49 38.1761C790.672 38.1761 789.958 37.9886 789.348 37.6136C788.738 37.2386 788.264 36.714 787.927 36.0398C787.59 35.3655 787.422 34.5777 787.422 33.6761C787.422 32.7708 787.59 31.9792 787.927 31.3011C788.264 30.6231 788.738 30.0966 789.348 29.7216C789.958 29.3466 790.672 29.1591 791.49 29.1591C792.308 29.1591 793.022 29.3466 793.632 29.7216C794.242 30.0966 794.715 30.6231 795.052 31.3011C795.389 31.9792 795.558 32.7708 795.558 33.6761C795.558 34.5777 795.389 35.3655 795.052 36.0398C794.715 36.714 794.242 37.2386 793.632 37.6136C793.022 37.9886 792.308 38.1761 791.49 38.1761ZM791.495 36.75C792.026 36.75 792.465 36.6098 792.814 36.3295C793.162 36.0492 793.42 35.6761 793.586 35.2102C793.757 34.7443 793.842 34.2311 793.842 33.6705C793.842 33.1136 793.757 32.6023 793.586 32.1364C793.42 31.6667 793.162 31.2898 792.814 31.0057C792.465 30.7216 792.026 30.5795 791.495 30.5795C790.961 30.5795 790.518 30.7216 790.166 31.0057C789.817 31.2898 789.558 31.6667 789.387 32.1364C789.221 32.6023 789.137 33.1136 789.137 33.6705C789.137 34.2311 789.221 34.7443 789.387 35.2102C789.558 35.6761 789.817 36.0492 790.166 36.3295C790.518 36.6098 790.961 36.75 791.495 36.75ZM797.278 38V29.2727H798.92V30.6591H799.011C799.17 30.1894 799.451 29.8201 799.852 29.5511C800.257 29.2784 800.716 29.142 801.227 29.142C801.333 29.142 801.458 29.1458 801.602 29.1534C801.75 29.161 801.865 29.1705 801.949 29.1818V30.8068C801.881 30.7879 801.759 30.767 801.585 30.7443C801.411 30.7178 801.237 30.7045 801.062 30.7045C800.661 30.7045 800.303 30.7898 799.988 30.9602C799.678 31.1269 799.432 31.3598 799.25 31.6591C799.068 31.9545 798.977 32.2917 798.977 32.6705V38H797.278ZM806.692 38.1761C805.832 38.1761 805.091 37.9924 804.47 37.625C803.853 37.2538 803.375 36.733 803.038 36.0625C802.705 35.3883 802.538 34.5985 802.538 33.6932C802.538 32.7992 802.705 32.0114 803.038 31.3295C803.375 30.6477 803.845 30.1155 804.447 29.733C805.053 29.3504 805.762 29.1591 806.572 29.1591C807.065 29.1591 807.542 29.2405 808.004 29.4034C808.466 29.5663 808.881 29.822 809.249 30.1705C809.616 30.5189 809.906 30.9716 810.118 31.5284C810.33 32.0814 810.436 32.7538 810.436 33.5455V34.1477H803.499V32.875H808.771C808.771 32.428 808.68 32.0322 808.499 31.6875C808.317 31.339 808.061 31.0644 807.731 30.8636C807.406 30.6629 807.023 30.5625 806.584 30.5625C806.106 30.5625 805.69 30.6799 805.334 30.9148C804.981 31.1458 804.709 31.4489 804.516 31.8239C804.326 32.1951 804.231 32.5985 804.231 33.0341V34.0284C804.231 34.6117 804.334 35.108 804.538 35.517C804.747 35.9261 805.036 36.2386 805.408 36.4545C805.779 36.6667 806.213 36.7727 806.709 36.7727C807.031 36.7727 807.324 36.7273 807.589 36.6364C807.855 36.5417 808.084 36.4015 808.277 36.2159C808.47 36.0303 808.618 35.8011 808.72 35.5284L810.328 35.8182C810.199 36.2917 809.968 36.7064 809.635 37.0625C809.305 37.4148 808.891 37.6894 808.391 37.8864C807.894 38.0795 807.328 38.1761 806.692 38.1761ZM818.685 31.4034L817.145 31.6761C817.081 31.4792 816.978 31.2917 816.838 31.1136C816.702 30.9356 816.516 30.7898 816.281 30.6761C816.046 30.5625 815.753 30.5057 815.401 30.5057C814.92 30.5057 814.518 30.6136 814.196 30.8295C813.874 31.0417 813.713 31.3163 813.713 31.6534C813.713 31.9451 813.821 32.1799 814.037 32.358C814.253 32.536 814.601 32.6818 815.082 32.7955L816.469 33.1136C817.272 33.2992 817.87 33.5852 818.264 33.9716C818.658 34.358 818.855 34.8598 818.855 35.4773C818.855 36 818.704 36.4659 818.401 36.875C818.101 37.2803 817.683 37.5985 817.145 37.8295C816.611 38.0606 815.992 38.1761 815.287 38.1761C814.31 38.1761 813.512 37.9678 812.895 37.5511C812.278 37.1307 811.899 36.5341 811.759 35.7614L813.401 35.5114C813.503 35.9394 813.713 36.2633 814.031 36.483C814.35 36.6989 814.764 36.8068 815.276 36.8068C815.832 36.8068 816.278 36.6913 816.611 36.4602C816.944 36.2254 817.111 35.9394 817.111 35.6023C817.111 35.3295 817.009 35.1004 816.804 34.9148C816.603 34.7292 816.295 34.589 815.878 34.4943L814.401 34.1705C813.586 33.9848 812.984 33.6894 812.594 33.2841C812.207 32.8788 812.014 32.3655 812.014 31.7443C812.014 31.2292 812.158 30.7784 812.446 30.392C812.734 30.0057 813.132 29.7045 813.639 29.4886C814.147 29.2689 814.728 29.1591 815.384 29.1591C816.327 29.1591 817.069 29.3636 817.611 29.7727C818.153 30.178 818.511 30.7216 818.685 31.4034ZM828.282 38.1761C827.437 38.1761 826.71 37.9848 826.1 37.6023C825.494 37.2159 825.028 36.6837 824.702 36.0057C824.376 35.3277 824.213 34.5511 824.213 33.6761C824.213 32.7898 824.38 32.0076 824.713 31.3295C825.047 30.6477 825.516 30.1155 826.123 29.733C826.729 29.3504 827.443 29.1591 828.265 29.1591C828.927 29.1591 829.518 29.2822 830.037 29.5284C830.556 29.7708 830.975 30.1117 831.293 30.5511C831.615 30.9905 831.806 31.5038 831.867 32.0909H830.213C830.123 31.6818 829.914 31.3295 829.588 31.0341C829.266 30.7386 828.835 30.5909 828.293 30.5909C827.819 30.5909 827.405 30.7159 827.049 30.9659C826.696 31.2121 826.422 31.5644 826.225 32.0227C826.028 32.4773 825.929 33.0152 825.929 33.6364C825.929 34.2727 826.026 34.822 826.219 35.2841C826.412 35.7462 826.685 36.1042 827.037 36.358C827.393 36.6117 827.812 36.7386 828.293 36.7386C828.615 36.7386 828.907 36.6799 829.168 36.5625C829.433 36.4413 829.655 36.2689 829.833 36.0455C830.015 35.822 830.141 35.553 830.213 35.2386H831.867C831.806 35.803 831.623 36.3068 831.316 36.75C831.009 37.1932 830.598 37.5417 830.083 37.7955C829.571 38.0492 828.971 38.1761 828.282 38.1761ZM835.206 32.8182V38H833.508V26.3636H835.184V30.6932H835.292C835.496 30.2235 835.809 29.8504 836.229 29.5739C836.65 29.2973 837.199 29.1591 837.877 29.1591C838.475 29.1591 838.998 29.2822 839.445 29.5284C839.896 29.7746 840.244 30.142 840.491 30.6307C840.741 31.1155 840.866 31.7216 840.866 32.4489V38H839.167V32.6534C839.167 32.0133 839.002 31.517 838.672 31.1648C838.343 30.8087 837.884 30.6307 837.297 30.6307C836.896 30.6307 836.536 30.7159 836.218 30.8864C835.903 31.0568 835.655 31.3068 835.474 31.6364C835.295 31.9621 835.206 32.3561 835.206 32.8182ZM845.496 38.1932C844.943 38.1932 844.443 38.0909 843.996 37.8864C843.549 37.678 843.195 37.3769 842.934 36.983C842.676 36.589 842.548 36.1061 842.548 35.5341C842.548 35.0417 842.642 34.6364 842.832 34.3182C843.021 34 843.277 33.7481 843.599 33.5625C843.921 33.3769 844.28 33.2367 844.678 33.142C845.076 33.0473 845.481 32.9754 845.894 32.9261C846.417 32.8655 846.841 32.8163 847.167 32.7784C847.493 32.7367 847.729 32.6705 847.877 32.5795C848.025 32.4886 848.099 32.3409 848.099 32.1364V32.0966C848.099 31.6004 847.958 31.2159 847.678 30.9432C847.402 30.6705 846.989 30.5341 846.44 30.5341C845.868 30.5341 845.417 30.661 845.087 30.9148C844.762 31.1648 844.536 31.4432 844.411 31.75L842.815 31.3864C843.004 30.8561 843.28 30.428 843.644 30.1023C844.012 29.7727 844.434 29.5341 844.911 29.3864C845.388 29.2348 845.89 29.1591 846.417 29.1591C846.765 29.1591 847.135 29.2008 847.525 29.2841C847.919 29.3636 848.286 29.5114 848.627 29.7273C848.972 29.9432 849.254 30.2519 849.474 30.6534C849.693 31.0511 849.803 31.5682 849.803 32.2045V38H848.144V36.8068H848.076C847.966 37.0265 847.801 37.2424 847.582 37.4545C847.362 37.6667 847.08 37.8428 846.735 37.983C846.39 38.1231 845.977 38.1932 845.496 38.1932ZM845.866 36.8295C846.335 36.8295 846.737 36.7367 847.07 36.5511C847.407 36.3655 847.663 36.1231 847.837 35.8239C848.015 35.5208 848.104 35.197 848.104 34.8523V33.7273C848.044 33.7879 847.926 33.8447 847.752 33.8977C847.582 33.947 847.387 33.9905 847.167 34.0284C846.947 34.0625 846.733 34.0947 846.525 34.125C846.316 34.1515 846.142 34.1742 846.002 34.1932C845.673 34.2348 845.371 34.3049 845.099 34.4034C844.83 34.5019 844.614 34.6439 844.451 34.8295C844.292 35.0114 844.212 35.2538 844.212 35.5568C844.212 35.9773 844.368 36.2955 844.678 36.5114C844.989 36.7235 845.385 36.8295 845.866 36.8295ZM853.589 26.3636V38H851.89V26.3636H853.589ZM857.397 26.3636V38H855.698V26.3636H857.397ZM863.268 38.1761C862.408 38.1761 861.668 37.9924 861.047 37.625C860.429 37.2538 859.952 36.733 859.615 36.0625C859.281 35.3883 859.115 34.5985 859.115 33.6932C859.115 32.7992 859.281 32.0114 859.615 31.3295C859.952 30.6477 860.422 30.1155 861.024 29.733C861.63 29.3504 862.338 29.1591 863.149 29.1591C863.641 29.1591 864.118 29.2405 864.581 29.4034C865.043 29.5663 865.457 29.822 865.825 30.1705C866.192 30.5189 866.482 30.9716 866.694 31.5284C866.906 32.0814 867.012 32.7538 867.012 33.5455V34.1477H860.075V32.875H865.348C865.348 32.428 865.257 32.0322 865.075 31.6875C864.893 31.339 864.637 31.0644 864.308 30.8636C863.982 30.6629 863.6 30.5625 863.16 30.5625C862.683 30.5625 862.266 30.6799 861.91 30.9148C861.558 31.1458 861.285 31.4489 861.092 31.8239C860.903 32.1951 860.808 32.5985 860.808 33.0341V34.0284C860.808 34.6117 860.91 35.108 861.115 35.517C861.323 35.9261 861.613 36.2386 861.984 36.4545C862.355 36.6667 862.789 36.7727 863.285 36.7727C863.607 36.7727 863.901 36.7273 864.166 36.6364C864.431 36.5417 864.66 36.4015 864.853 36.2159C865.047 36.0303 865.194 35.8011 865.297 35.5284L866.904 35.8182C866.776 36.2917 866.545 36.7064 866.211 37.0625C865.882 37.4148 865.467 37.6894 864.967 37.8864C864.471 38.0795 863.904 38.1761 863.268 38.1761ZM870.42 32.8182V38H868.721V29.2727H870.352V30.6932H870.46C870.661 30.2311 870.975 29.8598 871.403 29.5795C871.835 29.2992 872.379 29.1591 873.034 29.1591C873.629 29.1591 874.149 29.2841 874.596 29.5341C875.043 29.7803 875.39 30.1477 875.636 30.6364C875.882 31.125 876.005 31.7292 876.005 32.4489V38H874.307V32.6534C874.307 32.0208 874.142 31.5265 873.812 31.1705C873.483 30.8106 873.03 30.6307 872.454 30.6307C872.06 30.6307 871.71 30.7159 871.403 30.8864C871.1 31.0568 870.86 31.3068 870.682 31.6364C870.507 31.9621 870.42 32.3561 870.42 32.8182ZM881.767 41.4545C881.074 41.4545 880.477 41.3636 879.977 41.1818C879.481 41 879.076 40.7595 878.761 40.4602C878.447 40.161 878.212 39.8333 878.057 39.4773L879.517 38.875C879.619 39.0417 879.756 39.2178 879.926 39.4034C880.1 39.5928 880.335 39.7538 880.631 39.8864C880.93 40.0189 881.314 40.0852 881.784 40.0852C882.428 40.0852 882.96 39.928 883.381 39.6136C883.801 39.303 884.011 38.8068 884.011 38.125V36.4091H883.903C883.801 36.5947 883.653 36.8011 883.46 37.0284C883.271 37.2557 883.009 37.4527 882.676 37.6193C882.343 37.786 881.909 37.8693 881.375 37.8693C880.686 37.8693 880.064 37.7083 879.511 37.3864C878.962 37.0606 878.526 36.5814 878.204 35.9489C877.886 35.3125 877.727 34.5303 877.727 33.6023C877.727 32.6742 877.884 31.8788 878.199 31.2159C878.517 30.553 878.953 30.0455 879.506 29.6932C880.059 29.3371 880.686 29.1591 881.386 29.1591C881.928 29.1591 882.365 29.25 882.699 29.4318C883.032 29.6098 883.292 29.8182 883.477 30.0568C883.667 30.2955 883.812 30.5057 883.915 30.6875H884.04V29.2727H885.704V38.1932C885.704 38.9432 885.53 39.5587 885.182 40.0398C884.833 40.5208 884.362 40.8769 883.767 41.108C883.176 41.339 882.509 41.4545 881.767 41.4545ZM881.75 36.4602C882.239 36.4602 882.651 36.3466 882.989 36.1193C883.329 35.8883 883.587 35.5587 883.761 35.1307C883.939 34.6989 884.028 34.1818 884.028 33.5795C884.028 32.9924 883.941 32.4754 883.767 32.0284C883.593 31.5814 883.337 31.233 883 30.983C882.663 30.7292 882.246 30.6023 881.75 30.6023C881.239 30.6023 880.812 30.7348 880.471 31C880.131 31.2614 879.873 31.6174 879.699 32.0682C879.528 32.5189 879.443 33.0227 879.443 33.5795C879.443 34.1515 879.53 34.6534 879.704 35.0852C879.879 35.517 880.136 35.8542 880.477 36.0966C880.822 36.339 881.246 36.4602 881.75 36.4602ZM891.568 38.1761C890.708 38.1761 889.968 37.9924 889.347 37.625C888.729 37.2538 888.252 36.733 887.915 36.0625C887.581 35.3883 887.415 34.5985 887.415 33.6932C887.415 32.7992 887.581 32.0114 887.915 31.3295C888.252 30.6477 888.722 30.1155 889.324 29.733C889.93 29.3504 890.638 29.1591 891.449 29.1591C891.941 29.1591 892.419 29.2405 892.881 29.4034C893.343 29.5663 893.758 29.822 894.125 30.1705C894.492 30.5189 894.782 30.9716 894.994 31.5284C895.206 32.0814 895.313 32.7538 895.313 33.5455V34.1477H888.375V32.875H893.648C893.648 32.428 893.557 32.0322 893.375 31.6875C893.193 31.339 892.938 31.0644 892.608 30.8636C892.282 30.6629 891.9 30.5625 891.46 30.5625C890.983 30.5625 890.566 30.6799 890.21 30.9148C889.858 31.1458 889.585 31.4489 889.392 31.8239C889.203 32.1951 889.108 32.5985 889.108 33.0341V34.0284C889.108 34.6117 889.21 35.108 889.415 35.517C889.623 35.9261 889.913 36.2386 890.284 36.4545C890.655 36.6667 891.089 36.7727 891.585 36.7727C891.907 36.7727 892.201 36.7273 892.466 36.6364C892.731 36.5417 892.96 36.4015 893.153 36.2159C893.347 36.0303 893.494 35.8011 893.597 35.5284L895.205 35.8182C895.076 36.2917 894.845 36.7064 894.511 37.0625C894.182 37.4148 893.767 37.6894 893.267 37.8864C892.771 38.0795 892.205 38.1761 891.568 38.1761ZM901.08 38V29.2727H902.779V38H901.08ZM901.938 27.9261C901.642 27.9261 901.389 27.8277 901.176 27.6307C900.968 27.4299 900.864 27.1913 900.864 26.9148C900.864 26.6345 900.968 26.3958 901.176 26.1989C901.389 25.9981 901.642 25.8977 901.938 25.8977C902.233 25.8977 902.485 25.9981 902.693 26.1989C902.906 26.3958 903.012 26.6345 903.012 26.9148C903.012 27.1913 902.906 27.4299 902.693 27.6307C902.485 27.8277 902.233 27.9261 901.938 27.9261ZM906.587 32.8182V38H904.888V29.2727H906.519V30.6932H906.627C906.828 30.2311 907.142 29.8598 907.57 29.5795C908.002 29.2992 908.545 29.1591 909.201 29.1591C909.795 29.1591 910.316 29.2841 910.763 29.5341C911.21 29.7803 911.557 30.1477 911.803 30.6364C912.049 31.125 912.172 31.7292 912.172 32.4489V38H910.473V32.6534C910.473 32.0208 910.309 31.5265 909.979 31.1705C909.65 30.8106 909.197 30.6307 908.621 30.6307C908.227 30.6307 907.877 30.7159 907.57 30.8864C907.267 31.0568 907.026 31.3068 906.848 31.6364C906.674 31.9621 906.587 32.3561 906.587 32.8182ZM832.452 62V50.3636H834.208V55.9205H834.35L839.231 50.3636H841.441L836.748 55.6023L841.458 62H839.344L835.583 56.8011L834.208 58.3807V62H832.452ZM843.918 50.3636L847.157 59.8409H847.288L850.526 50.3636H852.424L848.237 62H846.208L842.021 50.3636H843.918Z" fill="#583D00" style="fill:#583D00;fill:color(display-p3 0.3459 0.2401 0.0000);fill-opacity:1;"/>
<path d="M687.5 43C686.948 43 686.5 43.4477 686.5 44C686.5 44.5523 686.948 45 687.5 45V44V43ZM749.207 44.7071C749.598 44.3166 749.598 43.6834 749.207 43.2929L742.843 36.9289C742.453 36.5384 741.819 36.5384 741.429 36.9289C741.038 37.3195 741.038 37.9526 741.429 38.3431L747.086 44L741.429 49.6569C741.038 50.0474 741.038 50.6805 741.429 51.0711C741.819 51.4616 742.453 51.4616 742.843 51.0711L749.207 44.7071ZM687.5 44V45H748.5V44V43H687.5V44Z" fill="#757575" style="fill:#757575;fill:color(display-p3 0.4588 0.4588 0.4588);fill-opacity:1;"/>
<rect x="1010" y="2" width="176" height="84" rx="42" fill="#F9FFE5" stroke="#FFB100" style="fill:#F9FFE5;fill:color(display-p3 0.9762 1.0000 0.8980);fill-opacity:1;stroke:#FFB100;stroke:color(display-p3 1.0000 0.6941 0.0000);stroke-opacity:1;" stroke-width="4" stroke-linecap="round"/>
<path d="M1022.38 38V26.3636H1026.53C1027.43 26.3636 1028.18 26.5189 1028.77 26.8295C1029.37 27.1402 1029.82 27.5701 1030.12 28.1193C1030.41 28.6648 1030.56 29.2955 1030.56 30.0114C1030.56 30.7235 1030.41 31.3504 1030.11 31.892C1029.81 32.4299 1029.37 32.8485 1028.77 33.1477C1028.17 33.447 1027.43 33.5966 1026.52 33.5966H1023.38V32.0852H1026.37C1026.93 32.0852 1027.4 32.0038 1027.75 31.8409C1028.11 31.678 1028.37 31.4413 1028.54 31.1307C1028.71 30.8201 1028.79 30.447 1028.79 30.0114C1028.79 29.572 1028.71 29.1913 1028.54 28.8693C1028.37 28.5473 1028.11 28.3011 1027.75 28.1307C1027.39 27.9564 1026.92 27.8693 1026.34 27.8693H1024.14V38H1022.38ZM1028.13 32.75L1031 38H1029L1026.18 32.75H1028.13ZM1036.03 38.1761C1035.17 38.1761 1034.43 37.9924 1033.81 37.625C1033.2 37.2538 1032.72 36.733 1032.38 36.0625C1032.05 35.3883 1031.88 34.5985 1031.88 33.6932C1031.88 32.7992 1032.05 32.0114 1032.38 31.3295C1032.72 30.6477 1033.19 30.1155 1033.79 29.733C1034.4 29.3504 1035.1 29.1591 1035.91 29.1591C1036.41 29.1591 1036.88 29.2405 1037.35 29.4034C1037.81 29.5663 1038.22 29.822 1038.59 30.1705C1038.96 30.5189 1039.25 30.9716 1039.46 31.5284C1039.67 32.0814 1039.78 32.7538 1039.78 33.5455V34.1477H1032.84V32.875H1038.11C1038.11 32.428 1038.02 32.0322 1037.84 31.6875C1037.66 31.339 1037.4 31.0644 1037.07 30.8636C1036.75 30.6629 1036.37 30.5625 1035.93 30.5625C1035.45 30.5625 1035.03 30.6799 1034.68 30.9148C1034.32 31.1458 1034.05 31.4489 1033.86 31.8239C1033.67 32.1951 1033.57 32.5985 1033.57 33.0341V34.0284C1033.57 34.6117 1033.68 35.108 1033.88 35.517C1034.09 35.9261 1034.38 36.2386 1034.75 36.4545C1035.12 36.6667 1035.56 36.7727 1036.05 36.7727C1036.37 36.7727 1036.67 36.7273 1036.93 36.6364C1037.2 36.5417 1037.43 36.4015 1037.62 36.2159C1037.81 36.0303 1037.96 35.8011 1038.06 35.5284L1039.67 35.8182C1039.54 36.2917 1039.31 36.7064 1038.98 37.0625C1038.65 37.4148 1038.23 37.6894 1037.73 37.8864C1037.24 38.0795 1036.67 38.1761 1036.03 38.1761ZM1045.56 29.2727V30.6364H1040.79V29.2727H1045.56ZM1042.07 27.1818H1043.77V35.4375C1043.77 35.767 1043.82 36.0152 1043.92 36.1818C1044.02 36.3447 1044.14 36.4564 1044.3 36.517C1044.46 36.5739 1044.63 36.6023 1044.82 36.6023C1044.95 36.6023 1045.07 36.5928 1045.18 36.5739C1045.28 36.5549 1045.36 36.5398 1045.41 36.5284L1045.72 37.9318C1045.62 37.9697 1045.48 38.0076 1045.3 38.0455C1045.12 38.0871 1044.89 38.1098 1044.62 38.1136C1044.17 38.1212 1043.75 38.0417 1043.37 37.875C1042.98 37.7083 1042.67 37.4508 1042.43 37.1023C1042.19 36.7538 1042.07 36.3163 1042.07 35.7898V27.1818ZM1052.79 34.3807V29.2727H1054.5V38H1052.83V36.4886H1052.74C1052.54 36.9545 1052.21 37.3428 1051.77 37.6534C1051.33 37.9602 1050.78 38.1136 1050.13 38.1136C1049.57 38.1136 1049.07 37.9905 1048.64 37.7443C1048.21 37.4943 1047.87 37.125 1047.63 36.6364C1047.39 36.1477 1047.26 35.5436 1047.26 34.8239V29.2727H1048.96V34.6193C1048.96 35.214 1049.13 35.6875 1049.46 36.0398C1049.79 36.392 1050.22 36.5682 1050.74 36.5682C1051.06 36.5682 1051.38 36.4886 1051.69 36.3295C1052.01 36.1705 1052.27 35.9299 1052.48 35.608C1052.69 35.286 1052.8 34.8769 1052.79 34.3807ZM1056.6 38V29.2727H1058.25V30.6591H1058.34C1058.5 30.1894 1058.78 29.8201 1059.18 29.5511C1059.58 29.2784 1060.04 29.142 1060.55 29.142C1060.66 29.142 1060.78 29.1458 1060.93 29.1534C1061.08 29.161 1061.19 29.1705 1061.27 29.1818V30.8068C1061.21 30.7879 1061.09 30.767 1060.91 30.7443C1060.74 30.7178 1060.56 30.7045 1060.39 30.7045C1059.99 30.7045 1059.63 30.7898 1059.31 30.9602C1059 31.1269 1058.76 31.3598 1058.58 31.6591C1058.39 31.9545 1058.3 32.2917 1058.3 32.6705V38H1056.6ZM1064.27 32.8182V38H1062.57V29.2727H1064.2V30.6932H1064.31C1064.51 30.2311 1064.82 29.8598 1065.25 29.5795C1065.68 29.2992 1066.23 29.1591 1066.88 29.1591C1067.48 29.1591 1068 29.2841 1068.44 29.5341C1068.89 29.7803 1069.24 30.1477 1069.48 30.6364C1069.73 31.125 1069.85 31.7292 1069.85 32.4489V38H1068.15V32.6534C1068.15 32.0208 1067.99 31.5265 1067.66 31.1705C1067.33 30.8106 1066.88 30.6307 1066.3 30.6307C1065.91 30.6307 1065.56 30.7159 1065.25 30.8864C1064.95 31.0568 1064.71 31.3068 1064.53 31.6364C1064.35 31.9621 1064.27 32.3561 1064.27 32.8182ZM1078.5 31.4034L1076.96 31.6761C1076.89 31.4792 1076.79 31.2917 1076.65 31.1136C1076.51 30.9356 1076.33 30.7898 1076.09 30.6761C1075.86 30.5625 1075.56 30.5057 1075.21 30.5057C1074.73 30.5057 1074.33 30.6136 1074.01 30.8295C1073.68 31.0417 1073.52 31.3163 1073.52 31.6534C1073.52 31.9451 1073.63 32.1799 1073.85 32.358C1074.06 32.536 1074.41 32.6818 1074.89 32.7955L1076.28 33.1136C1077.08 33.2992 1077.68 33.5852 1078.07 33.9716C1078.47 34.358 1078.67 34.8598 1078.67 35.4773C1078.67 36 1078.51 36.4659 1078.21 36.875C1077.91 37.2803 1077.49 37.5985 1076.96 37.8295C1076.42 38.0606 1075.8 38.1761 1075.1 38.1761C1074.12 38.1761 1073.32 37.9678 1072.71 37.5511C1072.09 37.1307 1071.71 36.5341 1071.57 35.7614L1073.21 35.5114C1073.31 35.9394 1073.52 36.2633 1073.84 36.483C1074.16 36.6989 1074.57 36.8068 1075.09 36.8068C1075.64 36.8068 1076.09 36.6913 1076.42 36.4602C1076.75 36.2254 1076.92 35.9394 1076.92 35.6023C1076.92 35.3295 1076.82 35.1004 1076.61 34.9148C1076.41 34.7292 1076.11 34.589 1075.69 34.4943L1074.21 34.1705C1073.4 33.9848 1072.79 33.6894 1072.4 33.2841C1072.02 32.8788 1071.82 32.3655 1071.82 31.7443C1071.82 31.2292 1071.97 30.7784 1072.26 30.392C1072.54 30.0057 1072.94 29.7045 1073.45 29.4886C1073.96 29.2689 1074.54 29.1591 1075.19 29.1591C1076.14 29.1591 1076.88 29.3636 1077.42 29.7727C1077.96 30.178 1078.32 30.7216 1078.5 31.4034ZM1088.09 38.1761C1087.25 38.1761 1086.52 37.9848 1085.91 37.6023C1085.3 37.2159 1084.84 36.6837 1084.51 36.0057C1084.19 35.3277 1084.02 34.5511 1084.02 33.6761C1084.02 32.7898 1084.19 32.0076 1084.52 31.3295C1084.86 30.6477 1085.33 30.1155 1085.93 29.733C1086.54 29.3504 1087.25 29.1591 1088.08 29.1591C1088.74 29.1591 1089.33 29.2822 1089.85 29.5284C1090.37 29.7708 1090.79 30.1117 1091.1 30.5511C1091.43 30.9905 1091.62 31.5038 1091.68 32.0909H1090.02C1089.93 31.6818 1089.72 31.3295 1089.4 31.0341C1089.08 30.7386 1088.65 30.5909 1088.1 30.5909C1087.63 30.5909 1087.22 30.7159 1086.86 30.9659C1086.51 31.2121 1086.23 31.5644 1086.04 32.0227C1085.84 32.4773 1085.74 33.0152 1085.74 33.6364C1085.74 34.2727 1085.84 34.822 1086.03 35.2841C1086.22 35.7462 1086.5 36.1042 1086.85 36.358C1087.2 36.6117 1087.62 36.7386 1088.1 36.7386C1088.43 36.7386 1088.72 36.6799 1088.98 36.5625C1089.24 36.4413 1089.47 36.2689 1089.64 36.0455C1089.83 35.822 1089.95 35.553 1090.02 35.2386H1091.68C1091.62 35.803 1091.43 36.3068 1091.13 36.75C1090.82 37.1932 1090.41 37.5417 1089.89 37.7955C1089.38 38.0492 1088.78 38.1761 1088.09 38.1761ZM1095.02 32.8182V38H1093.32V26.3636H1094.99V30.6932H1095.1C1095.31 30.2235 1095.62 29.8504 1096.04 29.5739C1096.46 29.2973 1097.01 29.1591 1097.69 29.1591C1098.29 29.1591 1098.81 29.2822 1099.26 29.5284C1099.71 29.7746 1100.05 30.142 1100.3 30.6307C1100.55 31.1155 1100.68 31.7216 1100.68 32.4489V38H1098.98V32.6534C1098.98 32.0133 1098.81 31.517 1098.48 31.1648C1098.15 30.8087 1097.69 30.6307 1097.11 30.6307C1096.71 30.6307 1096.35 30.7159 1096.03 30.8864C1095.71 31.0568 1095.47 31.3068 1095.28 31.6364C1095.11 31.9621 1095.02 32.3561 1095.02 32.8182ZM1105.31 38.1932C1104.75 38.1932 1104.25 38.0909 1103.81 37.8864C1103.36 37.678 1103.01 37.3769 1102.74 36.983C1102.49 36.589 1102.36 36.1061 1102.36 35.5341C1102.36 35.0417 1102.45 34.6364 1102.64 34.3182C1102.83 34 1103.09 33.7481 1103.41 33.5625C1103.73 33.3769 1104.09 33.2367 1104.49 33.142C1104.89 33.0473 1105.29 32.9754 1105.7 32.9261C1106.23 32.8655 1106.65 32.8163 1106.98 32.7784C1107.3 32.7367 1107.54 32.6705 1107.69 32.5795C1107.84 32.4886 1107.91 32.3409 1107.91 32.1364V32.0966C1107.91 31.6004 1107.77 31.2159 1107.49 30.9432C1107.21 30.6705 1106.8 30.5341 1106.25 30.5341C1105.68 30.5341 1105.23 30.661 1104.9 30.9148C1104.57 31.1648 1104.35 31.4432 1104.22 31.75L1102.62 31.3864C1102.81 30.8561 1103.09 30.428 1103.45 30.1023C1103.82 29.7727 1104.24 29.5341 1104.72 29.3864C1105.2 29.2348 1105.7 29.1591 1106.23 29.1591C1106.58 29.1591 1106.95 29.2008 1107.34 29.2841C1107.73 29.3636 1108.1 29.5114 1108.44 29.7273C1108.78 29.9432 1109.06 30.2519 1109.28 30.6534C1109.5 31.0511 1109.61 31.5682 1109.61 32.2045V38H1107.95V36.8068H1107.89C1107.78 37.0265 1107.61 37.2424 1107.39 37.4545C1107.17 37.6667 1106.89 37.8428 1106.55 37.983C1106.2 38.1231 1105.79 38.1932 1105.31 38.1932ZM1105.68 36.8295C1106.15 36.8295 1106.55 36.7367 1106.88 36.5511C1107.22 36.3655 1107.47 36.1231 1107.65 35.8239C1107.83 35.5208 1107.91 35.197 1107.91 34.8523V33.7273C1107.85 33.7879 1107.74 33.8447 1107.56 33.8977C1107.39 33.947 1107.2 33.9905 1106.98 34.0284C1106.76 34.0625 1106.54 34.0947 1106.34 34.125C1106.13 34.1515 1105.95 34.1742 1105.81 34.1932C1105.48 34.2348 1105.18 34.3049 1104.91 34.4034C1104.64 34.5019 1104.42 34.6439 1104.26 34.8295C1104.1 35.0114 1104.02 35.2538 1104.02 35.5568C1104.02 35.9773 1104.18 36.2955 1104.49 36.5114C1104.8 36.7235 1105.2 36.8295 1105.68 36.8295ZM1113.4 26.3636V38H1111.7V26.3636H1113.4ZM1117.21 26.3636V38H1115.51V26.3636H1117.21ZM1123.08 38.1761C1122.22 38.1761 1121.48 37.9924 1120.86 37.625C1120.24 37.2538 1119.76 36.733 1119.43 36.0625C1119.09 35.3883 1118.93 34.5985 1118.93 33.6932C1118.93 32.7992 1119.09 32.0114 1119.43 31.3295C1119.76 30.6477 1120.23 30.1155 1120.83 29.733C1121.44 29.3504 1122.15 29.1591 1122.96 29.1591C1123.45 29.1591 1123.93 29.2405 1124.39 29.4034C1124.85 29.5663 1125.27 29.822 1125.64 30.1705C1126 30.5189 1126.29 30.9716 1126.5 31.5284C1126.72 32.0814 1126.82 32.7538 1126.82 33.5455V34.1477H1119.89V32.875H1125.16C1125.16 32.428 1125.07 32.0322 1124.89 31.6875C1124.7 31.339 1124.45 31.0644 1124.12 30.8636C1123.79 30.6629 1123.41 30.5625 1122.97 30.5625C1122.49 30.5625 1122.08 30.6799 1121.72 30.9148C1121.37 31.1458 1121.1 31.4489 1120.9 31.8239C1120.71 32.1951 1120.62 32.5985 1120.62 33.0341V34.0284C1120.62 34.6117 1120.72 35.108 1120.93 35.517C1121.13 35.9261 1121.42 36.2386 1121.79 36.4545C1122.17 36.6667 1122.6 36.7727 1123.1 36.7727C1123.42 36.7727 1123.71 36.7273 1123.98 36.6364C1124.24 36.5417 1124.47 36.4015 1124.66 36.2159C1124.86 36.0303 1125 35.8011 1125.11 35.5284L1126.71 35.8182C1126.59 36.2917 1126.36 36.7064 1126.02 37.0625C1125.69 37.4148 1125.28 37.6894 1124.78 37.8864C1124.28 38.0795 1123.71 38.1761 1123.08 38.1761ZM1130.23 32.8182V38H1128.53V29.2727H1130.16V30.6932H1130.27C1130.47 30.2311 1130.79 29.8598 1131.21 29.5795C1131.65 29.2992 1132.19 29.1591 1132.84 29.1591C1133.44 29.1591 1133.96 29.2841 1134.41 29.5341C1134.85 29.7803 1135.2 30.1477 1135.45 30.6364C1135.69 31.125 1135.82 31.7292 1135.82 32.4489V38H1134.12V32.6534C1134.12 32.0208 1133.95 31.5265 1133.62 31.1705C1133.29 30.8106 1132.84 30.6307 1132.26 30.6307C1131.87 30.6307 1131.52 30.7159 1131.21 30.8864C1130.91 31.0568 1130.67 31.3068 1130.49 31.6364C1130.32 31.9621 1130.23 32.3561 1130.23 32.8182ZM1141.58 41.4545C1140.88 41.4545 1140.29 41.3636 1139.79 41.1818C1139.29 41 1138.89 40.7595 1138.57 40.4602C1138.26 40.161 1138.02 39.8333 1137.87 39.4773L1139.33 38.875C1139.43 39.0417 1139.57 39.2178 1139.74 39.4034C1139.91 39.5928 1140.15 39.7538 1140.44 39.8864C1140.74 40.0189 1141.12 40.0852 1141.59 40.0852C1142.24 40.0852 1142.77 39.928 1143.19 39.6136C1143.61 39.303 1143.82 38.8068 1143.82 38.125V36.4091H1143.71C1143.61 36.5947 1143.46 36.8011 1143.27 37.0284C1143.08 37.2557 1142.82 37.4527 1142.49 37.6193C1142.15 37.786 1141.72 37.8693 1141.19 37.8693C1140.5 37.8693 1139.87 37.7083 1139.32 37.3864C1138.77 37.0606 1138.34 36.5814 1138.01 35.9489C1137.7 35.3125 1137.54 34.5303 1137.54 33.6023C1137.54 32.6742 1137.69 31.8788 1138.01 31.2159C1138.33 30.553 1138.76 30.0455 1139.32 29.6932C1139.87 29.3371 1140.5 29.1591 1141.2 29.1591C1141.74 29.1591 1142.18 29.25 1142.51 29.4318C1142.84 29.6098 1143.1 29.8182 1143.29 30.0568C1143.48 30.2955 1143.62 30.5057 1143.73 30.6875H1143.85V29.2727H1145.51V38.1932C1145.51 38.9432 1145.34 39.5587 1144.99 40.0398C1144.64 40.5208 1144.17 40.8769 1143.58 41.108C1142.99 41.339 1142.32 41.4545 1141.58 41.4545ZM1141.56 36.4602C1142.05 36.4602 1142.46 36.3466 1142.8 36.1193C1143.14 35.8883 1143.4 35.5587 1143.57 35.1307C1143.75 34.6989 1143.84 34.1818 1143.84 33.5795C1143.84 32.9924 1143.75 32.4754 1143.58 32.0284C1143.4 31.5814 1143.15 31.233 1142.81 30.983C1142.47 30.7292 1142.06 30.6023 1141.56 30.6023C1141.05 30.6023 1140.62 30.7348 1140.28 31C1139.94 31.2614 1139.68 31.6174 1139.51 32.0682C1139.34 32.5189 1139.25 33.0227 1139.25 33.5795C1139.25 34.1515 1139.34 34.6534 1139.51 35.0852C1139.69 35.517 1139.95 35.8542 1140.29 36.0966C1140.63 36.339 1141.06 36.4602 1141.56 36.4602ZM1151.38 38.1761C1150.52 38.1761 1149.78 37.9924 1149.16 37.625C1148.54 37.2538 1148.06 36.733 1147.73 36.0625C1147.39 35.3883 1147.23 34.5985 1147.23 33.6932C1147.23 32.7992 1147.39 32.0114 1147.73 31.3295C1148.06 30.6477 1148.53 30.1155 1149.13 29.733C1149.74 29.3504 1150.45 29.1591 1151.26 29.1591C1151.75 29.1591 1152.23 29.2405 1152.69 29.4034C1153.15 29.5663 1153.57 29.822 1153.94 30.1705C1154.3 30.5189 1154.59 30.9716 1154.8 31.5284C1155.02 32.0814 1155.12 32.7538 1155.12 33.5455V34.1477H1148.19V32.875H1153.46C1153.46 32.428 1153.37 32.0322 1153.19 31.6875C1153 31.339 1152.75 31.0644 1152.42 30.8636C1152.09 30.6629 1151.71 30.5625 1151.27 30.5625C1150.79 30.5625 1150.38 30.6799 1150.02 30.9148C1149.67 31.1458 1149.4 31.4489 1149.2 31.8239C1149.01 32.1951 1148.92 32.5985 1148.92 33.0341V34.0284C1148.92 34.6117 1149.02 35.108 1149.23 35.517C1149.43 35.9261 1149.72 36.2386 1150.09 36.4545C1150.47 36.6667 1150.9 36.7727 1151.4 36.7727C1151.72 36.7727 1152.01 36.7273 1152.28 36.6364C1152.54 36.5417 1152.77 36.4015 1152.96 36.2159C1153.16 36.0303 1153.3 35.8011 1153.41 35.5284L1155.02 35.8182C1154.89 36.2917 1154.66 36.7064 1154.32 37.0625C1153.99 37.4148 1153.58 37.6894 1153.08 37.8864C1152.58 38.0795 1152.02 38.1761 1151.38 38.1761ZM1164.96 29.2727V30.6364H1160.2V29.2727H1164.96ZM1161.48 27.1818H1163.17V35.4375C1163.17 35.767 1163.22 36.0152 1163.32 36.1818C1163.42 36.3447 1163.55 36.4564 1163.7 36.517C1163.86 36.5739 1164.03 36.6023 1164.22 36.6023C1164.36 36.6023 1164.48 36.5928 1164.58 36.5739C1164.68 36.5549 1164.76 36.5398 1164.82 36.5284L1165.12 37.9318C1165.02 37.9697 1164.88 38.0076 1164.7 38.0455C1164.52 38.0871 1164.29 38.1098 1164.02 38.1136C1163.57 38.1212 1163.16 38.0417 1162.77 37.875C1162.38 37.7083 1162.07 37.4508 1161.83 37.1023C1161.59 36.7538 1161.48 36.3163 1161.48 35.7898V27.1818ZM1170.25 38.1761C1169.43 38.1761 1168.72 37.9886 1168.11 37.6136C1167.5 37.2386 1167.02 36.714 1166.69 36.0398C1166.35 35.3655 1166.18 34.5777 1166.18 33.6761C1166.18 32.7708 1166.35 31.9792 1166.69 31.3011C1167.02 30.6231 1167.5 30.0966 1168.11 29.7216C1168.72 29.3466 1169.43 29.1591 1170.25 29.1591C1171.07 29.1591 1171.78 29.3466 1172.39 29.7216C1173 30.0966 1173.48 30.6231 1173.81 31.3011C1174.15 31.9792 1174.32 32.7708 1174.32 33.6761C1174.32 34.5777 1174.15 35.3655 1173.81 36.0398C1173.48 36.714 1173 37.2386 1172.39 37.6136C1171.78 37.9886 1171.07 38.1761 1170.25 38.1761ZM1170.26 36.75C1170.79 36.75 1171.23 36.6098 1171.57 36.3295C1171.92 36.0492 1172.18 35.6761 1172.35 35.2102C1172.52 34.7443 1172.6 34.2311 1172.6 33.6705C1172.6 33.1136 1172.52 32.6023 1172.35 32.1364C1172.18 31.6667 1171.92 31.2898 1171.57 31.0057C1171.23 30.7216 1170.79 30.5795 1170.26 30.5795C1169.72 30.5795 1169.28 30.7216 1168.93 31.0057C1168.58 31.2898 1168.32 31.6667 1168.15 32.1364C1167.98 32.6023 1167.9 33.1136 1167.9 33.6705C1167.9 34.2311 1167.98 34.7443 1168.15 35.2102C1168.32 35.6761 1168.58 36.0492 1168.93 36.3295C1169.28 36.6098 1169.72 36.75 1170.26 36.75ZM1082.28 62.1761C1081.44 62.1761 1080.71 61.9848 1080.1 61.6023C1079.49 61.2159 1079.03 60.6837 1078.7 60.0057C1078.38 59.3277 1078.21 58.5511 1078.21 57.6761C1078.21 56.7898 1078.38 56.0076 1078.71 55.3295C1079.05 54.6477 1079.52 54.1155 1080.12 53.733C1080.73 53.3504 1081.44 53.1591 1082.26 53.1591C1082.93 53.1591 1083.52 53.2822 1084.04 53.5284C1084.56 53.7708 1084.97 54.1117 1085.29 54.5511C1085.61 54.9905 1085.81 55.5038 1085.87 56.0909H1084.21C1084.12 55.6818 1083.91 55.3295 1083.59 55.0341C1083.27 54.7386 1082.83 54.5909 1082.29 54.5909C1081.82 54.5909 1081.4 54.7159 1081.05 54.9659C1080.7 55.2121 1080.42 55.5644 1080.22 56.0227C1080.03 56.4773 1079.93 57.0152 1079.93 57.6364C1079.93 58.2727 1080.03 58.822 1080.22 59.2841C1080.41 59.7462 1080.69 60.1042 1081.04 60.358C1081.39 60.6117 1081.81 60.7386 1082.29 60.7386C1082.61 60.7386 1082.91 60.6799 1083.17 60.5625C1083.43 60.4413 1083.65 60.2689 1083.83 60.0455C1084.01 59.822 1084.14 59.553 1084.21 59.2386H1085.87C1085.81 59.803 1085.62 60.3068 1085.32 60.75C1085.01 61.1932 1084.6 61.5417 1084.08 61.7955C1083.57 62.0492 1082.97 62.1761 1082.28 62.1761ZM1089.21 50.3636V62H1087.51V50.3636H1089.21ZM1091.32 62V53.2727H1093.01V62H1091.32ZM1092.17 51.9261C1091.88 51.9261 1091.62 51.8277 1091.41 51.6307C1091.2 51.4299 1091.1 51.1913 1091.1 50.9148C1091.1 50.6345 1091.2 50.3958 1091.41 50.1989C1091.62 49.9981 1091.88 49.8977 1092.17 49.8977C1092.47 49.8977 1092.72 49.9981 1092.93 50.1989C1093.14 50.3958 1093.25 50.6345 1093.25 50.9148C1093.25 51.1913 1093.14 51.4299 1092.93 51.6307C1092.72 51.8277 1092.47 51.9261 1092.17 51.9261ZM1098.89 62.1761C1098.03 62.1761 1097.29 61.9924 1096.66 61.625C1096.05 61.2538 1095.57 60.733 1095.23 60.0625C1094.9 59.3883 1094.73 58.5985 1094.73 57.6932C1094.73 56.7992 1094.9 56.0114 1095.23 55.3295C1095.57 54.6477 1096.04 54.1155 1096.64 53.733C1097.25 53.3504 1097.96 53.1591 1098.77 53.1591C1099.26 53.1591 1099.74 53.2405 1100.2 53.4034C1100.66 53.5663 1101.08 53.822 1101.44 54.1705C1101.81 54.5189 1102.1 54.9716 1102.31 55.5284C1102.52 56.0814 1102.63 56.7538 1102.63 57.5455V58.1477H1095.69V56.875H1100.97C1100.97 56.428 1100.87 56.0322 1100.69 55.6875C1100.51 55.339 1100.26 55.0644 1099.93 54.8636C1099.6 54.6629 1099.22 54.5625 1098.78 54.5625C1098.3 54.5625 1097.88 54.6799 1097.53 54.9148C1097.18 55.1458 1096.9 55.4489 1096.71 55.8239C1096.52 56.1951 1096.43 56.5985 1096.43 57.0341V58.0284C1096.43 58.6117 1096.53 59.108 1096.73 59.517C1096.94 59.9261 1097.23 60.2386 1097.6 60.4545C1097.97 60.6667 1098.41 60.7727 1098.9 60.7727C1099.22 60.7727 1099.52 60.7273 1099.78 60.6364C1100.05 60.5417 1100.28 60.4015 1100.47 60.2159C1100.66 60.0303 1100.81 59.8011 1100.91 59.5284L1102.52 59.8182C1102.39 60.2917 1102.16 60.7064 1101.83 61.0625C1101.5 61.4148 1101.08 61.6894 1100.58 61.8864C1100.09 62.0795 1099.52 62.1761 1098.89 62.1761ZM1106.04 56.8182V62H1104.34V53.2727H1105.97V54.6932H1106.08C1106.28 54.2311 1106.59 53.8598 1107.02 53.5795C1107.45 53.2992 1108 53.1591 1108.65 53.1591C1109.25 53.1591 1109.77 53.2841 1110.21 53.5341C1110.66 53.7803 1111.01 54.1477 1111.25 54.6364C1111.5 55.125 1111.62 55.7292 1111.62 56.4489V62H1109.92V56.6534C1109.92 56.0208 1109.76 55.5265 1109.43 55.1705C1109.1 54.8106 1108.65 54.6307 1108.07 54.6307C1107.68 54.6307 1107.33 54.7159 1107.02 54.8864C1106.72 55.0568 1106.48 55.3068 1106.3 55.6364C1106.12 55.9621 1106.04 56.3561 1106.04 56.8182ZM1117.8 53.2727V54.6364H1113.03V53.2727H1117.8ZM1114.31 51.1818H1116.01V59.4375C1116.01 59.767 1116.06 60.0152 1116.16 60.1818C1116.26 60.3447 1116.38 60.4564 1116.54 60.517C1116.7 60.5739 1116.87 60.6023 1117.06 60.6023C1117.19 60.6023 1117.31 60.5928 1117.41 60.5739C1117.52 60.5549 1117.59 60.5398 1117.65 60.5284L1117.96 61.9318C1117.86 61.9697 1117.72 62.0076 1117.54 62.0455C1117.36 62.0871 1117.13 62.1098 1116.86 62.1136C1116.41 62.1212 1115.99 62.0417 1115.61 61.875C1115.22 61.7083 1114.91 61.4508 1114.67 61.1023C1114.43 60.7538 1114.31 60.3163 1114.31 59.7898V51.1818Z" fill="#583D00" style="fill:#583D00;fill:color(display-p3 0.3459 0.2401 0.0000);fill-opacity:1;"/>
<path d="M935.5 43C934.948 43 934.5 43.4477 934.5 44C934.5 44.5523 934.948 45 935.5 45V44V43ZM1005.21 44.7071C1005.6 44.3166 1005.6 43.6834 1005.21 43.2929L998.843 36.9289C998.453 36.5384 997.819 36.5384 997.429 36.9289C997.038 37.3195 997.038 37.9526 997.429 38.3431L1003.09 44L997.429 49.6569C997.038 50.0474 997.038 50.6805 997.429 51.0711C997.819 51.4616 998.453 51.4616 998.843 51.0711L1005.21 44.7071ZM935.5 44V45H1004.5V44V43H935.5V44Z" fill="#757575" style="fill:#757575;fill:color(display-p3 0.4588 0.4588 0.4588);fill-opacity:1;"/>
</svg>
