<svg width="357" height="150" viewBox="0 0 357 150" fill="none" xmlns="http://www.w3.org/2000/svg">
<path d="M3.69886 10.4545H8.11364L18.4943 35.8097H18.8523L29.233 10.4545H33.6477V41H30.1875V17.7926H29.8892L20.3438 41H17.0028L7.45739 17.7926H7.15909V41H3.69886V10.4545ZM55.0243 31.6335V18.0909H58.5442V41H55.0243V37.1222H54.7857C54.2488 38.2855 53.4135 39.2749 52.28 40.0902C51.1465 40.8956 49.7147 41.2983 47.9846 41.2983C46.5527 41.2983 45.28 40.9851 44.1664 40.3587C43.0527 39.7223 42.1777 38.7678 41.5414 37.495C40.905 36.2124 40.5868 34.5966 40.5868 32.6477V18.0909H44.1067V32.4091C44.1067 34.0795 44.574 35.4119 45.5087 36.4062C46.4533 37.4006 47.6564 37.8977 49.1181 37.8977C49.9931 37.8977 50.883 37.674 51.7878 37.2266C52.7026 36.7791 53.4682 36.093 54.0847 35.1683C54.7111 34.2436 55.0243 33.0653 55.0243 31.6335ZM68.511 10.4545V41H64.9911V10.4545H68.511ZM81.6994 41.5369C80.2477 41.5369 78.9302 41.2635 77.747 40.7166C76.5637 40.1598 75.6241 39.3594 74.9281 38.3153C74.2321 37.2614 73.8841 35.9886 73.8841 34.4972C73.8841 33.1847 74.1426 32.1207 74.6596 31.3054C75.1767 30.4801 75.8677 29.8338 76.7328 29.3665C77.5978 28.8991 78.5524 28.5511 79.5964 28.3224C80.6504 28.0838 81.7093 27.8949 82.7733 27.7557C84.1653 27.5767 85.2939 27.4425 86.1589 27.353C87.0339 27.2536 87.6703 27.0895 88.068 26.8608C88.4757 26.6321 88.6795 26.2344 88.6795 25.6676V25.5483C88.6795 24.0767 88.2768 22.9332 87.4714 22.1179C86.676 21.3026 85.4679 20.8949 83.8471 20.8949C82.1667 20.8949 80.8493 21.2628 79.8947 21.9986C78.9402 22.7344 78.269 23.5199 77.8812 24.3551L74.5403 23.1619C75.1369 21.7699 75.9324 20.6861 76.9267 19.9105C77.9309 19.125 79.0247 18.5781 80.2079 18.2699C81.4011 17.9517 82.5744 17.7926 83.7278 17.7926C84.4636 17.7926 85.3088 17.8821 86.2633 18.0611C87.2278 18.2301 88.1575 18.5831 89.0524 19.12C89.9572 19.657 90.7079 20.4673 91.3045 21.5511C91.9011 22.6349 92.1994 24.0866 92.1994 25.9062V41H88.6795V37.8977H88.5005C88.2619 38.3949 87.8642 38.9268 87.3074 39.4936C86.7505 40.0604 86.0098 40.5426 85.0851 40.9403C84.1603 41.3381 83.0318 41.5369 81.6994 41.5369ZM82.2363 38.375C83.6284 38.375 84.8017 38.1016 85.7562 37.5547C86.7207 37.0078 87.4466 36.3018 87.9338 35.4368C88.4309 34.5717 88.6795 33.6619 88.6795 32.7074V29.4858C88.5304 29.6648 88.2022 29.8288 87.6951 29.978C87.198 30.1172 86.6213 30.2415 85.965 30.3509C85.3187 30.4503 84.6873 30.5398 84.0708 30.6193C83.4643 30.6889 82.9721 30.7486 82.5943 30.7983C81.6795 30.9176 80.8244 31.1115 80.0289 31.38C79.2434 31.6385 78.6071 32.0312 78.1199 32.5582C77.6426 33.0753 77.4039 33.7812 77.4039 34.6761C77.4039 35.8991 77.8564 36.8239 78.7612 37.4503C79.676 38.0668 80.8343 38.375 82.2363 38.375ZM98.6239 41V18.0909H102.144V41H98.6239ZM100.414 14.2727C99.7276 14.2727 99.136 14.0391 98.6388 13.5717C98.1516 13.1044 97.908 12.5426 97.908 11.8864C97.908 11.2301 98.1516 10.6683 98.6388 10.201C99.136 9.73366 99.7276 9.5 100.414 9.5C101.1 9.5 101.686 9.73366 102.174 10.201C102.671 10.6683 102.919 11.2301 102.919 11.8864C102.919 12.5426 102.671 13.1044 102.174 13.5717C101.686 14.0391 101.1 14.2727 100.414 14.2727ZM129.054 41.4773C127.145 41.4773 125.459 40.995 123.998 40.0305C122.536 39.0561 121.393 37.6839 120.567 35.9141C119.742 34.1342 119.329 32.0312 119.329 29.6051C119.329 27.1989 119.742 25.1108 120.567 23.3409C121.393 21.571 122.541 20.2038 124.013 19.2393C125.484 18.2749 127.184 17.7926 129.113 17.7926C130.605 17.7926 131.783 18.0412 132.648 18.5384C133.523 19.0256 134.189 19.5824 134.647 20.2088C135.114 20.8253 135.477 21.3324 135.736 21.7301H136.034V10.4545H139.554V41H136.153V37.4801H135.736C135.477 37.8977 135.109 38.4247 134.632 39.0611C134.155 39.6875 133.474 40.2493 132.589 40.7464C131.704 41.2337 130.525 41.4773 129.054 41.4773ZM129.531 38.3153C130.943 38.3153 132.136 37.9474 133.111 37.2116C134.085 36.4659 134.826 35.4368 135.333 34.1243C135.84 32.8018 136.094 31.2756 136.094 29.5455C136.094 27.8352 135.845 26.3388 135.348 25.0561C134.851 23.7635 134.115 22.7592 133.14 22.0433C132.166 21.3175 130.963 20.9545 129.531 20.9545C128.04 20.9545 126.797 21.3374 125.802 22.103C124.818 22.8587 124.077 23.8878 123.58 25.1903C123.093 26.483 122.849 27.9347 122.849 29.5455C122.849 31.1761 123.098 32.6577 123.595 33.9901C124.102 35.3125 124.848 36.3665 125.832 37.152C126.827 37.9276 128.059 38.3153 129.531 38.3153ZM153.231 41.5369C151.779 41.5369 150.461 41.2635 149.278 40.7166C148.095 40.1598 147.155 39.3594 146.459 38.3153C145.763 37.2614 145.415 35.9886 145.415 34.4972C145.415 33.1847 145.674 32.1207 146.191 31.3054C146.708 30.4801 147.399 29.8338 148.264 29.3665C149.129 28.8991 150.084 28.5511 151.128 28.3224C152.182 28.0838 153.241 27.8949 154.305 27.7557C155.697 27.5767 156.825 27.4425 157.69 27.353C158.565 27.2536 159.202 27.0895 159.599 26.8608C160.007 26.6321 160.211 26.2344 160.211 25.6676V25.5483C160.211 24.0767 159.808 22.9332 159.003 22.1179C158.207 21.3026 156.999 20.8949 155.378 20.8949C153.698 20.8949 152.381 21.2628 151.426 21.9986C150.471 22.7344 149.8 23.5199 149.412 24.3551L146.072 23.1619C146.668 21.7699 147.464 20.6861 148.458 19.9105C149.462 19.125 150.556 18.5781 151.739 18.2699C152.932 17.9517 154.106 17.7926 155.259 17.7926C155.995 17.7926 156.84 17.8821 157.795 18.0611C158.759 18.2301 159.689 18.5831 160.584 19.12C161.488 19.657 162.239 20.4673 162.836 21.5511C163.432 22.6349 163.731 24.0866 163.731 25.9062V41H160.211V37.8977H160.032C159.793 38.3949 159.395 38.9268 158.839 39.4936C158.282 40.0604 157.541 40.5426 156.616 40.9403C155.692 41.3381 154.563 41.5369 153.231 41.5369ZM153.768 38.375C155.16 38.375 156.333 38.1016 157.287 37.5547C158.252 37.0078 158.978 36.3018 159.465 35.4368C159.962 34.5717 160.211 33.6619 160.211 32.7074V29.4858C160.062 29.6648 159.733 29.8288 159.226 29.978C158.729 30.1172 158.153 30.2415 157.496 30.3509C156.85 30.4503 156.219 30.5398 155.602 30.6193C154.996 30.6889 154.503 30.7486 154.126 30.7983C153.211 30.9176 152.356 31.1115 151.56 31.38C150.775 31.6385 150.138 32.0312 149.651 32.5582C149.174 33.0753 148.935 33.7812 148.935 34.6761C148.935 35.8991 149.388 36.8239 150.292 37.4503C151.207 38.0668 152.366 38.375 153.768 38.375ZM170.155 41V18.0909H173.556V21.5511H173.794C174.212 20.4176 174.968 19.4979 176.061 18.7919C177.155 18.0859 178.388 17.733 179.76 17.733C180.019 17.733 180.342 17.7379 180.73 17.7479C181.118 17.7578 181.411 17.7727 181.61 17.7926V21.3722C181.49 21.3423 181.217 21.2976 180.789 21.2379C180.372 21.1683 179.929 21.1335 179.462 21.1335C178.348 21.1335 177.354 21.3672 176.479 21.8345C175.614 22.2919 174.928 22.9283 174.421 23.7436C173.924 24.549 173.675 25.4687 173.675 26.5028V41H170.155ZM185.782 41V18.0909H189.302V41H185.782ZM187.572 14.2727C186.886 14.2727 186.294 14.0391 185.797 13.5717C185.31 13.1044 185.066 12.5426 185.066 11.8864C185.066 11.2301 185.31 10.6683 185.797 10.201C186.294 9.73366 186.886 9.5 187.572 9.5C188.258 9.5 188.845 9.73366 189.332 10.201C189.829 10.6683 190.078 11.2301 190.078 11.8864C190.078 12.5426 189.829 13.1044 189.332 13.5717C188.845 14.0391 188.258 14.2727 187.572 14.2727ZM217.823 41.4176C215.854 41.4176 214.099 41.0795 212.558 40.4034C211.027 39.7273 209.809 38.7876 208.904 37.5845C208.009 36.3714 207.522 34.9645 207.442 33.3636H211.201C211.28 34.348 211.618 35.1982 212.215 35.9141C212.811 36.62 213.592 37.1669 214.556 37.5547C215.521 37.9425 216.59 38.1364 217.763 38.1364C219.076 38.1364 220.239 37.9077 221.253 37.4503C222.267 36.9929 223.063 36.3565 223.64 35.5412C224.216 34.7259 224.505 33.7812 224.505 32.7074C224.505 31.5838 224.226 30.5945 223.669 29.7393C223.113 28.8743 222.297 28.1982 221.223 27.7109C220.15 27.2237 218.837 26.9801 217.286 26.9801H214.84V23.6989H217.286C218.499 23.6989 219.563 23.4801 220.478 23.0426C221.402 22.6051 222.123 21.9886 222.64 21.1932C223.167 20.3977 223.431 19.4631 223.431 18.3892C223.431 17.3551 223.202 16.4553 222.745 15.6896C222.287 14.924 221.641 14.3274 220.806 13.8999C219.98 13.4723 219.006 13.2585 217.882 13.2585C216.828 13.2585 215.834 13.4524 214.9 13.8402C213.975 14.218 213.219 14.7699 212.632 15.4957C212.046 16.2116 211.728 17.0767 211.678 18.0909H208.098C208.158 16.4901 208.64 15.0881 209.545 13.8849C210.45 12.6719 211.633 11.7273 213.095 11.0511C214.566 10.375 216.182 10.0369 217.942 10.0369C219.831 10.0369 221.452 10.4197 222.804 11.1854C224.157 11.941 225.196 12.9403 225.922 14.1832C226.647 15.4261 227.01 16.7685 227.01 18.2102C227.01 19.9304 226.558 21.397 225.653 22.6101C224.758 23.8232 223.54 24.6634 221.999 25.1307V25.3693C223.928 25.6875 225.434 26.5078 226.518 27.8303C227.602 29.1428 228.144 30.7685 228.144 32.7074C228.144 34.3679 227.691 35.8594 226.787 37.1818C225.892 38.4943 224.669 39.5284 223.118 40.2841C221.566 41.0398 219.801 41.4176 217.823 41.4176ZM234.244 41V38.3153L244.326 27.2784C245.51 25.9858 246.484 24.8622 247.25 23.9077C248.015 22.9432 248.582 22.0384 248.95 21.1932C249.328 20.3381 249.517 19.4432 249.517 18.5085C249.517 17.4347 249.258 16.505 248.741 15.7195C248.234 14.9339 247.538 14.3274 246.653 13.8999C245.768 13.4723 244.774 13.2585 243.67 13.2585C242.497 13.2585 241.473 13.5021 240.598 13.9893C239.733 14.4666 239.061 15.1378 238.584 16.0028C238.117 16.8679 237.883 17.8821 237.883 19.0455H234.363C234.363 17.2557 234.776 15.6847 235.601 14.3324C236.426 12.9801 237.55 11.9261 238.972 11.1705C240.404 10.4148 242.01 10.0369 243.789 10.0369C245.579 10.0369 247.165 10.4148 248.547 11.1705C249.929 11.9261 251.013 12.9453 251.799 14.228C252.584 15.5107 252.977 16.9375 252.977 18.5085C252.977 19.6321 252.773 20.7308 252.365 21.8047C251.968 22.8686 251.272 24.0568 250.277 25.3693C249.293 26.6719 247.926 28.2628 246.176 30.142L239.315 37.4801V37.7188H253.514V41H234.244ZM262.299 41.2386C261.563 41.2386 260.931 40.9751 260.404 40.4482C259.877 39.9212 259.614 39.2898 259.614 38.554C259.614 37.8182 259.877 37.1868 260.404 36.6598C260.931 36.1328 261.563 35.8693 262.299 35.8693C263.034 35.8693 263.666 36.1328 264.193 36.6598C264.72 37.1868 264.983 37.8182 264.983 38.554C264.983 39.0412 264.859 39.4886 264.61 39.8963C264.372 40.304 264.049 40.6321 263.641 40.8807C263.243 41.1193 262.796 41.2386 262.299 41.2386ZM280.137 41.4176C277.89 41.4176 275.975 40.8061 274.395 39.5831C272.814 38.3501 271.605 36.5653 270.77 34.2287C269.935 31.8821 269.517 29.0483 269.517 25.7273C269.517 22.4261 269.935 19.6072 270.77 17.2706C271.615 14.924 272.828 13.1342 274.409 11.9013C276 10.6584 277.909 10.0369 280.137 10.0369C282.364 10.0369 284.268 10.6584 285.849 11.9013C287.44 13.1342 288.653 14.924 289.488 17.2706C290.333 19.6072 290.756 22.4261 290.756 25.7273C290.756 29.0483 290.338 31.8821 289.503 34.2287C288.668 36.5653 287.46 38.3501 285.879 39.5831C284.298 40.8061 282.384 41.4176 280.137 41.4176ZM280.137 38.1364C282.364 38.1364 284.094 37.0625 285.327 34.9148C286.56 32.767 287.176 29.7045 287.176 25.7273C287.176 23.0824 286.893 20.8303 286.326 18.9709C285.77 17.1115 284.964 15.6946 283.91 14.7202C282.866 13.7457 281.608 13.2585 280.137 13.2585C277.929 13.2585 276.204 14.3473 274.961 16.5249C273.718 18.6925 273.097 21.7599 273.097 25.7273C273.097 28.3722 273.375 30.6193 273.932 32.4688C274.489 34.3182 275.289 35.7251 276.333 36.6896C277.387 37.6541 278.655 38.1364 280.137 38.1364ZM306.387 41.4176C304.14 41.4176 302.225 40.8061 300.645 39.5831C299.064 38.3501 297.855 36.5653 297.02 34.2287C296.185 31.8821 295.767 29.0483 295.767 25.7273C295.767 22.4261 296.185 19.6072 297.02 17.2706C297.865 14.924 299.078 13.1342 300.659 11.9013C302.25 10.6584 304.159 10.0369 306.387 10.0369C308.614 10.0369 310.518 10.6584 312.099 11.9013C313.69 13.1342 314.903 14.924 315.738 17.2706C316.583 19.6072 317.006 22.4261 317.006 25.7273C317.006 29.0483 316.588 31.8821 315.753 34.2287C314.918 36.5653 313.71 38.3501 312.129 39.5831C310.548 40.8061 308.634 41.4176 306.387 41.4176ZM306.387 38.1364C308.614 38.1364 310.344 37.0625 311.577 34.9148C312.81 32.767 313.426 29.7045 313.426 25.7273C313.426 23.0824 313.143 20.8303 312.576 18.9709C312.02 17.1115 311.214 15.6946 310.16 14.7202C309.116 13.7457 307.858 13.2585 306.387 13.2585C304.179 13.2585 302.454 14.3473 301.211 16.5249C299.968 18.6925 299.347 21.7599 299.347 25.7273C299.347 28.3722 299.625 30.6193 300.182 32.4688C300.739 34.3182 301.539 35.7251 302.583 36.6896C303.637 37.6541 304.905 38.1364 306.387 38.1364ZM332.637 41.4176C330.39 41.4176 328.475 40.8061 326.895 39.5831C325.314 38.3501 324.105 36.5653 323.27 34.2287C322.435 31.8821 322.017 29.0483 322.017 25.7273C322.017 22.4261 322.435 19.6072 323.27 17.2706C324.115 14.924 325.328 13.1342 326.909 11.9013C328.5 10.6584 330.409 10.0369 332.637 10.0369C334.864 10.0369 336.768 10.6584 338.349 11.9013C339.94 13.1342 341.153 14.924 341.988 17.2706C342.833 19.6072 343.256 22.4261 343.256 25.7273C343.256 29.0483 342.838 31.8821 342.003 34.2287C341.168 36.5653 339.96 38.3501 338.379 39.5831C336.798 40.8061 334.884 41.4176 332.637 41.4176ZM332.637 38.1364C334.864 38.1364 336.594 37.0625 337.827 34.9148C339.06 32.767 339.676 29.7045 339.676 25.7273C339.676 23.0824 339.393 20.8303 338.826 18.9709C338.27 17.1115 337.464 15.6946 336.41 14.7202C335.366 13.7457 334.108 13.2585 332.637 13.2585C330.429 13.2585 328.704 14.3473 327.461 16.5249C326.218 18.6925 325.597 21.7599 325.597 25.7273C325.597 28.3722 325.875 30.6193 326.432 32.4688C326.989 34.3182 327.789 35.7251 328.833 36.6896C329.887 37.6541 331.155 38.1364 332.637 38.1364Z" fill="black"/>
<path d="M3.69886 92V61.4545H14.0199C16.4063 61.4545 18.3651 61.8622 19.8963 62.6776C21.4276 63.483 22.5611 64.5916 23.2969 66.0036C24.0327 67.4155 24.4006 69.0213 24.4006 70.821C24.4006 72.6207 24.0327 74.2166 23.2969 75.6087C22.5611 77.0007 21.4325 78.0945 19.9112 78.8899C18.3899 79.6754 16.446 80.0682 14.0795 80.0682H5.72727V76.7273H13.9602C15.5909 76.7273 16.9034 76.4886 17.8977 76.0114C18.902 75.5341 19.6278 74.858 20.0753 73.983C20.5327 73.098 20.7614 72.044 20.7614 70.821C20.7614 69.598 20.5327 68.5291 20.0753 67.6143C19.6179 66.6996 18.8871 65.9936 17.8828 65.4964C16.8786 64.9893 15.5511 64.7358 13.9006 64.7358H7.39773V92H3.69886ZM18.0767 78.2784L25.5938 92H21.2983L13.9006 78.2784H18.0767ZM30.0868 100.591V69.0909H33.4874V72.7301H33.905C34.1635 72.3324 34.5215 71.8253 34.9789 71.2088C35.4462 70.5824 36.1124 70.0256 36.9775 69.5384C37.8525 69.0412 39.0357 68.7926 40.5272 68.7926C42.4561 68.7926 44.1564 69.2749 45.628 70.2393C47.0996 71.2038 48.248 72.571 49.0733 74.3409C49.8986 76.1108 50.3113 78.1989 50.3113 80.6051C50.3113 83.0312 49.8986 85.1342 49.0733 86.9141C48.248 88.6839 47.1046 90.0561 45.6429 91.0305C44.1813 91.995 42.4959 92.4773 40.5868 92.4773C39.1152 92.4773 37.937 92.2337 37.052 91.7464C36.1671 91.2493 35.486 90.6875 35.0087 90.0611C34.5314 89.4247 34.1635 88.8977 33.905 88.4801H33.6067V100.591H30.0868ZM33.5471 80.5455C33.5471 82.2756 33.8006 83.8018 34.3077 85.1243C34.8148 86.4368 35.5556 87.4659 36.53 88.2116C37.5044 88.9474 38.6976 89.3153 40.1096 89.3153C41.5811 89.3153 42.8091 88.9276 43.7935 88.152C44.7878 87.3665 45.5336 86.3125 46.0307 84.9901C46.5378 83.6577 46.7914 82.1761 46.7914 80.5455C46.7914 78.9347 46.5428 77.483 46.0456 76.1903C45.5584 74.8878 44.8177 73.8587 43.8233 73.103C42.839 72.3374 41.601 71.9545 40.1096 71.9545C38.6777 71.9545 37.4746 72.3175 36.5002 73.0433C35.5257 73.7592 34.79 74.7635 34.2928 76.0561C33.7956 77.3388 33.5471 78.8352 33.5471 80.5455Z" fill="black"/>
<path d="M63.8338 130V120.915L85.0618 101.259C86.8672 99.5121 88.3814 97.9396 89.6044 96.5419C90.8468 95.1442 91.7884 93.7756 92.429 92.4361C93.0696 91.0772 93.3899 89.6115 93.3899 88.0391C93.3899 86.2919 92.992 84.7874 92.196 83.5256C91.4001 82.2443 90.313 81.264 88.9347 80.5845C87.5563 79.8857 85.9936 79.5362 84.2464 79.5362C82.4216 79.5362 80.8298 79.9051 79.4709 80.6428C78.112 81.3804 77.0637 82.4384 76.326 83.8168C75.5883 85.1951 75.2195 86.8355 75.2195 88.7379H63.2514C63.2514 84.8359 64.1347 81.4484 65.9013 78.5753C67.6679 75.7022 70.143 73.4794 73.3267 71.907C76.5104 70.3345 80.1795 69.5483 84.3338 69.5483C88.6046 69.5483 92.3222 70.3054 95.4865 71.8196C98.6702 73.3144 101.145 75.3916 102.912 78.0511C104.679 80.7107 105.562 83.7585 105.562 87.1946C105.562 89.4465 105.115 91.6693 104.222 93.8629C103.349 96.0566 101.786 98.4929 99.5341 101.172C97.2822 103.831 94.1082 107.025 90.0121 110.752L81.3054 119.284V119.692H106.348V130H63.8338ZM138.867 131.31C133.858 131.291 129.549 130.058 125.938 127.612C122.347 125.166 119.58 121.623 117.639 116.984C115.717 112.344 114.766 106.763 114.785 100.24C114.785 93.7367 115.746 88.1944 117.668 83.6129C119.609 79.0315 122.376 75.5469 125.967 73.1591C129.578 70.7519 133.878 69.5483 138.867 69.5483C143.856 69.5483 148.146 70.7519 151.738 73.1591C155.349 75.5663 158.125 79.0606 160.066 83.642C162.007 88.2041 162.968 93.7367 162.949 100.24C162.949 106.782 161.978 112.373 160.037 117.013C158.115 121.652 155.358 125.195 151.767 127.641C148.175 130.087 143.876 131.31 138.867 131.31ZM138.867 120.857C142.284 120.857 145.011 119.138 147.05 115.702C149.088 112.266 150.097 107.112 150.078 100.24C150.078 95.7169 149.612 91.9508 148.68 88.9418C147.768 85.9328 146.467 83.6712 144.778 82.157C143.109 80.6428 141.138 79.8857 138.867 79.8857C135.47 79.8857 132.752 81.5843 130.714 84.9815C128.675 88.3788 127.646 93.465 127.627 100.24C127.627 104.821 128.083 108.646 128.996 111.713C129.927 114.761 131.238 117.052 132.927 118.585C134.616 120.099 136.596 120.857 138.867 120.857ZM176.904 130.757C174.982 130.757 173.332 130.078 171.954 128.719C170.595 127.34 169.915 125.69 169.915 123.768C169.915 121.866 170.595 120.235 171.954 118.876C173.332 117.518 174.982 116.838 176.904 116.838C178.768 116.838 180.398 117.518 181.796 118.876C183.194 120.235 183.893 121.866 183.893 123.768C183.893 125.05 183.563 126.224 182.903 127.292C182.262 128.34 181.418 129.185 180.369 129.825C179.321 130.446 178.166 130.757 176.904 130.757ZM214.941 131.31C209.933 131.291 205.623 130.058 202.012 127.612C198.421 125.166 195.655 121.623 193.713 116.984C191.791 112.344 190.84 106.763 190.86 100.24C190.86 93.7367 191.82 88.1944 193.742 83.6129C195.684 79.0315 198.45 75.5469 202.041 73.1591C205.652 70.7519 209.952 69.5483 214.941 69.5483C219.93 69.5483 224.221 70.7519 227.812 73.1591C231.423 75.5663 234.199 79.0606 236.14 83.642C238.081 88.2041 239.042 93.7367 239.023 100.24C239.023 106.782 238.052 112.373 236.111 117.013C234.189 121.652 231.432 125.195 227.841 127.641C224.25 130.087 219.95 131.31 214.941 131.31ZM214.941 120.857C218.358 120.857 221.085 119.138 223.124 115.702C225.162 112.266 226.172 107.112 226.152 100.24C226.152 95.7169 225.686 91.9508 224.754 88.9418C223.842 85.9328 222.541 83.6712 220.852 82.157C219.183 80.6428 217.213 79.8857 214.941 79.8857C211.544 79.8857 208.826 81.5843 206.788 84.9815C204.749 88.3788 203.721 93.465 203.701 100.24C203.701 104.821 204.157 108.646 205.07 111.713C206.002 114.761 207.312 117.052 209.001 118.585C210.69 120.099 212.67 120.857 214.941 120.857ZM271.396 131.31C266.388 131.291 262.078 130.058 258.467 127.612C254.876 125.166 252.11 121.623 250.168 116.984C248.246 112.344 247.295 106.763 247.315 100.24C247.315 93.7367 248.276 88.1944 250.197 83.6129C252.139 79.0315 254.905 75.5469 258.496 73.1591C262.107 70.7519 266.407 69.5483 271.396 69.5483C276.385 69.5483 280.676 70.7519 284.267 73.1591C287.878 75.5663 290.654 79.0606 292.595 83.642C294.536 88.2041 295.497 93.7367 295.478 100.24C295.478 106.782 294.507 112.373 292.566 117.013C290.644 121.652 287.888 125.195 284.296 127.641C280.705 130.087 276.405 131.31 271.396 131.31ZM271.396 120.857C274.813 120.857 277.54 119.138 279.579 115.702C281.617 112.266 282.627 107.112 282.607 100.24C282.607 95.7169 282.141 91.9508 281.21 88.9418C280.297 85.9328 278.996 83.6712 277.308 82.157C275.638 80.6428 273.668 79.8857 271.396 79.8857C267.999 79.8857 265.281 81.5843 263.243 84.9815C261.205 88.3788 260.176 93.465 260.156 100.24C260.156 104.821 260.612 108.646 261.525 111.713C262.457 114.761 263.767 117.052 265.456 118.585C267.145 120.099 269.125 120.857 271.396 120.857ZM327.851 131.31C322.843 131.291 318.533 130.058 314.922 127.612C311.331 125.166 308.565 121.623 306.623 116.984C304.702 112.344 303.75 106.763 303.77 100.24C303.77 93.7367 304.731 88.1944 306.653 83.6129C308.594 79.0315 311.36 75.5469 314.952 73.1591C318.562 70.7519 322.862 69.5483 327.851 69.5483C332.84 69.5483 337.131 70.7519 340.722 73.1591C344.333 75.5663 347.109 79.0606 349.05 83.642C350.992 88.2041 351.952 93.7367 351.933 100.24C351.933 106.782 350.962 112.373 349.021 117.013C347.099 121.652 344.343 125.195 340.751 127.641C337.16 130.087 332.86 131.31 327.851 131.31ZM327.851 120.857C331.268 120.857 333.996 119.138 336.034 115.702C338.072 112.266 339.082 107.112 339.062 100.24C339.062 95.7169 338.596 91.9508 337.665 88.9418C336.752 85.9328 335.452 83.6712 333.763 82.157C332.093 80.6428 330.123 79.8857 327.851 79.8857C324.454 79.8857 321.736 81.5843 319.698 84.9815C317.66 88.3788 316.631 93.465 316.611 100.24C316.611 104.821 317.068 108.646 317.98 111.713C318.912 114.761 320.222 117.052 321.911 118.585C323.6 120.099 325.58 120.857 327.851 120.857Z" fill="black"/>
<path d="M202.5 36L345.5 16" stroke="#FF0000" stroke-width="5"/>
</svg>
