<svg width="192" height="51" viewBox="0 0 192 51" fill="none" xmlns="http://www.w3.org/2000/svg">
<g filter="url(#filter0_dii_1_192)">
<rect width="192" height="47" rx="15" fill="#FFFCF3" style="fill:#FFFCF3;fill:color(display-p3 1.0000 0.9901 0.9519);fill-opacity:1;"/>
<path d="M91.876 28.6602H91.9238L93.7354 22.8086H95.2939L92.6143 30.335C92.0811 31.8252 91.3291 32.3994 89.9209 32.3994C89.6338 32.3994 89.3262 32.3652 89.1484 32.3311V31.1758C89.2646 31.2031 89.4355 31.2305 89.6338 31.2305C90.3311 31.2305 90.7139 31.0459 90.96 30.3486L91.083 30.0068L88.4648 22.8086H90.0645L91.876 28.6602ZM74.499 22.6719C76.3311 22.6719 77.5068 24.1074 77.5068 26.4043V26.4111C77.5068 28.7012 76.3242 30.1436 74.5195 30.1436C73.501 30.1436 72.6738 29.624 72.25 28.79H72.2158V32.3926H70.7393V22.8086H72.2158V24.0459H72.25C72.6807 23.1914 73.4736 22.6719 74.499 22.6719ZM118.201 19.9717C120.375 19.9717 122.009 21.3115 122.316 23.2598L122.33 23.3213H120.812L120.771 23.1846C120.443 22.0293 119.527 21.3252 118.201 21.3252C116.369 21.3252 115.193 22.7744 115.193 25.0576V25.0645C115.193 27.3477 116.376 28.8105 118.201 28.8105C119.514 28.8105 120.423 28.127 120.792 26.876L120.812 26.8145H122.33L122.323 26.8828C122.016 28.8447 120.382 30.1641 118.201 30.1641C115.405 30.1641 113.628 28.1953 113.628 25.0645V25.0576C113.628 21.9268 115.405 19.9717 118.201 19.9717ZM66.3369 22.6719C68.3535 22.6719 69.5908 24.1211 69.5908 26.2812V26.7803H64.498C64.5254 28.1406 65.2705 28.9336 66.4463 28.9336C67.3213 28.9336 67.9023 28.4824 68.0869 27.9424L68.1074 27.8877H69.5088L69.4951 27.9629C69.2627 29.1045 68.1553 30.1436 66.4121 30.1436C64.2998 30.1436 63.0215 28.7012 63.0215 26.4316V26.4248C63.0215 24.1758 64.3203 22.6719 66.3369 22.6719ZM84.7871 22.6719C86.8379 22.6719 88.2051 24.0869 88.2051 26.3906V26.4043C88.2051 28.7217 86.8516 30.1436 84.7939 30.1436C82.7295 30.1436 81.3828 28.7148 81.3828 26.4043V26.3906C81.3828 24.0938 82.7432 22.6719 84.7871 22.6719ZM100.927 22.8086H102.273V23.9844H100.927V28.0176C100.927 28.749 101.255 28.9678 101.877 28.9678C102.034 28.9678 102.164 28.9541 102.273 28.9404V30.082C102.103 30.1094 101.822 30.1436 101.521 30.1436C100.1 30.1436 99.416 29.542 99.416 28.1064V23.9844H98.3838V22.8086H99.416V20.9355H100.927V22.8086ZM106.402 22.6719C108.453 22.6719 109.82 24.0869 109.82 26.3906V26.4043C109.82 28.7217 108.467 30.1436 106.409 30.1436C104.345 30.1436 102.998 28.7148 102.998 26.4043V26.3906C102.998 24.0938 104.358 22.6719 106.402 22.6719ZM129.672 22.6719C131.723 22.6719 133.09 24.0869 133.09 26.3906V26.4043C133.09 28.7217 131.736 30.1436 129.679 30.1436C127.614 30.1436 126.268 28.7148 126.268 26.4043V26.3906C126.268 24.0938 127.628 22.6719 129.672 22.6719ZM135.674 27.1836C135.674 28.2705 136.18 28.8721 137.205 28.8721C138.244 28.8721 138.914 28.127 138.914 27.0059V22.8086H140.397V30H138.914V28.9199H138.88C138.504 29.6445 137.772 30.1436 136.679 30.1436C135.1 30.1436 134.197 29.125 134.197 27.4707V22.8086H135.674V27.1836ZM148.313 30H146.83V28.7832H146.803C146.372 29.624 145.579 30.1436 144.547 30.1436C142.715 30.1436 141.539 28.6943 141.539 26.4043V26.3975C141.539 24.1074 142.729 22.6719 144.533 22.6719C145.552 22.6719 146.372 23.1846 146.803 24.0322H146.83V20.1357H148.313V30ZM171.925 22.6719C173.941 22.6719 175.179 24.1211 175.179 26.2812V26.7803H170.086C170.113 28.1406 170.858 28.9336 172.034 28.9336C172.909 28.9336 173.49 28.4824 173.675 27.9424L173.695 27.8877H175.097L175.083 27.9629C174.851 29.1045 173.743 30.1436 172 30.1436C169.888 30.1436 168.609 28.7012 168.609 26.4316V26.4248C168.609 24.1758 169.908 22.6719 171.925 22.6719ZM160.345 22.6719C162.102 22.6719 163.216 23.6016 163.216 25.0439V30H161.732V28.8652H161.705C161.288 29.6377 160.454 30.1299 159.504 30.1299C158.068 30.1299 157.104 29.248 157.104 27.9561V27.9424C157.104 26.6914 158.075 25.9258 159.777 25.8232L161.732 25.707V25.167C161.732 24.374 161.22 23.8955 160.304 23.8955C159.449 23.8955 158.923 24.2988 158.8 24.873L158.786 24.9346H157.392L157.398 24.8594C157.501 23.6221 158.574 22.6719 160.345 22.6719ZM57.3887 20.1357C60.3145 20.1357 62.0576 21.9336 62.0576 25.0371V25.0508C62.0576 28.168 60.3281 30 57.3887 30H53.9092V20.1357H57.3887ZM80.1865 30H78.71V20.1357H80.1865V30ZM125.071 30H123.595V20.1357H125.071V30ZM152.381 19.9922C152.682 19.9922 153.01 20.0195 153.208 20.0537V21.1475C153.064 21.127 152.88 21.1133 152.695 21.1133C152.032 21.1133 151.718 21.4346 151.718 22.0703V22.8086H153.181V23.9844H151.745V30H150.262V23.9844H149.271V22.8086H150.262V22.043C150.262 20.6484 150.918 19.9922 152.381 19.9922ZM155.874 30H154.397V20.1357H155.874V30ZM167.816 22.6719C168.028 22.6719 168.213 22.7061 168.329 22.7266V24.1006C168.213 24.0527 167.953 24.0186 167.666 24.0186C166.716 24.0186 166.128 24.6406 166.128 25.7139V30H164.651V22.8086H166.128V24.0391H166.162C166.395 23.1982 166.996 22.6719 167.816 22.6719ZM159.976 26.8555C159.087 26.9102 158.595 27.2998 158.595 27.9082V27.9219C158.595 28.5508 159.114 28.9473 159.907 28.9473C160.946 28.9473 161.732 28.2432 161.732 27.3066V26.7461L159.976 26.8555ZM84.7871 23.9092C83.6523 23.9092 82.8936 24.8184 82.8936 26.3906V26.4043C82.8936 27.9971 83.6455 28.9062 84.8008 28.9062C85.9561 28.9062 86.6943 27.9902 86.6943 26.4043V26.3906C86.6943 24.8184 85.9424 23.9092 84.7871 23.9092ZM106.402 23.9092C105.268 23.9092 104.509 24.8184 104.509 26.3906V26.4043C104.509 27.9971 105.261 28.9062 106.416 28.9062C107.571 28.9062 108.31 27.9902 108.31 26.4043V26.3906C108.31 24.8184 107.558 23.9092 106.402 23.9092ZM129.672 23.9092C128.537 23.9092 127.778 24.8184 127.778 26.3906V26.4043C127.778 27.9971 128.53 28.9062 129.686 28.9062C130.841 28.9062 131.579 27.9902 131.579 26.4043V26.3906C131.579 24.8184 130.827 23.9092 129.672 23.9092ZM74.1162 23.9365C72.9951 23.9365 72.209 24.9072 72.209 26.4043V26.4111C72.209 27.9014 73.002 28.8721 74.1162 28.8721C75.2783 28.8721 76.0029 27.9287 76.0029 26.4111V26.4043C76.0029 24.873 75.2715 23.9365 74.1162 23.9365ZM144.937 23.9365C143.774 23.9365 143.05 24.8799 143.05 26.3975V26.4043C143.05 27.9355 143.768 28.8721 144.937 28.8721C146.051 28.8721 146.837 27.9014 146.837 26.4043V26.3975C146.837 24.9072 146.044 23.9365 144.937 23.9365ZM55.4404 28.6738H57.2451C59.3369 28.6738 60.4922 27.3955 60.4922 25.0645V25.0508C60.4922 22.7334 59.3232 21.4551 57.2451 21.4551H55.4404V28.6738ZM66.3438 23.8818C65.3867 23.8818 64.6484 24.5312 64.5186 25.7344H68.1279C68.0049 24.4902 67.3076 23.8818 66.3438 23.8818ZM171.932 23.8818C170.975 23.8818 170.236 24.5312 170.106 25.7344H173.716C173.593 24.4902 172.896 23.8818 171.932 23.8818Z" fill="black" style="fill:black;fill-opacity:1;"/>
<g clip-path="url(#clip0_1_192)">
<path d="M23.4271 13.3166L26.3726 18.4986L23.6677 23.2469C23.4047 23.7074 23.4047 24.2694 23.6677 24.73L26.3726 29.49L23.4272 34.672C22.8731 34.4041 22.4128 33.9817 22.1048 33.4587L17.4164 25.5154C16.8612 24.5728 16.8612 23.4098 17.4164 22.4671L22.1049 14.524C22.4138 14.003 22.874 13.5828 23.4273 13.3164L23.4271 13.3166Z" fill="url(#paint0_linear_1_192)" style=""/>
<path d="M23.6677 23.2528C23.4069 23.7117 23.4069 24.271 23.6677 24.7299L26.3726 29.4899L23.4272 34.672C22.8731 34.4041 22.4128 33.9817 22.1048 33.4587L17.4164 25.5154C17.0437 24.8882 19.1295 24.1378 23.6678 23.2585V23.2527L23.6677 23.2528Z" fill="url(#paint1_linear_1_192)" style=""/>
<path d="M23.7277 13.8383L26.3726 18.4986L25.9338 19.2431L23.6016 15.3917C22.9283 14.319 21.9004 14.8759 20.6142 17.0449L20.8065 16.7224L22.1048 14.5241C22.4104 14.0049 22.8663 13.5848 23.4152 13.3165L23.7218 13.8383H23.7277Z" fill="url(#paint2_linear_1_192)" style=""/>
<path d="M36.8916 14.5241L41.5801 22.4672C42.1392 23.4051 42.1392 24.5776 41.5801 25.5155L36.8916 33.4586C36.3343 34.3999 35.3013 34.982 34.1867 34.9828H29.4982L35.3288 24.73C35.5895 24.271 35.5895 23.7118 35.3288 23.2528L29.4982 13H34.1867C35.3013 13.0007 36.3343 13.5828 36.8916 14.5241Z" fill="url(#paint3_linear_1_192)" style=""/>
<path d="M33.9463 34.9476L29.3179 34.9886L34.9201 24.683C35.1742 24.2182 35.1742 23.659 34.9201 23.1941L29.3178 13H30.3758L36.2544 23.1472C36.5375 23.6344 36.5352 24.2332 36.2483 24.7183C34.9832 26.8628 33.7269 29.0122 32.4796 31.1666C31.3375 33.1245 31.8304 34.3848 33.9462 34.9475L33.9463 34.9476Z" fill="url(#paint4_linear_1_192)" style=""/>
<path d="M24.8098 34.9828C24.3289 34.9828 23.8479 34.8713 23.4272 34.672L29.2097 24.5013C29.3898 24.1844 29.3898 23.7983 29.2097 23.4813L23.4272 13.3166C23.857 13.109 24.3302 13.0007 24.8098 13H29.4982L35.3288 23.2528C35.5896 23.7117 35.5896 24.271 35.3288 24.7299L29.4982 34.9829H24.8098V34.9828Z" fill="url(#paint5_linear_1_192)" style=""/>
<path d="M34.9201 23.4813L28.9572 13H29.4982L35.3288 23.2528C35.5895 23.7117 35.5895 24.271 35.3288 24.7299L29.4982 34.9829H28.9572L34.9201 24.5014C35.1003 24.1845 35.1003 23.7983 34.9201 23.4813Z" fill="url(#paint6_linear_1_192)" style=""/>
<path d="M29.2097 23.4813L23.4272 13.3166C23.6075 13.2228 23.8239 13.1524 24.0283 13.0937C25.3026 15.3272 27.1841 18.7155 29.6786 23.2528C29.9394 23.7117 29.9394 24.271 29.6786 24.7299L23.9382 34.8656C23.7338 34.807 23.6256 34.7659 23.4333 34.678L29.2037 24.5073C29.3839 24.1904 29.3839 23.8043 29.2037 23.4873L29.2097 23.4813Z" fill="url(#paint7_linear_1_192)" style=""/>
</g>
</g>
<defs>
<filter id="filter0_dii_1_192" x="0" y="-4" width="192" height="55" filterUnits="userSpaceOnUse" color-interpolation-filters="sRGB">
<feFlood flood-opacity="0" result="BackgroundImageFix"/>
<feColorMatrix in="SourceAlpha" type="matrix" values="0 0 0 0 0 0 0 0 0 0 0 0 0 0 0 0 0 0 127 0" result="hardAlpha"/>
<feOffset dy="4"/>
<feComposite in2="hardAlpha" operator="out"/>
<feColorMatrix type="matrix" values="0 0 0 0 1 0 0 0 0 0.584314 0 0 0 0 0 0 0 0 1 0"/>
<feBlend mode="normal" in2="BackgroundImageFix" result="effect1_dropShadow_1_192"/>
<feBlend mode="normal" in="SourceGraphic" in2="effect1_dropShadow_1_192" result="shape"/>
<feColorMatrix in="SourceAlpha" type="matrix" values="0 0 0 0 0 0 0 0 0 0 0 0 0 0 0 0 0 0 127 0" result="hardAlpha"/>
<feOffset dy="4"/>
<feGaussianBlur stdDeviation="2"/>
<feComposite in2="hardAlpha" operator="arithmetic" k2="-1" k3="1"/>
<feColorMatrix type="matrix" values="0 0 0 0 1 0 0 0 0 0.982352 0 0 0 0 0.942308 0 0 0 1 0"/>
<feBlend mode="normal" in2="shape" result="effect2_innerShadow_1_192"/>
<feColorMatrix in="SourceAlpha" type="matrix" values="0 0 0 0 0 0 0 0 0 0 0 0 0 0 0 0 0 0 127 0" result="hardAlpha"/>
<feOffset dy="-4"/>
<feGaussianBlur stdDeviation="2"/>
<feComposite in2="hardAlpha" operator="arithmetic" k2="-1" k3="1"/>
<feColorMatrix type="matrix" values="0 0 0 0 1 0 0 0 0 0.913189 0 0 0 0 0.841346 0 0 0 1 0"/>
<feBlend mode="normal" in2="effect2_innerShadow_1_192" result="effect3_innerShadow_1_192"/>
</filter>
<linearGradient id="paint0_linear_1_192" x1="21.6863" y1="34.672" x2="19.5188" y2="15.1621" gradientUnits="userSpaceOnUse">
<stop stop-color="#EB6F07" style="stop-color:#EB6F07;stop-color:color(display-p3 0.9216 0.4353 0.0275);stop-opacity:1;"/>
<stop offset="1" stop-color="#FAB743" style="stop-color:#FAB743;stop-color:color(display-p3 0.9804 0.7176 0.2627);stop-opacity:1;"/>
</linearGradient>
<linearGradient id="paint1_linear_1_192" x1="24.6628" y1="32.8107" x2="21.1541" y2="26.5454" gradientUnits="userSpaceOnUse">
<stop stop-color="#D96504" stop-opacity="0.7" style="stop-color:#D96504;stop-color:color(display-p3 0.8510 0.3961 0.0157);stop-opacity:0.7;"/>
<stop offset="1" stop-color="#D96504" stop-opacity="0" style="stop-color:none;stop-opacity:0;"/>
</linearGradient>
<linearGradient id="paint2_linear_1_192" x1="23.0327" y1="13.8321" x2="25.36" y2="18.1016" gradientUnits="userSpaceOnUse">
<stop stop-color="#EB6F07" stop-opacity="0.5" style="stop-color:#EB6F07;stop-color:color(display-p3 0.9216 0.4353 0.0275);stop-opacity:0.5;"/>
<stop offset="1" stop-color="#EB720A" stop-opacity="0" style="stop-color:none;stop-opacity:0;"/>
</linearGradient>
<linearGradient id="paint3_linear_1_192" x1="35.7488" y1="34.9828" x2="32.8566" y2="14.8915" gradientUnits="userSpaceOnUse">
<stop stop-color="#EE6F05" style="stop-color:#EE6F05;stop-color:color(display-p3 0.9333 0.4353 0.0196);stop-opacity:1;"/>
<stop offset="1" stop-color="#FAB743" style="stop-color:#FAB743;stop-color:color(display-p3 0.9804 0.7176 0.2627);stop-opacity:1;"/>
</linearGradient>
<linearGradient id="paint4_linear_1_192" x1="26.9448" y1="34.9886" x2="35.4919" y2="12.8533" gradientUnits="userSpaceOnUse">
<stop stop-color="#D96504" stop-opacity="0.8" style="stop-color:#D96504;stop-color:color(display-p3 0.8510 0.3961 0.0157);stop-opacity:0.8;"/>
<stop offset="0.5" stop-color="#D96504" stop-opacity="0.2" style="stop-color:#D96504;stop-color:color(display-p3 0.8510 0.3961 0.0157);stop-opacity:0.2;"/>
<stop offset="1" stop-color="#D96504" stop-opacity="0" style="stop-color:none;stop-opacity:0;"/>
</linearGradient>
<linearGradient id="paint5_linear_1_192" x1="29.4758" y1="34.9829" x2="26.6772" y2="14.8928" gradientUnits="userSpaceOnUse">
<stop stop-color="#FFA95F" style="stop-color:#FFA95F;stop-color:color(display-p3 1.0000 0.6627 0.3725);stop-opacity:1;"/>
<stop offset="1" stop-color="#FFEBC8" style="stop-color:#FFEBC8;stop-color:color(display-p3 1.0000 0.9216 0.7843);stop-opacity:1;"/>
</linearGradient>
<linearGradient id="paint6_linear_1_192" x1="29.4892" y1="13.2418" x2="35.0722" y2="23.8447" gradientUnits="userSpaceOnUse">
<stop stop-color="white" stop-opacity="0.3" style="stop-color:white;stop-opacity:0.3;"/>
<stop offset="1" stop-color="white" stop-opacity="0.06" style="stop-color:white;stop-opacity:0.06;"/>
</linearGradient>
<linearGradient id="paint7_linear_1_192" x1="22.544" y1="35.78" x2="29.5994" y2="23.0006" gradientUnits="userSpaceOnUse">
<stop stop-color="white" stop-opacity="0.3" style="stop-color:white;stop-opacity:0.3;"/>
<stop offset="1" stop-color="white" stop-opacity="0.06" style="stop-color:white;stop-opacity:0.06;"/>
</linearGradient>
<clipPath id="clip0_1_192">
<rect width="25" height="22" fill="white" style="fill:white;fill-opacity:1;" transform="translate(17 13)"/>
</clipPath>
</defs>
</svg>
